%TF.GenerationSoftware,KiCad,Pcbnew,8.0.6+1*%
%TF.CreationDate,2024-11-22T08:02:11-05:00*%
%TF.ProjectId,GRRCoaster,47525243-6f61-4737-9465-722e6b696361,rev?*%
%TF.SameCoordinates,Original*%
%TF.FileFunction,Copper,L1,Top*%
%TF.FilePolarity,Positive*%
%FSLAX46Y46*%
G04 Gerber Fmt 4.6, Leading zero omitted, Abs format (unit mm)*
G04 Created by KiCad (PCBNEW 8.0.6+1) date 2024-11-22 08:02:11*
%MOMM*%
%LPD*%
G01*
G04 APERTURE LIST*
G04 Aperture macros list*
%AMFreePoly0*
4,1,84,27.995836,24.184206,29.020327,24.142848,29.930931,24.079826,30.668749,23.995611,30.709716,23.989354,31.478646,23.862209,32.040845,23.748313,32.429081,23.636297,32.676117,23.514791,32.814721,23.372425,32.868467,23.240261,32.885936,22.832138,32.734005,22.526090,32.498701,22.390935,32.261716,22.380042,31.855447,22.408656,31.347044,22.470870,31.032080,22.519980,30.107567,22.641419,29.013017,22.729477,
27.816988,22.782966,26.588038,22.800695,25.394727,22.781474,24.305614,22.724114,23.553860,22.649768,21.047134,22.213313,18.634204,21.555876,16.320424,20.680078,14.111143,19.588538,12.011713,18.283876,10.027485,16.768712,8.297482,15.180243,6.588956,13.307859,5.090280,11.317788,3.801894,9.210746,2.724241,6.987447,1.934277,4.885782,1.437835,3.219337,1.073709,1.626244,0.830183,0.030854,
0.695544,-1.642481,0.657801,-3.357032,0.668262,-4.259338,0.701321,-5.085273,0.762801,-5.903317,0.858528,-6.781947,0.994327,-7.789644,1.089500,-8.432233,1.115299,-8.792554,1.037283,-9.032963,0.910184,-9.184603,0.611543,-9.401698,0.329047,-9.396806,0.060848,-9.228673,-0.078392,-9.078983,-0.195176,-8.856171,-0.297379,-8.527698,-0.392878,-8.061022,-0.489547,-7.423604,-0.595262,-6.582903,
-0.610200,-6.455961,-0.781912,-3.980229,-0.724439,-1.497484,-0.443987,0.971255,0.053241,3.404972,0.761041,5.782649,1.673208,8.083268,2.783539,10.285814,4.085828,12.369267,5.491862,14.215166,7.269903,16.157332,9.184840,17.902406,11.230672,19.447058,13.401397,20.787962,15.691015,21.921790,18.093526,22.845213,20.602927,23.554905,23.213218,24.047538,23.226541,24.049455,23.936980,24.123520,
24.828029,24.173555,25.840787,24.200032,26.916356,24.203424,27.995836,24.184206,27.995836,24.184206,$1*%
%AMFreePoly1*
4,1,200,17.674493,14.502632,17.781495,14.428477,17.828929,14.357536,17.894898,14.118310,17.870511,13.998194,17.749223,13.884039,17.470172,13.655937,17.069602,13.342509,16.583757,12.972378,16.344076,12.792793,14.914557,11.697266,13.364272,10.451136,11.679680,9.043339,10.268018,7.829622,9.683765,7.316941,9.013057,6.720274,8.283951,6.065326,7.524504,5.377804,6.762770,4.683416,6.026808,4.007869,
5.344672,3.376868,4.744419,2.816121,4.254104,2.351335,3.901785,2.008217,3.787548,1.891793,3.389314,1.474090,3.652168,0.969794,3.844950,0.359678,3.811083,-0.257315,3.554253,-0.830063,3.518747,-0.879835,3.255086,-1.236455,4.394363,-2.396190,4.618057,-2.626236,4.997006,-3.018808,5.520140,-3.562357,6.176391,-4.245335,6.954690,-5.056194,7.843969,-5.983387,8.833160,-7.015365,
9.911193,-8.140581,11.067001,-9.347486,12.289514,-10.624534,13.567665,-11.960175,14.890385,-13.342862,16.246605,-14.761048,16.524915,-15.052133,17.876355,-16.465597,19.189871,-17.839283,20.454995,-19.162246,21.661255,-20.423543,22.798183,-21.612229,23.855309,-22.717361,24.822162,-23.727995,25.688272,-24.633188,26.443169,-25.421994,27.076384,-26.083471,27.577447,-26.606674,27.935887,-26.980660,28.141235,-27.194486,
28.168877,-27.223137,28.533421,-27.626352,28.750940,-27.946834,28.862573,-28.252044,28.889583,-28.405051,28.957602,-28.912170,27.340701,-30.529071,26.768463,-31.097628,26.335309,-31.515816,26.012806,-31.806186,25.772519,-31.991290,25.586014,-32.093679,25.424855,-32.135906,25.307398,-32.141706,24.940957,-32.096244,24.639664,-31.992706,24.637083,-31.991232,24.522559,-31.892531,24.244020,-31.636296,23.811136,-31.231722,
23.233575,-30.688005,22.521006,-30.014342,21.683096,-29.219928,20.729515,-28.313959,19.669931,-27.305631,18.514012,-26.204139,17.271428,-25.018680,15.951845,-23.758450,14.564933,-22.432644,13.120361,-21.050458,11.627796,-19.621088,11.169981,-19.182407,-2.043209,-6.519791,-2.399699,-6.783355,-2.792453,-6.966870,-3.286100,-7.053856,-3.792316,-7.042917,-4.222778,-6.932654,-4.411333,-6.815205,-4.571286,-6.685359,
-4.700977,-6.668670,-4.872316,-6.783992,-5.100094,-6.995774,-5.401575,-7.296894,-5.837287,-7.751268,-6.382272,-8.331532,-7.011574,-9.010320,-7.700233,-9.760268,-8.423292,-10.554011,-9.155793,-11.364183,-9.872779,-12.163420,-10.549292,-12.924356,-11.160374,-13.619627,-11.530687,-14.046613,-12.709903,-15.433528,-13.829165,-16.784616,-14.859698,-18.064255,-15.772726,-19.236821,-16.399052,-20.073627,-16.772163,-20.572225,
-17.043609,-20.898783,-17.245737,-21.081271,-17.410893,-21.147664,-17.571425,-21.125932,-17.602843,-21.114623,-17.708646,-21.032869,-17.761957,-20.868833,-17.759929,-20.593431,-17.699718,-20.177577,-17.578478,-19.592185,-17.393365,-18.808172,-17.366477,-18.698356,-16.504990,-15.687943,-15.413991,-12.727009,-14.103033,-9.836511,-12.581668,-7.037408,-10.859446,-4.350659,-10.767090,-4.218010,-10.389664,-3.682525,-10.036741,-3.189863,
-9.743201,-2.788172,-9.543926,-2.525601,-9.515827,-2.490835,-9.232224,-2.148020,-9.579458,-1.752542,-9.918585,-1.210178,-10.025496,-0.631880,-9.898252,-0.045581,-9.732664,0.296394,-9.564848,0.563841,-9.535220,0.599610,-9.462135,0.719076,-9.489542,0.855664,-9.643314,1.056901,-9.949324,1.370313,-9.961138,1.381955,-10.283823,1.736596,-10.496628,2.044991,-10.560663,2.228977,-10.489581,2.388535,
-10.291756,2.705647,-9.990323,3.149449,-9.608418,3.689076,-9.169174,4.293665,-8.695726,4.932350,-8.211209,5.574269,-7.738758,6.188555,-7.301506,6.744346,-6.922589,7.210777,-6.625142,7.556983,-6.432298,7.752101,-6.405947,7.771857,-6.170490,7.871036,-5.916751,7.845904,-5.611359,7.679181,-5.220944,7.353587,-4.797046,6.938737,-4.029163,6.157004,-3.653444,6.386109,-3.090608,6.596469,
-2.479489,6.602292,-1.885382,6.411323,-1.472038,6.127347,-1.340314,6.023598,-1.213594,6.000179,-1.037905,6.075501,-0.759278,6.267971,-0.509005,6.455842,1.895969,8.147681,4.436915,9.693981,7.077064,11.077068,9.779648,12.279266,12.507897,13.282898,15.225042,14.070289,15.441232,14.123507,16.222954,14.309966,16.804550,14.437914,17.218611,14.510544,17.497728,14.531052,17.674493,14.502632,
17.674493,14.502632,$1*%
%AMFreePoly2*
4,1,233,0.849984,7.152656,0.902891,7.139366,1.014665,7.020397,1.228691,6.725444,1.524310,6.285542,1.880866,5.731729,2.277700,5.095042,2.434812,4.837743,2.882546,4.102996,3.227142,3.548370,3.489127,3.147415,3.689026,2.873681,3.847366,2.700718,3.984675,2.602076,4.121477,2.551305,4.225335,2.530520,4.566566,2.469038,4.822135,2.415924,4.839811,2.411561,4.983416,2.470086,
5.283429,2.659757,5.709908,2.959281,6.232910,3.347367,6.822491,3.802720,7.055299,3.987001,7.826143,4.592426,8.431501,5.047326,8.885528,5.361467,9.202377,5.544616,9.396205,5.606539,9.402692,5.606630,9.653637,5.547992,10.034133,5.394077,10.489363,5.174819,10.964512,4.920150,11.404765,4.660005,11.755305,4.424316,11.961316,4.243016,11.990684,4.193403,11.999753,4.014511,
11.988313,3.634843,11.958590,3.093309,11.912814,2.428816,11.853213,1.680272,11.833873,1.455450,11.612761,-1.072512,12.064808,-1.538648,12.516854,-2.004783,15.088522,-1.881930,16.022672,-1.843246,16.788356,-1.823937,17.366607,-1.824069,17.738455,-1.843709,17.872110,-1.872124,18.027635,-2.036241,18.242127,-2.365412,18.486023,-2.800798,18.729759,-3.283564,18.943771,-3.754871,19.098495,-4.155884,
19.164366,-4.427766,19.164929,-4.445031,19.108970,-4.628673,18.932900,-4.919799,18.624430,-5.335064,18.171270,-5.891123,17.630095,-6.525103,17.143960,-7.087416,16.704102,-7.597946,16.337972,-8.024693,16.073017,-8.335661,15.936687,-8.498849,15.933001,-8.503491,15.833505,-8.755068,15.835183,-9.159878,15.852818,-9.306237,15.934895,-9.903005,18.140793,-11.361100,18.788183,-11.794110,19.365950,-12.190247,
19.844123,-12.528166,20.192730,-12.786522,20.381801,-12.943970,20.406331,-12.974616,20.411570,-13.160477,20.374201,-13.519839,20.305203,-13.991487,20.215557,-14.514203,20.116239,-15.026770,20.018229,-15.467971,19.932506,-15.776589,19.884937,-15.881878,19.739233,-15.947551,19.394282,-16.055750,18.885850,-16.196717,18.249703,-16.360697,17.521608,-16.537936,17.223235,-16.607900,16.384545,-16.803768,15.748940,-16.957467,
15.284676,-17.079919,14.960005,-17.182048,14.743183,-17.274777,14.602464,-17.369029,14.506102,-17.475728,14.448719,-17.562576,14.308182,-17.805448,14.217224,-18.028974,14.181362,-18.269204,14.206112,-18.562191,14.296992,-18.943986,14.459518,-19.450642,14.699207,-20.118212,14.937945,-20.759563,15.199424,-21.471170,15.428680,-22.120546,15.612709,-22.668741,15.738504,-23.076805,15.793059,-23.305787,15.794313,-23.324195,
15.705961,-23.544016,15.471336,-23.864794,15.136089,-24.242123,14.745870,-24.631594,14.346326,-24.988801,13.983109,-25.269337,13.701868,-25.428795,13.609761,-25.449289,13.452903,-25.395577,13.206670,-25.224872,12.854707,-24.922826,12.380659,-24.475088,11.768171,-23.867308,11.517465,-23.613507,10.424083,-22.501461,9.488231,-21.547650,8.697955,-20.739313,8.041302,-20.063687,7.506320,-19.508011,7.081054,-19.059522,
6.753553,-18.705459,6.511863,-18.433059,6.344031,-18.229560,6.238104,-18.082200,6.182129,-17.978218,6.164153,-17.904850,6.163981,-17.897688,6.250237,-17.694742,6.492221,-17.365261,6.864756,-16.941577,7.096920,-16.699628,7.988189,-15.678955,8.663060,-14.637960,9.145267,-13.538985,9.207417,-13.351185,9.403211,-12.464176,9.485026,-11.460864,9.454145,-10.430326,9.311850,-9.461639,9.142690,-8.856877,
8.588097,-7.626872,7.859151,-6.537703,6.978542,-5.603117,5.968960,-4.836861,4.853093,-4.252681,3.653631,-3.864325,2.393264,-3.685538,1.094682,-3.730068,0.760948,-3.778677,-0.253060,-4.052955,-1.313352,-4.532419,-2.381442,-5.196914,-3.254348,-5.881470,-3.692786,-6.243405,-4.085715,-6.536979,-4.387291,-6.729826,-4.541979,-6.790522,-4.603550,-6.776885,-4.692635,-6.728123,-4.821199,-6.632455,
-5.001204,-6.478101,-5.244614,-6.253282,-5.563392,-5.946219,-5.969501,-5.545130,-6.474903,-5.038236,-7.091563,-4.413759,-7.831443,-3.659917,-8.706506,-2.764931,-9.728716,-1.717021,-10.538564,-0.885835,-11.095900,-0.302043,-11.492063,0.142046,-11.744456,0.468207,-11.870482,0.698214,-11.892891,0.808692,-11.803786,1.043503,-11.567075,1.376639,-11.228661,1.763186,-10.834450,2.158229,-10.430346,2.516853,
-10.062252,2.794143,-9.776074,2.945182,-9.694006,2.960189,-9.495364,2.915150,-9.113455,2.789377,-8.586340,2.596894,-7.952081,2.351720,-7.248739,2.067877,-7.062031,1.990630,-4.730523,1.021070,-4.161590,1.287544,-3.986941,1.365189,-3.849226,1.431999,-3.736715,1.515631,-3.637683,1.643741,-3.540399,1.843986,-3.433138,2.144022,-3.304170,2.571508,-3.141767,3.154098,-2.934203,3.919450,
-2.737640,4.645497,-2.528085,5.379152,-2.334634,5.983410,-2.168632,6.425915,-2.041423,6.674311,-2.016220,6.703002,-1.813195,6.793387,-1.434262,6.891065,-0.943681,6.986431,-0.405708,7.069878,0.115399,7.131802,0.555382,7.162596,0.849984,7.152656,0.849984,7.152656,$1*%
%AMFreePoly3*
4,1,45,-0.341707,2.794066,0.058507,2.702351,0.572731,2.567771,1.150443,2.405282,1.741124,2.229840,2.294251,2.056401,2.759305,1.899921,3.085763,1.775355,3.217855,1.704453,3.291257,1.544219,3.404949,1.192024,3.546560,0.690833,3.703720,0.083614,3.807080,-0.342199,4.258071,-2.248378,3.187330,-3.330205,2.614791,-3.892941,2.170248,-4.289738,1.827382,-4.539456,1.559870,-4.660956,
1.341393,-4.673099,1.319478,-4.668626,1.186860,-4.572199,0.913737,-4.323613,0.524114,-3.946497,0.041995,-3.464480,-0.508615,-2.901191,-1.058010,-2.328365,-1.745331,-1.600741,-2.279411,-1.023296,-2.677059,-0.575777,-2.955085,-0.237932,-3.130299,0.010493,-3.219510,0.189750,-3.240284,0.300884,-3.206060,0.473986,-3.086120,0.681432,-2.854569,0.954367,-2.485507,1.323935,-2.050854,1.731309,
-1.441730,2.271648,-0.984207,2.629337,-0.675487,2.806458,-0.577390,2.827962,-0.341707,2.794066,-0.341707,2.794066,$1*%
%AMFreePoly4*
4,1,47,-0.130634,0.976939,0.271120,0.804927,0.798908,0.543468,1.414661,0.213200,2.080308,-0.165237,2.757780,-0.571204,3.409005,-0.984061,3.615809,-1.121080,5.600460,-2.592439,7.457910,-4.251165,9.167677,-6.073166,10.709275,-8.034352,12.062220,-10.110630,13.206027,-12.277908,13.329017,-12.544626,13.644803,-13.259371,13.856756,-13.794301,13.972854,-14.182825,14.001074,-14.458346,13.949396,-14.654272,
13.860802,-14.771291,13.585448,-14.923372,13.244088,-14.965559,12.948245,-14.892302,12.860417,-14.821090,12.761669,-14.652017,12.594704,-14.316111,12.385939,-13.867916,12.233661,-13.527014,11.118374,-11.281822,9.806357,-9.173553,8.302234,-7.207140,6.610627,-5.387512,4.736158,-3.719602,2.683449,-2.208339,0.457122,-0.858655,0.255450,-0.749076,-0.276872,-0.455580,-0.630227,-0.238445,-0.841840,-0.068081,
-0.948935,0.085104,-0.987459,0.238915,-0.934282,0.603420,-0.727524,0.894289,-0.426199,1.035281,-0.368282,1.038862,-0.130634,0.976939,-0.130634,0.976939,$1*%
%AMFreePoly5*
4,1,70,-39.013219,11.619641,-38.747700,11.384522,-38.460702,10.950060,-38.263342,10.578008,-37.086583,8.496264,-35.701837,6.521475,-34.101377,4.643056,-33.402518,3.919756,-31.529740,2.212005,-29.536803,0.712329,-27.429061,-0.576651,-25.211863,-1.652315,-22.890562,-2.512044,-20.470508,-3.153216,-18.146140,-3.549768,-17.037739,-3.651861,-15.779195,-3.702220,-14.444223,-3.702500,-13.106534,-3.654354,-11.839842,-3.559439,
-10.717859,-3.419406,-10.468246,-3.377477,-7.992584,-2.816827,-5.615512,-2.036568,-3.336382,-1.036446,-1.154545,0.183796,-0.743488,0.445385,-0.155036,0.804517,0.285143,1.011445,0.609996,1.072472,0.852469,0.993901,1.042263,0.787012,1.156443,0.529591,1.134685,0.277225,0.958348,0.004224,0.608793,-0.315101,0.067377,-0.706442,-0.143494,-0.847162,-1.853781,-1.858565,-3.738747,-2.765634,
-5.748666,-3.551259,-7.833815,-4.198330,-9.944469,-4.689735,-12.030902,-5.008365,-12.324935,-5.038865,-13.331025,-5.109243,-14.466567,-5.143299,-15.637542,-5.141078,-16.749932,-5.102627,-17.630805,-5.036313,-20.173478,-4.658476,-22.650526,-4.055193,-25.047579,-3.233112,-27.350264,-2.198878,-29.544210,-0.959138,-31.615043,0.479461,-33.548393,2.110275,-33.989642,2.528853,-35.740537,4.362981,-37.258408,6.242338,
-38.547772,8.172919,-39.381500,9.685782,-39.683902,10.324234,-39.856764,10.795798,-39.903761,11.134133,-39.828565,11.372901,-39.634848,11.545760,-39.587366,11.572638,-39.284145,11.675613,-39.013219,11.619641,-39.013219,11.619641,$1*%
%AMFreePoly6*
4,1,26,0.512339,0.698567,0.651953,0.516164,0.692705,0.360494,0.664017,0.098987,0.558069,-0.306650,0.367039,-0.894709,0.359050,-0.918089,0.088421,-1.646443,-0.157870,-2.154843,-0.397693,-2.460363,-0.648921,-2.580080,-0.929426,-2.531067,-1.178902,-2.387487,-1.328809,-2.260062,-1.409349,-2.107404,-1.416296,-1.889020,-1.345426,-1.564417,-1.192513,-1.093104,-0.983670,-0.516556,-0.766692,0.050505,
-0.598306,0.430331,-0.454169,0.665131,-0.309941,0.797115,-0.194853,0.851301,0.191639,0.889201,0.512339,0.698567,0.512339,0.698567,$1*%
%AMFreePoly7*
4,1,27,0.346983,0.822677,0.540441,0.692880,0.670338,0.433175,0.753436,0.008072,0.806498,-0.617918,0.811471,-0.705101,0.838044,-1.260224,0.839629,-1.629349,0.809144,-1.866568,0.739510,-2.025973,0.623646,-2.161657,0.620382,-2.164926,0.271300,-2.388275,-0.080147,-2.372765,-0.359241,-2.181517,-0.469729,-2.042255,-0.540633,-1.856014,-0.580342,-1.570884,-0.597244,-1.134954,-0.600000,-0.691517,
-0.588822,-0.050839,-0.544514,0.386888,-0.450909,0.658872,-0.291843,0.802321,-0.051152,0.854444,0.073204,0.858057,0.346983,0.822677,0.346983,0.822677,$1*%
G04 Aperture macros list end*
%TA.AperFunction,SMDPad,CuDef*%
%ADD10FreePoly0,0.000000*%
%TD*%
%TA.AperFunction,SMDPad,CuDef*%
%ADD11FreePoly1,0.000000*%
%TD*%
%TA.AperFunction,SMDPad,CuDef*%
%ADD12FreePoly2,0.000000*%
%TD*%
%TA.AperFunction,SMDPad,CuDef*%
%ADD13FreePoly3,0.000000*%
%TD*%
%TA.AperFunction,SMDPad,CuDef*%
%ADD14FreePoly4,0.000000*%
%TD*%
%TA.AperFunction,SMDPad,CuDef*%
%ADD15FreePoly5,0.000000*%
%TD*%
%TA.AperFunction,SMDPad,CuDef*%
%ADD16FreePoly6,0.000000*%
%TD*%
%TA.AperFunction,SMDPad,CuDef*%
%ADD17FreePoly7,0.000000*%
%TD*%
%TA.AperFunction,ViaPad*%
%ADD18C,2.000000*%
%TD*%
%TA.AperFunction,Conductor*%
%ADD19C,1.000000*%
%TD*%
G04 APERTURE END LIST*
D10*
%TO.P,REF\u002A\u002A,1*%
%TO.N,N/C*%
X20100000Y-43750000D03*
D11*
X38900000Y-35850000D03*
D12*
X55400000Y-37250000D03*
D13*
X57100000Y-47350000D03*
D14*
X58600000Y-23050000D03*
D15*
X61800000Y-69450000D03*
D16*
X72400000Y-55550000D03*
D17*
X73600000Y-45350000D03*
%TD*%
D18*
%TO.N,*%
X27800000Y-53250000D03*
X59300000Y-67250000D03*
X51700000Y-70150000D03*
X45500000Y-64050000D03*
X46400000Y-70750000D03*
X55800000Y-69250000D03*
X42000000Y-61350000D03*
X25500000Y-55750000D03*
X33400000Y-64950000D03*
X38900000Y-57950000D03*
X35600000Y-54550000D03*
X29100000Y-61350000D03*
X32900000Y-47550000D03*
X43200000Y-56750000D03*
X41700000Y-50750000D03*
X35900000Y-44950000D03*
%TD*%
D19*
%TO.N,*%
X45500000Y-64050000D02*
X45600000Y-64050000D01*
X31150000Y-50100000D02*
X35600000Y-54550000D01*
X28000000Y-53250000D02*
X31150000Y-50100000D01*
X27800000Y-53250000D02*
X28000000Y-53250000D01*
X40600000Y-64950000D02*
X46400000Y-70750000D01*
X32900000Y-47550000D02*
X38900000Y-53550000D01*
X27700000Y-57950000D02*
X25500000Y-55750000D01*
X38900000Y-57950000D02*
X27700000Y-57950000D01*
X45600000Y-53550000D02*
X59300000Y-67250000D01*
X41700000Y-50750000D02*
X35900000Y-44950000D01*
X45600000Y-64050000D02*
X51700000Y-70150000D01*
X43300000Y-56750000D02*
X43200000Y-56750000D01*
X33400000Y-64950000D02*
X40600000Y-64950000D01*
X29100000Y-61350000D02*
X42000000Y-61350000D01*
X38900000Y-53550000D02*
X45600000Y-53550000D01*
X55800000Y-69250000D02*
X43300000Y-56750000D01*
%TD*%
%TA.AperFunction,NonConductor*%
G36*
X43097493Y-36841640D02*
G01*
X43134824Y-36883426D01*
X43212229Y-37024697D01*
X43212235Y-37024706D01*
X43255758Y-37091149D01*
X43255767Y-37091161D01*
X43407953Y-37287828D01*
X43433413Y-37352894D01*
X43419654Y-37421395D01*
X43371044Y-37471584D01*
X43303017Y-37487525D01*
X43237171Y-37464157D01*
X43221428Y-37450613D01*
X43195324Y-37424040D01*
X42890019Y-37113253D01*
X42857082Y-37051635D01*
X42862686Y-36981990D01*
X42870905Y-36964679D01*
X42875295Y-36957022D01*
X42915502Y-36886895D01*
X42915511Y-36886874D01*
X42915576Y-36886748D01*
X42915602Y-36886720D01*
X42917030Y-36884230D01*
X42917628Y-36884573D01*
X42963535Y-36835938D01*
X43031351Y-36819122D01*
X43097493Y-36841640D01*
G37*
%TD.AperFunction*%
%TA.AperFunction,NonConductor*%
G36*
X57080716Y-22359767D02*
G01*
X57132184Y-22407019D01*
X57149935Y-22474596D01*
X57148687Y-22488935D01*
X57112335Y-22738114D01*
X57107449Y-22790777D01*
X57122187Y-22933905D01*
X57122189Y-22933915D01*
X57160706Y-23087694D01*
X57171952Y-23126083D01*
X57171953Y-23126085D01*
X57236770Y-23254535D01*
X57343864Y-23407718D01*
X57343866Y-23407721D01*
X57441156Y-23511830D01*
X57441170Y-23511843D01*
X57652772Y-23682198D01*
X57684120Y-23704313D01*
X57705120Y-23719129D01*
X58058475Y-23936264D01*
X58079059Y-23948254D01*
X58611381Y-24241750D01*
X58614110Y-24243244D01*
X58614227Y-24243307D01*
X58614299Y-24243347D01*
X58802695Y-24345712D01*
X58807777Y-24348631D01*
X60997254Y-25675975D01*
X61006486Y-25682154D01*
X61278797Y-25882637D01*
X63012985Y-27159396D01*
X63021896Y-27166615D01*
X63613972Y-27693446D01*
X64852326Y-28795338D01*
X64860700Y-28803531D01*
X66171365Y-30213388D01*
X66511418Y-30579176D01*
X66519091Y-30588268D01*
X67975716Y-32492585D01*
X67986420Y-32506578D01*
X67993203Y-32516391D01*
X68784038Y-33787177D01*
X69273276Y-34573329D01*
X69279051Y-34583681D01*
X69658988Y-35348535D01*
X70310427Y-36659953D01*
X70375202Y-36790351D01*
X70377367Y-36794942D01*
X70524405Y-37124113D01*
X70527722Y-37131381D01*
X70736462Y-37579523D01*
X70742052Y-37591138D01*
X70908999Y-37927007D01*
X70925164Y-37956956D01*
X70952024Y-38002944D01*
X71023914Y-38126032D01*
X71044326Y-38158141D01*
X71142052Y-38263740D01*
X71229880Y-38334952D01*
X71229891Y-38334959D01*
X71229898Y-38334965D01*
X71280592Y-38370006D01*
X71324547Y-38424317D01*
X71332160Y-38493771D01*
X71301016Y-38556315D01*
X71241002Y-38592093D01*
X71215216Y-38595903D01*
X70467526Y-38626866D01*
X70464523Y-38627000D01*
X68176732Y-38736291D01*
X68108829Y-38719828D01*
X68081799Y-38698758D01*
X67985308Y-38599260D01*
X67827693Y-38436732D01*
X67575914Y-38177106D01*
X67543375Y-38115277D01*
X67541403Y-38079980D01*
X67666280Y-36652274D01*
X67737451Y-35838590D01*
X67737454Y-35838554D01*
X67737506Y-35837959D01*
X67753212Y-35655377D01*
X67756853Y-35613053D01*
X67757118Y-35609850D01*
X67816719Y-34861306D01*
X67817119Y-34855925D01*
X67862895Y-34191432D01*
X67863330Y-34184395D01*
X67893053Y-33642861D01*
X67893584Y-33630382D01*
X67905024Y-33250714D01*
X67904879Y-33236636D01*
X67904605Y-33209908D01*
X67904605Y-33209895D01*
X67895536Y-33031003D01*
X67880610Y-32932086D01*
X67825686Y-32799101D01*
X67825684Y-32799098D01*
X67825683Y-32799095D01*
X67796300Y-32749458D01*
X67788661Y-32736971D01*
X67788658Y-32736967D01*
X67767349Y-32711990D01*
X67695274Y-32627508D01*
X67537435Y-32488602D01*
X67489261Y-32446206D01*
X67489247Y-32446195D01*
X67437365Y-32406194D01*
X67437362Y-32406192D01*
X67437357Y-32406188D01*
X67086817Y-32170499D01*
X67061924Y-32154795D01*
X66901815Y-32060187D01*
X66621680Y-31894655D01*
X66603327Y-31884320D01*
X66603326Y-31884319D01*
X66603311Y-31884311D01*
X66128162Y-31629642D01*
X66108716Y-31619753D01*
X66108709Y-31619749D01*
X66108696Y-31619743D01*
X65653494Y-31400498D01*
X65636499Y-31392978D01*
X65623692Y-31387311D01*
X65623681Y-31387306D01*
X65623673Y-31387303D01*
X65243207Y-31233400D01*
X65243176Y-31233389D01*
X65168670Y-31209771D01*
X65168653Y-31209766D01*
X64917715Y-31151130D01*
X64836305Y-31142323D01*
X64795602Y-31137920D01*
X64795601Y-31137920D01*
X64795599Y-31137919D01*
X64789070Y-31138011D01*
X64784271Y-31138101D01*
X64784262Y-31138102D01*
X64642374Y-31161936D01*
X64448540Y-31223860D01*
X64349404Y-31267736D01*
X64032556Y-31450884D01*
X63997906Y-31472834D01*
X63543905Y-31786957D01*
X63527812Y-31798566D01*
X62922476Y-32253449D01*
X62913886Y-32260048D01*
X62142962Y-32865536D01*
X62141640Y-32866578D01*
X62141641Y-32866579D01*
X62141560Y-32866643D01*
X62118809Y-32884652D01*
X61911710Y-33048581D01*
X61910545Y-33049492D01*
X61328714Y-33498859D01*
X61326810Y-33500300D01*
X60815277Y-33879876D01*
X60812653Y-33881771D01*
X60405401Y-34167792D01*
X60400396Y-34171129D01*
X60224114Y-34282576D01*
X60156930Y-34301762D01*
X60132622Y-34299171D01*
X60069464Y-34286045D01*
X60069441Y-34286040D01*
X60069424Y-34286037D01*
X60056202Y-34283473D01*
X60056187Y-34283470D01*
X60056170Y-34283467D01*
X59720942Y-34223066D01*
X59718597Y-34222620D01*
X59669493Y-34212793D01*
X59650685Y-34207457D01*
X59639991Y-34203488D01*
X59610791Y-34187944D01*
X59595276Y-34176797D01*
X59576169Y-34159827D01*
X59514174Y-34092107D01*
X59485400Y-34060675D01*
X59476724Y-34050077D01*
X59307007Y-33817673D01*
X59303342Y-33812371D01*
X59054241Y-33431134D01*
X59052720Y-33428748D01*
X59044379Y-33415323D01*
X58713268Y-32882401D01*
X58712926Y-32881846D01*
X58266480Y-32149211D01*
X58266240Y-32148818D01*
X58109128Y-31891519D01*
X58106695Y-31887574D01*
X57709861Y-31250887D01*
X57705895Y-31244628D01*
X57692524Y-31223860D01*
X57349375Y-30690870D01*
X57349339Y-30690815D01*
X57343874Y-30682507D01*
X57048255Y-30242605D01*
X57037827Y-30227676D01*
X56823801Y-29932723D01*
X56823800Y-29932722D01*
X56823793Y-29932712D01*
X56796154Y-29899292D01*
X56783074Y-29883474D01*
X56673984Y-29767362D01*
X56671302Y-29764507D01*
X56671301Y-29764506D01*
X56671300Y-29764505D01*
X56563229Y-29678156D01*
X56559183Y-29674923D01*
X56559179Y-29674920D01*
X56426053Y-29620368D01*
X56426042Y-29620364D01*
X56373134Y-29607074D01*
X56267034Y-29592131D01*
X56267022Y-29592130D01*
X55972442Y-29582190D01*
X55920104Y-29583137D01*
X55920076Y-29583138D01*
X55480135Y-29613929D01*
X55455749Y-29616229D01*
X55027731Y-29667092D01*
X54934642Y-29678154D01*
X54934629Y-29678155D01*
X54934627Y-29678156D01*
X54916824Y-29680593D01*
X54378821Y-29764045D01*
X54359833Y-29767362D01*
X53869296Y-29862720D01*
X53839558Y-29869436D01*
X53594085Y-29932712D01*
X53460626Y-29967114D01*
X53460620Y-29967115D01*
X53460603Y-29967121D01*
X53381231Y-29994802D01*
X53381212Y-29994809D01*
X53178185Y-30085195D01*
X53113371Y-30119904D01*
X53003997Y-30213388D01*
X52978797Y-30242076D01*
X52908647Y-30345269D01*
X52781435Y-30593670D01*
X52758073Y-30646539D01*
X52758061Y-30646568D01*
X52592082Y-31089015D01*
X52583941Y-31112446D01*
X52390478Y-31716739D01*
X52385857Y-31732001D01*
X52176275Y-32465750D01*
X52174428Y-32472392D01*
X51977934Y-33198185D01*
X51977920Y-33198238D01*
X51770936Y-33961447D01*
X51770705Y-33962287D01*
X51610679Y-34536351D01*
X51609948Y-34538869D01*
X51487482Y-34944801D01*
X51485530Y-34950728D01*
X51395153Y-35203536D01*
X51389924Y-35215981D01*
X51336043Y-35326886D01*
X51322616Y-35348535D01*
X51317774Y-35354799D01*
X51273791Y-35390527D01*
X51201863Y-35425422D01*
X51198113Y-35427165D01*
X51033030Y-35500557D01*
X51024004Y-35504678D01*
X50706956Y-35653175D01*
X50637897Y-35663784D01*
X50606748Y-35655377D01*
X50086907Y-35439201D01*
X48532068Y-34792620D01*
X48532045Y-34792610D01*
X48531542Y-34792401D01*
X48531223Y-34792269D01*
X48531162Y-34792243D01*
X48344624Y-34715066D01*
X48341915Y-34713959D01*
X48340438Y-34713356D01*
X48174955Y-34646573D01*
X47637123Y-34429523D01*
X47630182Y-34426781D01*
X47037510Y-34197683D01*
X46995919Y-34181606D01*
X46995898Y-34181598D01*
X46987031Y-34178266D01*
X46459978Y-33985806D01*
X46459959Y-33985799D01*
X46459936Y-33985791D01*
X46444666Y-33980490D01*
X46444634Y-33980479D01*
X46444601Y-33980468D01*
X46062790Y-33854727D01*
X46062720Y-33854706D01*
X46016429Y-33841867D01*
X46016391Y-33841857D01*
X45817790Y-33796827D01*
X45817780Y-33796825D01*
X45758839Y-33787080D01*
X45615068Y-33792555D01*
X45615066Y-33792555D01*
X45533010Y-33807560D01*
X45523482Y-33809398D01*
X45387979Y-33857761D01*
X45101794Y-34008804D01*
X45033601Y-34052094D01*
X45033578Y-34052110D01*
X44665502Y-34329387D01*
X44634125Y-34355058D01*
X44553308Y-34426780D01*
X44230017Y-34713686D01*
X44230000Y-34713701D01*
X44230000Y-34713702D01*
X44207749Y-34734687D01*
X43813523Y-35129746D01*
X43790985Y-35153855D01*
X43463713Y-35527676D01*
X43404743Y-35565150D01*
X43334874Y-35564793D01*
X43276290Y-35526719D01*
X43248065Y-35466148D01*
X43226962Y-35338026D01*
X43226960Y-35338021D01*
X43226960Y-35338018D01*
X43034178Y-34727902D01*
X43028137Y-34713342D01*
X43000437Y-34646573D01*
X43000433Y-34646565D01*
X43000430Y-34646558D01*
X42945740Y-34541634D01*
X42932211Y-34473089D01*
X42957888Y-34408108D01*
X42965943Y-34398767D01*
X43050373Y-34310210D01*
X43051469Y-34309076D01*
X43157620Y-34200894D01*
X43159519Y-34199000D01*
X43503819Y-33863693D01*
X43504868Y-33862685D01*
X43990741Y-33402110D01*
X43990919Y-33401942D01*
X44588964Y-32843260D01*
X45269280Y-32213942D01*
X46003898Y-31539628D01*
X46764532Y-30846244D01*
X47522424Y-30160129D01*
X48249861Y-29506680D01*
X48918370Y-28911968D01*
X48918749Y-28911633D01*
X49499128Y-28402352D01*
X49499831Y-28401741D01*
X50906035Y-27192717D01*
X50907122Y-27191796D01*
X52583909Y-25790520D01*
X52585576Y-25789154D01*
X54125576Y-24551292D01*
X54127755Y-24549580D01*
X55549083Y-23460330D01*
X55549704Y-23459860D01*
X55786867Y-23282164D01*
X55790093Y-23279727D01*
X56275938Y-22909596D01*
X56281108Y-22905604D01*
X56681678Y-22592176D01*
X56690095Y-22585444D01*
X56947508Y-22375028D01*
X57011871Y-22347841D01*
X57080716Y-22359767D01*
G37*
%TD.AperFunction*%
%TA.AperFunction,NonConductor*%
G36*
X72473284Y-45411497D02*
G01*
X72502621Y-45474909D01*
X72503952Y-45495321D01*
X72494576Y-46032691D01*
X72494510Y-46044618D01*
X72494510Y-46044659D01*
X72495005Y-46124285D01*
X72497266Y-46488101D01*
X72497636Y-46504554D01*
X72514538Y-46940477D01*
X72518991Y-46990623D01*
X72533132Y-47092163D01*
X72522882Y-47161277D01*
X72476894Y-47213877D01*
X72409767Y-47233265D01*
X72342816Y-47213283D01*
X72341941Y-47212710D01*
X71851327Y-46888415D01*
X71806255Y-46835027D01*
X71796859Y-46801866D01*
X71774904Y-46642235D01*
X71754307Y-46492475D01*
X71754067Y-46490619D01*
X71741414Y-46385610D01*
X71740527Y-46371311D01*
X71740112Y-46271291D01*
X71739503Y-46124284D01*
X71748192Y-46078169D01*
X71765962Y-46033235D01*
X71786105Y-45999344D01*
X71859126Y-45911939D01*
X71859632Y-45911339D01*
X72122140Y-45603244D01*
X72285862Y-45412414D01*
X72344453Y-45374354D01*
X72414322Y-45374011D01*
X72473284Y-45411497D01*
G37*
%TD.AperFunction*%
%TA.AperFunction,NonConductor*%
G36*
X47900230Y-21472343D02*
G01*
X47903855Y-21472451D01*
X49079259Y-21525017D01*
X49083583Y-21525287D01*
X50151239Y-21611182D01*
X50157437Y-21611838D01*
X51058768Y-21730232D01*
X51061643Y-21730645D01*
X51369166Y-21778595D01*
X51385643Y-21780887D01*
X51385663Y-21780889D01*
X51385667Y-21780890D01*
X51388479Y-21781234D01*
X51430645Y-21786393D01*
X51494795Y-21814074D01*
X51533798Y-21872044D01*
X51535269Y-21941898D01*
X51498740Y-22001458D01*
X51450097Y-22028575D01*
X51267209Y-22081574D01*
X51267199Y-22081577D01*
X51248008Y-22087879D01*
X51233354Y-22092691D01*
X48505134Y-23096312D01*
X48474188Y-23108871D01*
X45771622Y-24311061D01*
X45742499Y-24325149D01*
X43102332Y-25708245D01*
X43074105Y-25724206D01*
X40533196Y-27270483D01*
X40505124Y-27288870D01*
X38100138Y-28980717D01*
X38087505Y-28989899D01*
X37847165Y-29170312D01*
X37843201Y-29173168D01*
X37752751Y-29235649D01*
X37686404Y-29257555D01*
X37618746Y-29240114D01*
X37612058Y-29235828D01*
X37301008Y-29022130D01*
X37298627Y-29020504D01*
X37298621Y-29020500D01*
X37169309Y-28957427D01*
X37169307Y-28957426D01*
X36575183Y-28766452D01*
X36558306Y-28761350D01*
X36558290Y-28761347D01*
X36415693Y-28742230D01*
X35804589Y-28748053D01*
X35772989Y-28749342D01*
X35772986Y-28749343D01*
X35632419Y-28780021D01*
X35632412Y-28780023D01*
X35069601Y-28990373D01*
X35069571Y-28990386D01*
X35027741Y-29010728D01*
X34958843Y-29022343D01*
X34894604Y-28994865D01*
X34885064Y-28986119D01*
X34463577Y-28557029D01*
X34456520Y-28549986D01*
X34032622Y-28135136D01*
X34032617Y-28135131D01*
X34002833Y-28108214D01*
X33935051Y-28051686D01*
X33612400Y-27782605D01*
X33530864Y-27727132D01*
X33530857Y-27727128D01*
X33530845Y-27727120D01*
X33225484Y-27560415D01*
X33225464Y-27560405D01*
X33172781Y-27535473D01*
X33172777Y-27535471D01*
X33033073Y-27501057D01*
X33033071Y-27501056D01*
X33033068Y-27501056D01*
X32779350Y-27475926D01*
X32779335Y-27475925D01*
X32779334Y-27475925D01*
X32779333Y-27475925D01*
X32672476Y-27476692D01*
X32672471Y-27476693D01*
X32533282Y-27513104D01*
X32533275Y-27513107D01*
X32297828Y-27612282D01*
X32297815Y-27612289D01*
X32190827Y-27673687D01*
X32164478Y-27693442D01*
X32164460Y-27693457D01*
X32108167Y-27742561D01*
X31915318Y-27937684D01*
X31891443Y-27963588D01*
X31593979Y-28309814D01*
X31585048Y-28320502D01*
X31206165Y-28786892D01*
X31201183Y-28793123D01*
X30763923Y-29348924D01*
X30760532Y-29353284D01*
X30288135Y-29967500D01*
X30285351Y-29971153D01*
X29800847Y-30613055D01*
X29798096Y-30616735D01*
X29324792Y-31255226D01*
X29321823Y-31259269D01*
X28882622Y-31863799D01*
X28878960Y-31868907D01*
X28497070Y-32408512D01*
X28491527Y-32416506D01*
X28190057Y-32860363D01*
X28179373Y-32876770D01*
X27981531Y-33193908D01*
X27948674Y-33255742D01*
X27948670Y-33255750D01*
X27877582Y-33415323D01*
X27847881Y-33502692D01*
X27847881Y-33502697D01*
X27835912Y-33630382D01*
X27834452Y-33645954D01*
X27861923Y-33787171D01*
X27861924Y-33787177D01*
X27891436Y-33871971D01*
X27894187Y-33879876D01*
X27925962Y-33971170D01*
X27925963Y-33971174D01*
X27987308Y-34092099D01*
X27987310Y-34092102D01*
X27987313Y-34092107D01*
X28200118Y-34400502D01*
X28200132Y-34400520D01*
X28200139Y-34400529D01*
X28242275Y-34453592D01*
X28242286Y-34453604D01*
X28564971Y-34808245D01*
X28584050Y-34828099D01*
X28591562Y-34835501D01*
X28593217Y-34837164D01*
X28784901Y-35033485D01*
X28817651Y-35095204D01*
X28811834Y-35164831D01*
X28801213Y-35186018D01*
X28739160Y-35284911D01*
X28739151Y-35284926D01*
X28712372Y-35333291D01*
X28712364Y-35333307D01*
X28546777Y-35675280D01*
X28507746Y-35788375D01*
X28380504Y-36374663D01*
X28371672Y-36430011D01*
X28377426Y-36573774D01*
X28451349Y-36973630D01*
X28480512Y-37131381D01*
X28484340Y-37152084D01*
X28494661Y-37196564D01*
X28552804Y-37328176D01*
X28552805Y-37328177D01*
X28891932Y-37870541D01*
X28905332Y-37888551D01*
X28941682Y-37937408D01*
X28965907Y-38002944D01*
X28950854Y-38071173D01*
X28940976Y-38086383D01*
X28910593Y-38126418D01*
X28754129Y-38332578D01*
X28748667Y-38339913D01*
X28455079Y-38741668D01*
X28452333Y-38745464D01*
X28099329Y-39238238D01*
X28097288Y-39241112D01*
X27719627Y-39776930D01*
X27717944Y-39779332D01*
X27625694Y-39911830D01*
X27614996Y-39927839D01*
X25892758Y-42614611D01*
X25874199Y-42646003D01*
X24352825Y-45445121D01*
X24336598Y-45477725D01*
X23025644Y-48368214D01*
X23011687Y-48402224D01*
X22331594Y-50247974D01*
X21920684Y-51363171D01*
X21911112Y-51392457D01*
X21909010Y-51398891D01*
X21852997Y-51594623D01*
X21815628Y-51653660D01*
X21752273Y-51683121D01*
X21683048Y-51673653D01*
X21629931Y-51628262D01*
X21611122Y-51578676D01*
X21594964Y-51469585D01*
X21594744Y-51468024D01*
X21585428Y-51398891D01*
X21460567Y-50472368D01*
X21460189Y-50469264D01*
X21366460Y-49608980D01*
X21366088Y-49604932D01*
X21306224Y-48808376D01*
X21305979Y-48804121D01*
X21273712Y-47998001D01*
X21273624Y-47994565D01*
X21263389Y-47111749D01*
X21263411Y-47107586D01*
X21273655Y-46642230D01*
X21300517Y-45421944D01*
X21300886Y-45414739D01*
X21302063Y-45400109D01*
X21432258Y-43782000D01*
X21433275Y-43773270D01*
X21669940Y-42222833D01*
X21671636Y-42213921D01*
X21688473Y-42140259D01*
X22026083Y-40663173D01*
X22028116Y-40655441D01*
X22512456Y-39029622D01*
X22515206Y-39021450D01*
X23287250Y-36967458D01*
X23291721Y-36957042D01*
X24343387Y-34787356D01*
X24349167Y-34776777D01*
X25605662Y-32721891D01*
X25612394Y-32711990D01*
X25676014Y-32627510D01*
X27074920Y-30769923D01*
X27082351Y-30760965D01*
X28752147Y-28931026D01*
X28759862Y-28923289D01*
X30448361Y-27372927D01*
X30456944Y-27365735D01*
X32394445Y-25886251D01*
X32404237Y-25879493D01*
X34451978Y-24606954D01*
X34462476Y-24601117D01*
X36616934Y-23536663D01*
X36627956Y-23531868D01*
X38884921Y-22677575D01*
X38896200Y-22673913D01*
X41251591Y-22032153D01*
X41262875Y-22029639D01*
X43717693Y-21602222D01*
X43726719Y-21600991D01*
X44441016Y-21530350D01*
X44446632Y-21529925D01*
X45509864Y-21473928D01*
X45514307Y-21473775D01*
X46686599Y-21454892D01*
X46690334Y-21454890D01*
X47900230Y-21472343D01*
G37*
%TD.AperFunction*%
%TA.AperFunction,NonConductor*%
G36*
X71280194Y-54715992D02*
G01*
X71337903Y-54755380D01*
X71365156Y-54819716D01*
X71353300Y-54888572D01*
X71351738Y-54891646D01*
X71339582Y-54914773D01*
X71339573Y-54914791D01*
X71171183Y-55294625D01*
X71161181Y-55318863D01*
X70944236Y-55885838D01*
X70941038Y-55894428D01*
X70732201Y-56470957D01*
X70726673Y-56487064D01*
X70726660Y-56487102D01*
X70726660Y-56487104D01*
X70646786Y-56733296D01*
X70645604Y-56736938D01*
X70606191Y-56794631D01*
X70541844Y-56821857D01*
X70472993Y-56809972D01*
X70421496Y-56762750D01*
X70410950Y-56740573D01*
X70338923Y-56539965D01*
X70337555Y-56535939D01*
X70185712Y-56062585D01*
X70183156Y-56053423D01*
X70174850Y-56018530D01*
X70108779Y-55740963D01*
X70105852Y-55722700D01*
X70091254Y-55549885D01*
X70092172Y-55521150D01*
X70106058Y-55428131D01*
X70113843Y-55399707D01*
X70114785Y-55397392D01*
X70159994Y-55286292D01*
X70167509Y-55270950D01*
X70276905Y-55081897D01*
X70280747Y-55075689D01*
X70301673Y-55044018D01*
X70313086Y-55029288D01*
X70325443Y-55015605D01*
X70348453Y-54995699D01*
X70375702Y-54977448D01*
X70395937Y-54966469D01*
X70530016Y-54909127D01*
X70541535Y-54904864D01*
X70822290Y-54816550D01*
X70827861Y-54814939D01*
X71210352Y-54714055D01*
X71280194Y-54715992D01*
G37*
%TD.AperFunction*%
%TA.AperFunction,NonConductor*%
G36*
X36868872Y-43083674D02*
G01*
X36884091Y-43096103D01*
X49369734Y-55061487D01*
X49720223Y-55397372D01*
X49720247Y-55397395D01*
X49849394Y-55521144D01*
X50178062Y-55836076D01*
X50178075Y-55836089D01*
X50178076Y-55836089D01*
X50178166Y-55836176D01*
X51670731Y-57265546D01*
X51670892Y-57265700D01*
X53115464Y-58647886D01*
X53115631Y-58648045D01*
X54499737Y-59971169D01*
X54502353Y-59973669D01*
X54502645Y-59973949D01*
X54502787Y-59974085D01*
X54669900Y-60133681D01*
X55673817Y-61092444D01*
X55822320Y-61234267D01*
X55822530Y-61234468D01*
X55822539Y-61234476D01*
X56895851Y-62258445D01*
X57065096Y-62419909D01*
X57065335Y-62420137D01*
X57065334Y-62420137D01*
X57558734Y-62890304D01*
X58221088Y-63521471D01*
X58221175Y-63521621D01*
X58221209Y-63521586D01*
X58221455Y-63521821D01*
X59217672Y-64469847D01*
X59281156Y-64530260D01*
X59281372Y-64530465D01*
X59281500Y-64530586D01*
X60234920Y-65436402D01*
X60235302Y-65436765D01*
X61073212Y-66231179D01*
X61073231Y-66231197D01*
X61073238Y-66231204D01*
X61073668Y-66231612D01*
X61073669Y-66231612D01*
X61073732Y-66231672D01*
X61786301Y-66905335D01*
X61786348Y-66905379D01*
X61786347Y-66905379D01*
X61787029Y-66906023D01*
X61787030Y-66906023D01*
X61787079Y-66906069D01*
X62364640Y-67449786D01*
X62365689Y-67450770D01*
X62365897Y-67450965D01*
X62598640Y-67668487D01*
X62634178Y-67728644D01*
X62631550Y-67798465D01*
X62591593Y-67855781D01*
X62526991Y-67882396D01*
X62488531Y-67880443D01*
X62460418Y-67874550D01*
X62460417Y-67874549D01*
X62460413Y-67874549D01*
X62460410Y-67874549D01*
X62460409Y-67874549D01*
X62316661Y-67880719D01*
X61991814Y-67941745D01*
X61925204Y-67963271D01*
X61870086Y-67981083D01*
X61593661Y-68111029D01*
X61429891Y-68188018D01*
X61429890Y-68188019D01*
X61381659Y-68213973D01*
X61381605Y-68214005D01*
X60793189Y-68573114D01*
X60785116Y-68578147D01*
X60389159Y-68830126D01*
X60383112Y-68833737D01*
X58243370Y-70030436D01*
X58232676Y-70035757D01*
X57498925Y-70357741D01*
X56853388Y-70641014D01*
X56784089Y-70649927D01*
X56720973Y-70619959D01*
X56684077Y-70560625D01*
X56685117Y-70490763D01*
X56723762Y-70432554D01*
X56727357Y-70429645D01*
X56819744Y-70357738D01*
X56988164Y-70174785D01*
X57124173Y-69966607D01*
X57224063Y-69738881D01*
X57285108Y-69497821D01*
X57285109Y-69497812D01*
X57305643Y-69250005D01*
X57305643Y-69249994D01*
X57285109Y-69002187D01*
X57285107Y-69002175D01*
X57224063Y-68761118D01*
X57124173Y-68533393D01*
X56988166Y-68325217D01*
X56966557Y-68301744D01*
X56819744Y-68142262D01*
X56623509Y-67989526D01*
X56623507Y-67989525D01*
X56623506Y-67989524D01*
X56404811Y-67871172D01*
X56404802Y-67871169D01*
X56169616Y-67790429D01*
X55924335Y-67749500D01*
X55765783Y-67749500D01*
X55698744Y-67729815D01*
X55678102Y-67713181D01*
X44736946Y-56772026D01*
X44703461Y-56710703D01*
X44701050Y-56694584D01*
X44700631Y-56689524D01*
X44685108Y-56502179D01*
X44624063Y-56261119D01*
X44614308Y-56238881D01*
X44524173Y-56033393D01*
X44388166Y-55825217D01*
X44318928Y-55750005D01*
X44219744Y-55642262D01*
X44023509Y-55489526D01*
X44023507Y-55489525D01*
X44023506Y-55489524D01*
X43804811Y-55371172D01*
X43804802Y-55371169D01*
X43569616Y-55290429D01*
X43324335Y-55249500D01*
X43075665Y-55249500D01*
X42830383Y-55290429D01*
X42595197Y-55371169D01*
X42595188Y-55371172D01*
X42376493Y-55489524D01*
X42180257Y-55642261D01*
X42011833Y-55825217D01*
X41875826Y-56033393D01*
X41775936Y-56261118D01*
X41714892Y-56502175D01*
X41714890Y-56502187D01*
X41694357Y-56749994D01*
X41694357Y-56750005D01*
X41714890Y-56997812D01*
X41714892Y-56997824D01*
X41775936Y-57238881D01*
X41875826Y-57466606D01*
X42011833Y-57674782D01*
X42011836Y-57674785D01*
X42180256Y-57857738D01*
X42376491Y-58010474D01*
X42595190Y-58128828D01*
X42830386Y-58209571D01*
X43075665Y-58250500D01*
X43329464Y-58250500D01*
X43329464Y-58251764D01*
X43392044Y-58264638D01*
X43421535Y-58286455D01*
X54260657Y-69125578D01*
X54294142Y-69186901D01*
X54296553Y-69223497D01*
X54294358Y-69249994D01*
X54294357Y-69250004D01*
X54294357Y-69250005D01*
X54314890Y-69497812D01*
X54314892Y-69497824D01*
X54375936Y-69738881D01*
X54475826Y-69966606D01*
X54611833Y-70174782D01*
X54611836Y-70174785D01*
X54780256Y-70357738D01*
X54976491Y-70510474D01*
X54976493Y-70510475D01*
X55189184Y-70625578D01*
X55195190Y-70628828D01*
X55430386Y-70709571D01*
X55675665Y-70750500D01*
X55924334Y-70750500D01*
X55924335Y-70750500D01*
X56040245Y-70731158D01*
X56109607Y-70739540D01*
X56163429Y-70784092D01*
X56184620Y-70850671D01*
X56166453Y-70918137D01*
X56114694Y-70965071D01*
X56110480Y-70967015D01*
X56009159Y-71011477D01*
X55998003Y-71015744D01*
X53678043Y-71777256D01*
X53666759Y-71780379D01*
X51237376Y-72330548D01*
X51230530Y-72331897D01*
X51011498Y-72368690D01*
X51006313Y-72369448D01*
X49912987Y-72505903D01*
X49906896Y-72506511D01*
X48667890Y-72599352D01*
X48663084Y-72599619D01*
X47348968Y-72646917D01*
X47344482Y-72646997D01*
X46033442Y-72646722D01*
X46028510Y-72646623D01*
X44798766Y-72597416D01*
X44792351Y-72596992D01*
X43724418Y-72498626D01*
X43714937Y-72497383D01*
X41442444Y-72109681D01*
X41431541Y-72107311D01*
X39068045Y-71481124D01*
X39056736Y-71477541D01*
X36792356Y-70638894D01*
X36781297Y-70634177D01*
X34775595Y-69661119D01*
X34619122Y-69585207D01*
X34608556Y-69579431D01*
X34475092Y-69497812D01*
X32860595Y-68510474D01*
X32552783Y-68322233D01*
X32542918Y-68315527D01*
X30669873Y-66906069D01*
X30597918Y-66851923D01*
X30588927Y-66844469D01*
X30497521Y-66761118D01*
X28752811Y-65170149D01*
X28747187Y-65164686D01*
X28539750Y-64949994D01*
X31894357Y-64949994D01*
X31894357Y-64950005D01*
X31914890Y-65197812D01*
X31914892Y-65197824D01*
X31975936Y-65438881D01*
X32075826Y-65666606D01*
X32211833Y-65874782D01*
X32211836Y-65874785D01*
X32380256Y-66057738D01*
X32576491Y-66210474D01*
X32795190Y-66328828D01*
X33030386Y-66409571D01*
X33275665Y-66450500D01*
X33524335Y-66450500D01*
X33769614Y-66409571D01*
X34004810Y-66328828D01*
X34223509Y-66210474D01*
X34419744Y-66057738D01*
X34444194Y-66031177D01*
X34481626Y-65990517D01*
X34541513Y-65954526D01*
X34572855Y-65950500D01*
X40134218Y-65950500D01*
X40201257Y-65970185D01*
X40221899Y-65986819D01*
X44860657Y-70625578D01*
X44894142Y-70686901D01*
X44896553Y-70723497D01*
X44894358Y-70749994D01*
X44894357Y-70750004D01*
X44894357Y-70750005D01*
X44914890Y-70997812D01*
X44914892Y-70997824D01*
X44975936Y-71238881D01*
X45075826Y-71466606D01*
X45211833Y-71674782D01*
X45211836Y-71674785D01*
X45380256Y-71857738D01*
X45576491Y-72010474D01*
X45576493Y-72010475D01*
X45760391Y-72109996D01*
X45795190Y-72128828D01*
X46030386Y-72209571D01*
X46275665Y-72250500D01*
X46524335Y-72250500D01*
X46769614Y-72209571D01*
X47004810Y-72128828D01*
X47223509Y-72010474D01*
X47419744Y-71857738D01*
X47588164Y-71674785D01*
X47724173Y-71466607D01*
X47824063Y-71238881D01*
X47885108Y-70997821D01*
X47895981Y-70866606D01*
X47905643Y-70750005D01*
X47905643Y-70749994D01*
X47885109Y-70502187D01*
X47885107Y-70502175D01*
X47824063Y-70261118D01*
X47724173Y-70033393D01*
X47588166Y-69825217D01*
X47508688Y-69738881D01*
X47419744Y-69642262D01*
X47223509Y-69489526D01*
X47223507Y-69489525D01*
X47223506Y-69489524D01*
X47004811Y-69371172D01*
X47004802Y-69371169D01*
X46769616Y-69290429D01*
X46524335Y-69249500D01*
X46365783Y-69249500D01*
X46298744Y-69229815D01*
X46278102Y-69213181D01*
X41384209Y-64319289D01*
X41384206Y-64319285D01*
X41384206Y-64319286D01*
X41377139Y-64312219D01*
X41377139Y-64312218D01*
X41237782Y-64172861D01*
X41237781Y-64172860D01*
X41237780Y-64172859D01*
X41073920Y-64063371D01*
X41073911Y-64063366D01*
X41041628Y-64049994D01*
X43994357Y-64049994D01*
X43994357Y-64050005D01*
X44014890Y-64297812D01*
X44014892Y-64297824D01*
X44075936Y-64538881D01*
X44175826Y-64766606D01*
X44311833Y-64974782D01*
X44311836Y-64974785D01*
X44480256Y-65157738D01*
X44676491Y-65310474D01*
X44895190Y-65428828D01*
X45130386Y-65509571D01*
X45375665Y-65550500D01*
X45629464Y-65550500D01*
X45629464Y-65551764D01*
X45692044Y-65564638D01*
X45721535Y-65586455D01*
X50160657Y-70025578D01*
X50194142Y-70086901D01*
X50196553Y-70123497D01*
X50194358Y-70149994D01*
X50194357Y-70150004D01*
X50194357Y-70150005D01*
X50214890Y-70397812D01*
X50214892Y-70397824D01*
X50275936Y-70638881D01*
X50375826Y-70866606D01*
X50511833Y-71074782D01*
X50511836Y-71074785D01*
X50680256Y-71257738D01*
X50876491Y-71410474D01*
X51095190Y-71528828D01*
X51330386Y-71609571D01*
X51575665Y-71650500D01*
X51824335Y-71650500D01*
X52069614Y-71609571D01*
X52304810Y-71528828D01*
X52523509Y-71410474D01*
X52719744Y-71257738D01*
X52888164Y-71074785D01*
X53024173Y-70866607D01*
X53124063Y-70638881D01*
X53185108Y-70397821D01*
X53188429Y-70357740D01*
X53205643Y-70150005D01*
X53205643Y-70149994D01*
X53185109Y-69902187D01*
X53185107Y-69902175D01*
X53124063Y-69661118D01*
X53024173Y-69433393D01*
X52888166Y-69225217D01*
X52833855Y-69166220D01*
X52719744Y-69042262D01*
X52523509Y-68889526D01*
X52523507Y-68889525D01*
X52523506Y-68889524D01*
X52304811Y-68771172D01*
X52304802Y-68771169D01*
X52069616Y-68690429D01*
X51824335Y-68649500D01*
X51665783Y-68649500D01*
X51598744Y-68629815D01*
X51578102Y-68613181D01*
X47036946Y-64072026D01*
X47003461Y-64010703D01*
X47001050Y-63994584D01*
X46985108Y-63802179D01*
X46926608Y-63571169D01*
X46924063Y-63561118D01*
X46824173Y-63333393D01*
X46688166Y-63125217D01*
X46629056Y-63061007D01*
X46519744Y-62942262D01*
X46323509Y-62789526D01*
X46323507Y-62789525D01*
X46323506Y-62789524D01*
X46104811Y-62671172D01*
X46104802Y-62671169D01*
X45869616Y-62590429D01*
X45624335Y-62549500D01*
X45375665Y-62549500D01*
X45130383Y-62590429D01*
X44895197Y-62671169D01*
X44895188Y-62671172D01*
X44676493Y-62789524D01*
X44480257Y-62942261D01*
X44311833Y-63125217D01*
X44175826Y-63333393D01*
X44075936Y-63561118D01*
X44014892Y-63802175D01*
X44014890Y-63802187D01*
X43994357Y-64049994D01*
X41041628Y-64049994D01*
X40981805Y-64025215D01*
X40945165Y-64010038D01*
X40907855Y-63994584D01*
X40891837Y-63987949D01*
X40891833Y-63987947D01*
X40708390Y-63951459D01*
X40708386Y-63951457D01*
X40708386Y-63951458D01*
X40698544Y-63949500D01*
X40698541Y-63949500D01*
X34572855Y-63949500D01*
X34505816Y-63929815D01*
X34481626Y-63909483D01*
X34419747Y-63842265D01*
X34419744Y-63842262D01*
X34368245Y-63802179D01*
X34223509Y-63689526D01*
X34223507Y-63689525D01*
X34223506Y-63689524D01*
X34004811Y-63571172D01*
X34004802Y-63571169D01*
X33769616Y-63490429D01*
X33524335Y-63449500D01*
X33275665Y-63449500D01*
X33030383Y-63490429D01*
X32795197Y-63571169D01*
X32795188Y-63571172D01*
X32576493Y-63689524D01*
X32380257Y-63842261D01*
X32211833Y-64025217D01*
X32075826Y-64233393D01*
X31975936Y-64461118D01*
X31914892Y-64702175D01*
X31914890Y-64702187D01*
X31894357Y-64949994D01*
X28539750Y-64949994D01*
X28075828Y-64469847D01*
X28070617Y-64464104D01*
X26502170Y-62623258D01*
X26495029Y-62614031D01*
X25608671Y-61349994D01*
X27594357Y-61349994D01*
X27594357Y-61350005D01*
X27614890Y-61597812D01*
X27614892Y-61597824D01*
X27675936Y-61838881D01*
X27775826Y-62066606D01*
X27911833Y-62274782D01*
X27911836Y-62274785D01*
X28080256Y-62457738D01*
X28276491Y-62610474D01*
X28276493Y-62610475D01*
X28430432Y-62693783D01*
X28495190Y-62728828D01*
X28730386Y-62809571D01*
X28975665Y-62850500D01*
X29224335Y-62850500D01*
X29469614Y-62809571D01*
X29704810Y-62728828D01*
X29923509Y-62610474D01*
X30119744Y-62457738D01*
X30154358Y-62420137D01*
X30181626Y-62390517D01*
X30241513Y-62354526D01*
X30272855Y-62350500D01*
X40827145Y-62350500D01*
X40894184Y-62370185D01*
X40918374Y-62390517D01*
X40967066Y-62443410D01*
X40980256Y-62457738D01*
X41176491Y-62610474D01*
X41176493Y-62610475D01*
X41330432Y-62693783D01*
X41395190Y-62728828D01*
X41630386Y-62809571D01*
X41875665Y-62850500D01*
X42124335Y-62850500D01*
X42369614Y-62809571D01*
X42604810Y-62728828D01*
X42823509Y-62610474D01*
X43019744Y-62457738D01*
X43188164Y-62274785D01*
X43324173Y-62066607D01*
X43424063Y-61838881D01*
X43485108Y-61597821D01*
X43486267Y-61583836D01*
X43505643Y-61350005D01*
X43505643Y-61349994D01*
X43485109Y-61102187D01*
X43485107Y-61102175D01*
X43424063Y-60861118D01*
X43324173Y-60633393D01*
X43188166Y-60425217D01*
X43081625Y-60309483D01*
X43019744Y-60242262D01*
X42823509Y-60089526D01*
X42823507Y-60089525D01*
X42823506Y-60089524D01*
X42604811Y-59971172D01*
X42604802Y-59971169D01*
X42369616Y-59890429D01*
X42124335Y-59849500D01*
X41875665Y-59849500D01*
X41630383Y-59890429D01*
X41395197Y-59971169D01*
X41395188Y-59971172D01*
X41176493Y-60089524D01*
X40980255Y-60242262D01*
X40980252Y-60242265D01*
X40918374Y-60309483D01*
X40858487Y-60345474D01*
X40827145Y-60349500D01*
X30272855Y-60349500D01*
X30205816Y-60329815D01*
X30181626Y-60309483D01*
X30119747Y-60242265D01*
X30119744Y-60242262D01*
X29980238Y-60133680D01*
X29923509Y-60089526D01*
X29923507Y-60089525D01*
X29923506Y-60089524D01*
X29704811Y-59971172D01*
X29704802Y-59971169D01*
X29469616Y-59890429D01*
X29224335Y-59849500D01*
X28975665Y-59849500D01*
X28730383Y-59890429D01*
X28495197Y-59971169D01*
X28495188Y-59971172D01*
X28276493Y-60089524D01*
X28080257Y-60242261D01*
X27911833Y-60425217D01*
X27775826Y-60633393D01*
X27675936Y-60861118D01*
X27614892Y-61102175D01*
X27614890Y-61102187D01*
X27594357Y-61349994D01*
X25608671Y-61349994D01*
X25144852Y-60688540D01*
X25138432Y-60678368D01*
X24421211Y-59409570D01*
X23980843Y-58630538D01*
X23979257Y-58627641D01*
X23958113Y-58587782D01*
X23785858Y-58263056D01*
X23761080Y-58221318D01*
X23758833Y-58217917D01*
X23474082Y-57786856D01*
X23387422Y-57687029D01*
X23132302Y-57461119D01*
X23121901Y-57451909D01*
X23121899Y-57451907D01*
X23121895Y-57451904D01*
X23024384Y-57384180D01*
X22956719Y-57359746D01*
X22889055Y-57335313D01*
X22618129Y-57279341D01*
X22608866Y-57278589D01*
X22494739Y-57269327D01*
X22494732Y-57269328D01*
X22353305Y-57295734D01*
X22349022Y-57296856D01*
X22348615Y-57295302D01*
X22285601Y-57297921D01*
X22225305Y-57262620D01*
X22193666Y-57200325D01*
X22200729Y-57130813D01*
X22226110Y-57091725D01*
X22245128Y-57071914D01*
X22516574Y-56745356D01*
X22532563Y-56725090D01*
X22851597Y-56298757D01*
X22905638Y-56226541D01*
X22905645Y-56226531D01*
X23028354Y-56062585D01*
X23262319Y-55749994D01*
X23994357Y-55749994D01*
X23994357Y-55750005D01*
X24014890Y-55997812D01*
X24014892Y-55997824D01*
X24075936Y-56238881D01*
X24175826Y-56466606D01*
X24311833Y-56674782D01*
X24311836Y-56674785D01*
X24480256Y-56857738D01*
X24676491Y-57010474D01*
X24895190Y-57128828D01*
X25130386Y-57209571D01*
X25375665Y-57250500D01*
X25534218Y-57250500D01*
X25601257Y-57270185D01*
X25621899Y-57286819D01*
X26919735Y-58584655D01*
X26919764Y-58584686D01*
X27062214Y-58727136D01*
X27062218Y-58727139D01*
X27226079Y-58836628D01*
X27226092Y-58836635D01*
X27354833Y-58889961D01*
X27397744Y-58907735D01*
X27408164Y-58912051D01*
X27504812Y-58931275D01*
X27553135Y-58940887D01*
X27601458Y-58950500D01*
X27601459Y-58950500D01*
X27601460Y-58950500D01*
X27798540Y-58950500D01*
X37727145Y-58950500D01*
X37794184Y-58970185D01*
X37818374Y-58990517D01*
X37880252Y-59057734D01*
X37880256Y-59057738D01*
X38076491Y-59210474D01*
X38185840Y-59269651D01*
X38241458Y-59299750D01*
X38295190Y-59328828D01*
X38530386Y-59409571D01*
X38775665Y-59450500D01*
X39024335Y-59450500D01*
X39269614Y-59409571D01*
X39504810Y-59328828D01*
X39723509Y-59210474D01*
X39919744Y-59057738D01*
X40088164Y-58874785D01*
X40224173Y-58666607D01*
X40324063Y-58438881D01*
X40385108Y-58197821D01*
X40387909Y-58164021D01*
X40405643Y-57950005D01*
X40405643Y-57949994D01*
X40385109Y-57702187D01*
X40385107Y-57702175D01*
X40324063Y-57461118D01*
X40224173Y-57233393D01*
X40088166Y-57025217D01*
X39981625Y-56909483D01*
X39919744Y-56842262D01*
X39723509Y-56689526D01*
X39723507Y-56689525D01*
X39723506Y-56689524D01*
X39504811Y-56571172D01*
X39504802Y-56571169D01*
X39269616Y-56490429D01*
X39024335Y-56449500D01*
X38775665Y-56449500D01*
X38530383Y-56490429D01*
X38295197Y-56571169D01*
X38295188Y-56571172D01*
X38076493Y-56689524D01*
X37880255Y-56842262D01*
X37880252Y-56842265D01*
X37818374Y-56909483D01*
X37758487Y-56945474D01*
X37727145Y-56949500D01*
X28165782Y-56949500D01*
X28098743Y-56929815D01*
X28078101Y-56913181D01*
X27039342Y-55874422D01*
X27005857Y-55813099D01*
X27003447Y-55776499D01*
X27005643Y-55750003D01*
X27005643Y-55749995D01*
X26985109Y-55502187D01*
X26985107Y-55502175D01*
X26924063Y-55261118D01*
X26824173Y-55033393D01*
X26688166Y-54825217D01*
X26587617Y-54715992D01*
X26519744Y-54642262D01*
X26323509Y-54489526D01*
X26323507Y-54489525D01*
X26323506Y-54489524D01*
X26104811Y-54371172D01*
X26104802Y-54371169D01*
X25869616Y-54290429D01*
X25624335Y-54249500D01*
X25375665Y-54249500D01*
X25130383Y-54290429D01*
X24895197Y-54371169D01*
X24895188Y-54371172D01*
X24676493Y-54489524D01*
X24480257Y-54642261D01*
X24311833Y-54825217D01*
X24175826Y-55033393D01*
X24075936Y-55261118D01*
X24014892Y-55502175D01*
X24014890Y-55502187D01*
X23994357Y-55749994D01*
X23262319Y-55749994D01*
X23528441Y-55394439D01*
X23529781Y-55392684D01*
X24436043Y-54228808D01*
X24437191Y-54227357D01*
X25224292Y-53249994D01*
X26294357Y-53249994D01*
X26294357Y-53250005D01*
X26314890Y-53497812D01*
X26314892Y-53497824D01*
X26375936Y-53738881D01*
X26475826Y-53966606D01*
X26611833Y-54174782D01*
X26644245Y-54209991D01*
X26780256Y-54357738D01*
X26976491Y-54510474D01*
X27195190Y-54628828D01*
X27430386Y-54709571D01*
X27675665Y-54750500D01*
X27924335Y-54750500D01*
X28169614Y-54709571D01*
X28404810Y-54628828D01*
X28623509Y-54510474D01*
X28819744Y-54357738D01*
X28988164Y-54174785D01*
X29124173Y-53966607D01*
X29224063Y-53738881D01*
X29285108Y-53497821D01*
X29292015Y-53414446D01*
X29317168Y-53349264D01*
X29327903Y-53337015D01*
X31062322Y-51602597D01*
X31123641Y-51569115D01*
X31193333Y-51574099D01*
X31237679Y-51602599D01*
X32664894Y-53029815D01*
X34060657Y-54425578D01*
X34094142Y-54486901D01*
X34096553Y-54523497D01*
X34094358Y-54549994D01*
X34094357Y-54550004D01*
X34094357Y-54550005D01*
X34114890Y-54797812D01*
X34114892Y-54797824D01*
X34175936Y-55038881D01*
X34275826Y-55266606D01*
X34411833Y-55474782D01*
X34411836Y-55474785D01*
X34580256Y-55657738D01*
X34776491Y-55810474D01*
X34776493Y-55810475D01*
X34988236Y-55925065D01*
X34995190Y-55928828D01*
X35230386Y-56009571D01*
X35475665Y-56050500D01*
X35724335Y-56050500D01*
X35969614Y-56009571D01*
X36204810Y-55928828D01*
X36423509Y-55810474D01*
X36619744Y-55657738D01*
X36788164Y-55474785D01*
X36924173Y-55266607D01*
X37024063Y-55038881D01*
X37085108Y-54797821D01*
X37091010Y-54726594D01*
X37105643Y-54550005D01*
X37105643Y-54549994D01*
X37085109Y-54302187D01*
X37085107Y-54302175D01*
X37024063Y-54061118D01*
X36924173Y-53833393D01*
X36788166Y-53625217D01*
X36766557Y-53601744D01*
X36619744Y-53442262D01*
X36423509Y-53289526D01*
X36423507Y-53289525D01*
X36423506Y-53289524D01*
X36204811Y-53171172D01*
X36204802Y-53171169D01*
X35969616Y-53090429D01*
X35724335Y-53049500D01*
X35565783Y-53049500D01*
X35498744Y-53029815D01*
X35478102Y-53013181D01*
X31932527Y-49467607D01*
X31932505Y-49467582D01*
X31787786Y-49322863D01*
X31787782Y-49322860D01*
X31623914Y-49213369D01*
X31623909Y-49213367D01*
X31441836Y-49137949D01*
X31441828Y-49137947D01*
X31248543Y-49099500D01*
X31248540Y-49099500D01*
X31051460Y-49099500D01*
X31051457Y-49099500D01*
X30858171Y-49137947D01*
X30858163Y-49137949D01*
X30676087Y-49213367D01*
X30512214Y-49322863D01*
X30512213Y-49322864D01*
X28107654Y-51727424D01*
X28046331Y-51760909D01*
X27999566Y-51762052D01*
X27924336Y-51749500D01*
X27924335Y-51749500D01*
X27675665Y-51749500D01*
X27430383Y-51790429D01*
X27195197Y-51871169D01*
X27195188Y-51871172D01*
X26976493Y-51989524D01*
X26780257Y-52142261D01*
X26611833Y-52325217D01*
X26475826Y-52533393D01*
X26375936Y-52761118D01*
X26314892Y-53002175D01*
X26314890Y-53002187D01*
X26294357Y-53249994D01*
X25224292Y-53249994D01*
X25461866Y-52954993D01*
X25462789Y-52953863D01*
X26576861Y-51609041D01*
X26577738Y-51607995D01*
X27752579Y-50226225D01*
X27753179Y-50225526D01*
X28120204Y-49802332D01*
X28120479Y-49802017D01*
X28729462Y-49109135D01*
X29404164Y-48350236D01*
X30119973Y-47552311D01*
X30122068Y-47549994D01*
X31394357Y-47549994D01*
X31394357Y-47550005D01*
X31414890Y-47797812D01*
X31414892Y-47797824D01*
X31475936Y-48038881D01*
X31575826Y-48266606D01*
X31711833Y-48474782D01*
X31711836Y-48474785D01*
X31880256Y-48657738D01*
X32076491Y-48810474D01*
X32295190Y-48928828D01*
X32530386Y-49009571D01*
X32775665Y-49050500D01*
X32934218Y-49050500D01*
X33001257Y-49070185D01*
X33021898Y-49086818D01*
X38122860Y-54187781D01*
X38122861Y-54187782D01*
X38214172Y-54279093D01*
X38262219Y-54327140D01*
X38413372Y-54428137D01*
X38426086Y-54436632D01*
X38532745Y-54480811D01*
X38608164Y-54512051D01*
X38801454Y-54550499D01*
X38801457Y-54550500D01*
X38801459Y-54550500D01*
X45134218Y-54550500D01*
X45201257Y-54570185D01*
X45221899Y-54586819D01*
X57760657Y-67125577D01*
X57794142Y-67186900D01*
X57796553Y-67223495D01*
X57794358Y-67249994D01*
X57794357Y-67250002D01*
X57794357Y-67250005D01*
X57814890Y-67497812D01*
X57814892Y-67497824D01*
X57875936Y-67738881D01*
X57975826Y-67966606D01*
X58111833Y-68174782D01*
X58111836Y-68174785D01*
X58280256Y-68357738D01*
X58476491Y-68510474D01*
X58695190Y-68628828D01*
X58930386Y-68709571D01*
X59175665Y-68750500D01*
X59424335Y-68750500D01*
X59669614Y-68709571D01*
X59904810Y-68628828D01*
X60123509Y-68510474D01*
X60319744Y-68357738D01*
X60488164Y-68174785D01*
X60624173Y-67966607D01*
X60724063Y-67738881D01*
X60785108Y-67497821D01*
X60788991Y-67450965D01*
X60805643Y-67250005D01*
X60805643Y-67249994D01*
X60785109Y-67002187D01*
X60785107Y-67002175D01*
X60724063Y-66761118D01*
X60624173Y-66533393D01*
X60488166Y-66325217D01*
X60466557Y-66301744D01*
X60319744Y-66142262D01*
X60123509Y-65989526D01*
X60123507Y-65989525D01*
X60123506Y-65989524D01*
X59904811Y-65871172D01*
X59904802Y-65871169D01*
X59669616Y-65790429D01*
X59424335Y-65749500D01*
X59265782Y-65749500D01*
X59198743Y-65729815D01*
X59178101Y-65713181D01*
X46381479Y-52916559D01*
X46381459Y-52916537D01*
X46237785Y-52772863D01*
X46237781Y-52772860D01*
X46073920Y-52663371D01*
X46073911Y-52663366D01*
X45994190Y-52630345D01*
X45945165Y-52610038D01*
X45891836Y-52587949D01*
X45891832Y-52587948D01*
X45891828Y-52587946D01*
X45795188Y-52568724D01*
X45698544Y-52549500D01*
X45698541Y-52549500D01*
X39365783Y-52549500D01*
X39298744Y-52529815D01*
X39278102Y-52513181D01*
X34439342Y-47674422D01*
X34405857Y-47613099D01*
X34403447Y-47576499D01*
X34405643Y-47550003D01*
X34405643Y-47549995D01*
X34385109Y-47302187D01*
X34385107Y-47302175D01*
X34324063Y-47061118D01*
X34224173Y-46833393D01*
X34088166Y-46625217D01*
X34052105Y-46586045D01*
X33919744Y-46442262D01*
X33723509Y-46289526D01*
X33723507Y-46289525D01*
X33723506Y-46289524D01*
X33504811Y-46171172D01*
X33504802Y-46171169D01*
X33269616Y-46090429D01*
X33024335Y-46049500D01*
X32775665Y-46049500D01*
X32530383Y-46090429D01*
X32295197Y-46171169D01*
X32295188Y-46171172D01*
X32076493Y-46289524D01*
X31880257Y-46442261D01*
X31711833Y-46625217D01*
X31575826Y-46833393D01*
X31475936Y-47061118D01*
X31414892Y-47302175D01*
X31414890Y-47302187D01*
X31394357Y-47549994D01*
X30122068Y-47549994D01*
X30850965Y-46743808D01*
X31572790Y-45951420D01*
X32259930Y-45203126D01*
X32887167Y-44526564D01*
X32887406Y-44526308D01*
X33429124Y-43949522D01*
X33429682Y-43948935D01*
X33858622Y-43501622D01*
X33860391Y-43499816D01*
X34149201Y-43211353D01*
X34152365Y-43208306D01*
X34184031Y-43178864D01*
X34246531Y-43147631D01*
X34315995Y-43155147D01*
X34334019Y-43164421D01*
X34396007Y-43203033D01*
X34409978Y-43211736D01*
X34414693Y-43214604D01*
X34418907Y-43217169D01*
X34551788Y-43272344D01*
X34982250Y-43382607D01*
X35096763Y-43398299D01*
X35126511Y-43398941D01*
X35193108Y-43420068D01*
X35237712Y-43473847D01*
X35246160Y-43543204D01*
X35215770Y-43606119D01*
X35182850Y-43631966D01*
X35076500Y-43689519D01*
X35076494Y-43689523D01*
X34880257Y-43842261D01*
X34711833Y-44025217D01*
X34575826Y-44233393D01*
X34475936Y-44461118D01*
X34414892Y-44702175D01*
X34414890Y-44702187D01*
X34394357Y-44949994D01*
X34394357Y-44950005D01*
X34414890Y-45197812D01*
X34414892Y-45197824D01*
X34475936Y-45438881D01*
X34575826Y-45666606D01*
X34711833Y-45874782D01*
X34711836Y-45874785D01*
X34880256Y-46057738D01*
X35076491Y-46210474D01*
X35295190Y-46328828D01*
X35530386Y-46409571D01*
X35775665Y-46450500D01*
X35934218Y-46450500D01*
X36001257Y-46470185D01*
X36021899Y-46486819D01*
X40160657Y-50625578D01*
X40194142Y-50686901D01*
X40196553Y-50723497D01*
X40194358Y-50749994D01*
X40194357Y-50750004D01*
X40194357Y-50750005D01*
X40214890Y-50997812D01*
X40214892Y-50997824D01*
X40275936Y-51238881D01*
X40375826Y-51466606D01*
X40511833Y-51674782D01*
X40511836Y-51674785D01*
X40680256Y-51857738D01*
X40876491Y-52010474D01*
X41095190Y-52128828D01*
X41330386Y-52209571D01*
X41575665Y-52250500D01*
X41824335Y-52250500D01*
X42069614Y-52209571D01*
X42304810Y-52128828D01*
X42523509Y-52010474D01*
X42719744Y-51857738D01*
X42888164Y-51674785D01*
X43024173Y-51466607D01*
X43124063Y-51238881D01*
X43185108Y-50997821D01*
X43205643Y-50750000D01*
X43200414Y-50686901D01*
X43185109Y-50502187D01*
X43185107Y-50502175D01*
X43124063Y-50261118D01*
X43024173Y-50033393D01*
X42888166Y-49825217D01*
X42816961Y-49747868D01*
X42719744Y-49642262D01*
X42523509Y-49489526D01*
X42523507Y-49489525D01*
X42523506Y-49489524D01*
X42304811Y-49371172D01*
X42304802Y-49371169D01*
X42069616Y-49290429D01*
X41824335Y-49249500D01*
X41665783Y-49249500D01*
X41598744Y-49229815D01*
X41578102Y-49213181D01*
X39512037Y-47147116D01*
X37439341Y-45074421D01*
X37405857Y-45013099D01*
X37403447Y-44976499D01*
X37405643Y-44950003D01*
X37405643Y-44949995D01*
X37385109Y-44702187D01*
X37385107Y-44702175D01*
X37324063Y-44461118D01*
X37224173Y-44233393D01*
X37088166Y-44025217D01*
X37033095Y-43965394D01*
X36919744Y-43842262D01*
X36723509Y-43689526D01*
X36723507Y-43689525D01*
X36723506Y-43689524D01*
X36504811Y-43571172D01*
X36504802Y-43571169D01*
X36323259Y-43508844D01*
X36266243Y-43468458D01*
X36240113Y-43403658D01*
X36253165Y-43335019D01*
X36301254Y-43284331D01*
X36318530Y-43276014D01*
X36321539Y-43274842D01*
X36463937Y-43208306D01*
X36714290Y-43091328D01*
X36734874Y-43079076D01*
X36802546Y-43061703D01*
X36868872Y-43083674D01*
G37*
%TD.AperFunction*%
%TA.AperFunction,NonConductor*%
G36*
X47544328Y-17672724D02*
G01*
X48623077Y-17712613D01*
X48627620Y-17712866D01*
X49704145Y-17792588D01*
X49708700Y-17793009D01*
X50781598Y-17912462D01*
X50786139Y-17913053D01*
X51853812Y-18072058D01*
X51858306Y-18072811D01*
X52919466Y-18271176D01*
X52923941Y-18272099D01*
X53976963Y-18509522D01*
X53981402Y-18510609D01*
X55024970Y-18786790D01*
X55029362Y-18788039D01*
X56062026Y-19102597D01*
X56066331Y-19103996D01*
X56523444Y-19261918D01*
X57086665Y-19456498D01*
X57090968Y-19458074D01*
X58097596Y-19848044D01*
X58101793Y-19849760D01*
X59093282Y-20276641D01*
X59097424Y-20278515D01*
X59776016Y-20600906D01*
X60072500Y-20741762D01*
X60076602Y-20743805D01*
X61033847Y-21242740D01*
X61037871Y-21244933D01*
X61976019Y-21778894D01*
X61979960Y-21781234D01*
X62897759Y-22349511D01*
X62901610Y-22351995D01*
X63259275Y-22592176D01*
X63797806Y-22953813D01*
X63801528Y-22956414D01*
X64600173Y-23536664D01*
X64674839Y-23590912D01*
X64678496Y-23593674D01*
X65527784Y-24260023D01*
X65531316Y-24262901D01*
X65872192Y-24551324D01*
X66355397Y-24960175D01*
X66358840Y-24963199D01*
X67156580Y-25690434D01*
X67159909Y-25693583D01*
X67930241Y-26449809D01*
X67933452Y-26453080D01*
X68675303Y-27237242D01*
X68678390Y-27240628D01*
X68788267Y-27365724D01*
X69290641Y-27937684D01*
X69390774Y-28051686D01*
X69393722Y-28055171D01*
X70075637Y-28891982D01*
X70078456Y-28895574D01*
X70174187Y-29022343D01*
X70729002Y-29757038D01*
X70731696Y-29760746D01*
X71349943Y-30645626D01*
X71352498Y-30649430D01*
X71431532Y-30771956D01*
X71883625Y-31472834D01*
X71937651Y-31556589D01*
X71940054Y-31560472D01*
X72138521Y-31894650D01*
X72491266Y-32488602D01*
X72493533Y-32492585D01*
X73010072Y-33440448D01*
X73012190Y-33444511D01*
X73493355Y-34410821D01*
X73495322Y-34414961D01*
X73940454Y-35398396D01*
X73942266Y-35402605D01*
X74350745Y-36401790D01*
X74352401Y-36406063D01*
X74723697Y-37419708D01*
X74725190Y-37424033D01*
X75028394Y-38357197D01*
X75058768Y-38450679D01*
X75060102Y-38455059D01*
X75097900Y-38587907D01*
X75355508Y-39493305D01*
X75356681Y-39497735D01*
X75613531Y-40546227D01*
X75614539Y-40550698D01*
X75832466Y-41607946D01*
X75833308Y-41612450D01*
X76012019Y-42677033D01*
X76012694Y-42681566D01*
X76151946Y-43752025D01*
X76152453Y-43756580D01*
X76252055Y-44831459D01*
X76252393Y-44836029D01*
X76312208Y-45913819D01*
X76312378Y-45918399D01*
X76332325Y-46997709D01*
X76332325Y-47002291D01*
X76312378Y-48081600D01*
X76312208Y-48086180D01*
X76252393Y-49163970D01*
X76252055Y-49168540D01*
X76208486Y-49638723D01*
X76182700Y-49703661D01*
X76125899Y-49744348D01*
X76056118Y-49747868D01*
X76005665Y-49722569D01*
X75982959Y-49703661D01*
X75916208Y-49648074D01*
X75893714Y-49630396D01*
X75545107Y-49372040D01*
X75535858Y-49365345D01*
X75057685Y-49027426D01*
X75051802Y-49023331D01*
X74913968Y-48928827D01*
X74474039Y-48627196D01*
X74469234Y-48623942D01*
X74113280Y-48385860D01*
X74068500Y-48332227D01*
X74059825Y-48262898D01*
X74090009Y-48199884D01*
X74130937Y-48169892D01*
X74143737Y-48164078D01*
X74492819Y-47940729D01*
X74578098Y-47872095D01*
X74581362Y-47868826D01*
X74608061Y-47839918D01*
X74723925Y-47704234D01*
X74726966Y-47700639D01*
X74802740Y-47578329D01*
X74872374Y-47418924D01*
X74910521Y-47281000D01*
X74941006Y-47043781D01*
X74945124Y-46977178D01*
X74943539Y-46608053D01*
X74942966Y-46586054D01*
X74916393Y-46030931D01*
X74916151Y-46026314D01*
X74911178Y-45939131D01*
X74910192Y-45925222D01*
X74857130Y-45299232D01*
X74849546Y-45244950D01*
X74766448Y-44819847D01*
X74722440Y-44690697D01*
X74592543Y-44430992D01*
X74592541Y-44430988D01*
X74528936Y-44333697D01*
X74528934Y-44333695D01*
X74422081Y-44237348D01*
X74422075Y-44237343D01*
X74292251Y-44150240D01*
X74228622Y-44107550D01*
X74193385Y-44088183D01*
X74150387Y-44064552D01*
X74150388Y-44064552D01*
X74011765Y-44025990D01*
X73760401Y-43993508D01*
X73696437Y-43965394D01*
X73657827Y-43907162D01*
X73656829Y-43837299D01*
X73681979Y-43790027D01*
X73955744Y-43469316D01*
X73963125Y-43460465D01*
X74416285Y-42904406D01*
X74430223Y-42886498D01*
X74738693Y-42471233D01*
X74765446Y-42431398D01*
X74765446Y-42431397D01*
X74765454Y-42431386D01*
X74765458Y-42431378D01*
X74885079Y-42233588D01*
X74941516Y-42140272D01*
X74992519Y-42026019D01*
X75048478Y-41842377D01*
X75054337Y-41821563D01*
X75070160Y-41678556D01*
X75069597Y-41661291D01*
X75055653Y-41558738D01*
X74989782Y-41286856D01*
X74970109Y-41223920D01*
X74815385Y-40822907D01*
X74804042Y-40795870D01*
X74590030Y-40324563D01*
X74581009Y-40305740D01*
X74337273Y-39822974D01*
X74332793Y-39814556D01*
X74327043Y-39803751D01*
X74154379Y-39495525D01*
X74083144Y-39368361D01*
X74065648Y-39339440D01*
X73851156Y-39010269D01*
X73851151Y-39010262D01*
X73851148Y-39010258D01*
X73794560Y-38938540D01*
X73794555Y-38938535D01*
X73794553Y-38938532D01*
X73639028Y-38774415D01*
X73639010Y-38774396D01*
X73627860Y-38762997D01*
X73569621Y-38719828D01*
X73512274Y-38677319D01*
X73512272Y-38677318D01*
X73377229Y-38627674D01*
X73243577Y-38599260D01*
X73189230Y-38592093D01*
X73165117Y-38588913D01*
X73165114Y-38588912D01*
X73165108Y-38588912D01*
X72793270Y-38569272D01*
X72766733Y-38568568D01*
X72634380Y-38568538D01*
X72567345Y-38548838D01*
X72521603Y-38496023D01*
X72511675Y-38426863D01*
X72540715Y-38363314D01*
X72574455Y-38335996D01*
X72705197Y-38263786D01*
X72761537Y-38227602D01*
X72863826Y-38126417D01*
X72952420Y-38009398D01*
X72982058Y-37965679D01*
X73038179Y-37833195D01*
X73089857Y-37637269D01*
X73098084Y-37600601D01*
X73103943Y-37456840D01*
X73075723Y-37181319D01*
X73075721Y-37181312D01*
X73075721Y-37181306D01*
X73065791Y-37131355D01*
X73057192Y-37088096D01*
X72941094Y-36699572D01*
X72926710Y-36658093D01*
X72714757Y-36123163D01*
X72707185Y-36105083D01*
X72391399Y-35390338D01*
X72388063Y-35382949D01*
X72265073Y-35116231D01*
X72253086Y-35091967D01*
X72253083Y-35091963D01*
X72253075Y-35091945D01*
X71109302Y-32924731D01*
X71109287Y-32924705D01*
X71109279Y-32924689D01*
X71085739Y-32884656D01*
X69732794Y-30808378D01*
X69706693Y-30771960D01*
X69584678Y-30616735D01*
X68165104Y-28810785D01*
X68158877Y-28803539D01*
X68138668Y-28780022D01*
X68136289Y-28777253D01*
X66426523Y-26955254D01*
X66394614Y-26924123D01*
X64537174Y-25265405D01*
X64532956Y-25261970D01*
X64501512Y-25236363D01*
X62516861Y-23765004D01*
X62495009Y-23749681D01*
X62345507Y-23650627D01*
X62288159Y-23612631D01*
X62279647Y-23607114D01*
X61628470Y-23194288D01*
X61628463Y-23194283D01*
X61628443Y-23194271D01*
X61617615Y-23187596D01*
X60940143Y-22781629D01*
X60930144Y-22775792D01*
X60264497Y-22397355D01*
X60253594Y-22391332D01*
X59637841Y-22061064D01*
X59637826Y-22061056D01*
X59637805Y-22061045D01*
X59629532Y-22056779D01*
X59623301Y-22053566D01*
X59256876Y-21872044D01*
X59095528Y-21792114D01*
X59070071Y-21780370D01*
X58801338Y-21665311D01*
X58668328Y-21608363D01*
X58636027Y-21597309D01*
X58596832Y-21583895D01*
X58478002Y-21552932D01*
X58359178Y-21521971D01*
X58343931Y-21518250D01*
X58200523Y-21506601D01*
X58200521Y-21506601D01*
X58200520Y-21506601D01*
X58142604Y-21510182D01*
X58142591Y-21510183D01*
X58097240Y-21515050D01*
X57959566Y-21556860D01*
X57959563Y-21556862D01*
X57658250Y-21697847D01*
X57559659Y-21758626D01*
X57512882Y-21807767D01*
X57452403Y-21842752D01*
X57382609Y-21839486D01*
X57325661Y-21799005D01*
X57300055Y-21737888D01*
X57282209Y-21597309D01*
X57220962Y-21375206D01*
X57216234Y-21358061D01*
X57211287Y-21341266D01*
X57211286Y-21341264D01*
X57211285Y-21341260D01*
X57149147Y-21211489D01*
X57103108Y-21142634D01*
X57101710Y-21140543D01*
X57088810Y-21123010D01*
X57074822Y-21103995D01*
X56969432Y-21006044D01*
X56862430Y-20931889D01*
X56862426Y-20931886D01*
X56792101Y-20891103D01*
X56792087Y-20891097D01*
X56654742Y-20848279D01*
X56477973Y-20819858D01*
X56477966Y-20819857D01*
X56360689Y-20814807D01*
X56360686Y-20814807D01*
X56081578Y-20835314D01*
X56081571Y-20835314D01*
X56081569Y-20835315D01*
X56069537Y-20836808D01*
X56031272Y-20841558D01*
X56031248Y-20841562D01*
X55617206Y-20914189D01*
X55595948Y-20918389D01*
X55014342Y-21046340D01*
X55005654Y-21048331D01*
X54223952Y-21234785D01*
X54220577Y-21235604D01*
X54220404Y-21235646D01*
X54142712Y-21254771D01*
X54004216Y-21288863D01*
X53992191Y-21292084D01*
X53984344Y-21294186D01*
X53984330Y-21294190D01*
X53984319Y-21294193D01*
X53530227Y-21425782D01*
X53460358Y-21425535D01*
X53401714Y-21387552D01*
X53372914Y-21323894D01*
X53383103Y-21254771D01*
X53384621Y-21251597D01*
X53438714Y-21142634D01*
X53476606Y-21039406D01*
X53490974Y-20896245D01*
X53473505Y-20488122D01*
X53471409Y-20458953D01*
X53461329Y-20418366D01*
X53436729Y-20319314D01*
X53412798Y-20260469D01*
X53382983Y-20187151D01*
X53361591Y-20141276D01*
X53361591Y-20141275D01*
X53361590Y-20141274D01*
X53276914Y-20024946D01*
X53276913Y-20024945D01*
X53138315Y-19882585D01*
X53117983Y-19862840D01*
X52999225Y-19781609D01*
X52999212Y-19781602D01*
X52752188Y-19660102D01*
X52752187Y-19660101D01*
X52669216Y-19628015D01*
X52280969Y-19515996D01*
X52241222Y-19506253D01*
X51679005Y-19392353D01*
X51661137Y-19389066D01*
X50892117Y-19261906D01*
X50886035Y-19260940D01*
X50845088Y-19254686D01*
X50826068Y-19252148D01*
X50088279Y-19167937D01*
X50065809Y-19165877D01*
X49155270Y-19102860D01*
X49140683Y-19102061D01*
X48116267Y-19060706D01*
X48107611Y-19060454D01*
X48104834Y-19060374D01*
X48104828Y-19060373D01*
X48104763Y-19060372D01*
X47025412Y-19041156D01*
X47020103Y-19041117D01*
X47014762Y-19041079D01*
X47014720Y-19041079D01*
X47014703Y-19041079D01*
X45939252Y-19044470D01*
X45931651Y-19044581D01*
X45927576Y-19044641D01*
X44914818Y-19071118D01*
X44914780Y-19071119D01*
X44914763Y-19071120D01*
X44899718Y-19071738D01*
X44008622Y-19121775D01*
X43984598Y-19123701D01*
X43274093Y-19197773D01*
X43254565Y-19200195D01*
X43245624Y-19201481D01*
X43241225Y-19202115D01*
X43241213Y-19202117D01*
X43219472Y-19205730D01*
X40609171Y-19698365D01*
X40565370Y-19708671D01*
X38055978Y-20418360D01*
X38055947Y-20418370D01*
X38012163Y-20432941D01*
X38012160Y-20432942D01*
X35609677Y-21356354D01*
X35609645Y-21356367D01*
X35566707Y-21375201D01*
X35566696Y-21375206D01*
X33277084Y-22509031D01*
X33235734Y-22531975D01*
X31065014Y-23872876D01*
X31064998Y-23872886D01*
X31026096Y-23899501D01*
X31026092Y-23899504D01*
X29652179Y-24936841D01*
X28980244Y-25444169D01*
X28980238Y-25444173D01*
X28980234Y-25444177D01*
X28944346Y-25473970D01*
X28944341Y-25473974D01*
X27869932Y-26453080D01*
X27058810Y-27192253D01*
X27029402Y-27219052D01*
X26997065Y-27251314D01*
X25614640Y-28761347D01*
X25237621Y-29173168D01*
X25218993Y-29193515D01*
X25189732Y-29228530D01*
X23783701Y-31074425D01*
X23757192Y-31112776D01*
X23757183Y-31112789D01*
X23757177Y-31112799D01*
X22897214Y-32488602D01*
X22454884Y-33196258D01*
X22432153Y-33236631D01*
X22432134Y-33236667D01*
X21321831Y-35439159D01*
X21321811Y-35439201D01*
X21303297Y-35480414D01*
X20391126Y-37781043D01*
X20376557Y-37823110D01*
X20376553Y-37823121D01*
X20376552Y-37823126D01*
X19668752Y-40200803D01*
X19657972Y-40243841D01*
X19657969Y-40243852D01*
X19657968Y-40243859D01*
X19160746Y-42677543D01*
X19160744Y-42677558D01*
X19153744Y-42721687D01*
X18957360Y-44450397D01*
X18873291Y-45190434D01*
X18870195Y-45235791D01*
X18812723Y-47718532D01*
X18813798Y-47765202D01*
X18985511Y-50240939D01*
X18987765Y-50265054D01*
X19002701Y-50391982D01*
X19003181Y-50395915D01*
X19108901Y-51236664D01*
X19110669Y-51249405D01*
X19207333Y-51886798D01*
X19211890Y-51912396D01*
X19307382Y-52379036D01*
X19319939Y-52427856D01*
X19319951Y-52427898D01*
X19422150Y-52756357D01*
X19457093Y-52840834D01*
X19457103Y-52840857D01*
X19573879Y-53063653D01*
X19651480Y-53173272D01*
X19790719Y-53322962D01*
X19790721Y-53322963D01*
X19892344Y-53406967D01*
X19892352Y-53406973D01*
X20062654Y-53513734D01*
X20160549Y-53575104D01*
X20278255Y-53629291D01*
X20420295Y-53652230D01*
X20514460Y-53653860D01*
X20702781Y-53657122D01*
X20702785Y-53657121D01*
X20702791Y-53657122D01*
X20740534Y-53656366D01*
X20881541Y-53627756D01*
X21008776Y-53560578D01*
X21073217Y-53513732D01*
X21139014Y-53490236D01*
X21207072Y-53506043D01*
X21255781Y-53556135D01*
X21269675Y-53624609D01*
X21265342Y-53648147D01*
X21047525Y-54409297D01*
X21042520Y-54428154D01*
X21019177Y-54523497D01*
X21015638Y-54537953D01*
X21014662Y-54542013D01*
X21014651Y-54542059D01*
X20829539Y-55326066D01*
X20826529Y-55339652D01*
X20705285Y-55925065D01*
X20699997Y-55955144D01*
X20639789Y-56370986D01*
X20639788Y-56370989D01*
X20634585Y-56439699D01*
X20634125Y-56502175D01*
X20632590Y-56710703D01*
X20632557Y-56715130D01*
X20632749Y-56733296D01*
X20632751Y-56733313D01*
X20657292Y-56875063D01*
X20657297Y-56875083D01*
X20710587Y-57039057D01*
X20714988Y-57051989D01*
X20715083Y-57052269D01*
X20751949Y-57122306D01*
X20782100Y-57179587D01*
X20782102Y-57179590D01*
X20882270Y-57282866D01*
X20882274Y-57282869D01*
X20988077Y-57364623D01*
X20998890Y-57372749D01*
X21125954Y-57440249D01*
X21157372Y-57451558D01*
X21260762Y-57476863D01*
X21406404Y-57496579D01*
X21421286Y-57498594D01*
X21421287Y-57498594D01*
X21421294Y-57498595D01*
X21537878Y-57500806D01*
X21537880Y-57500805D01*
X21538230Y-57500812D01*
X21604884Y-57521764D01*
X21649630Y-57575426D01*
X21658260Y-57644761D01*
X21629392Y-57706223D01*
X21551591Y-57795563D01*
X21489280Y-57925254D01*
X21414090Y-58164002D01*
X21414082Y-58164029D01*
X21396234Y-58241537D01*
X21395546Y-58385414D01*
X21395546Y-58385418D01*
X21442542Y-58723752D01*
X21442543Y-58723755D01*
X21468619Y-58828184D01*
X21641477Y-59299738D01*
X21641482Y-59299750D01*
X21653669Y-59328830D01*
X21659252Y-59342150D01*
X21958456Y-59973851D01*
X21961659Y-59980612D01*
X21975769Y-60008185D01*
X22205593Y-60425217D01*
X22784782Y-61476201D01*
X22809512Y-61521074D01*
X22831859Y-61557830D01*
X24121211Y-63488394D01*
X24121226Y-63488415D01*
X24148329Y-63525269D01*
X24148335Y-63525277D01*
X25666209Y-65404638D01*
X25693805Y-65436053D01*
X25693816Y-65436065D01*
X25693820Y-65436069D01*
X27444715Y-67270197D01*
X27462461Y-67287887D01*
X27903710Y-67706465D01*
X27903721Y-67706475D01*
X27925674Y-67726117D01*
X28718353Y-68394755D01*
X29859027Y-69356933D01*
X29859051Y-69356951D01*
X29859053Y-69356953D01*
X29896542Y-69385686D01*
X29896549Y-69385691D01*
X31967384Y-70824292D01*
X32007088Y-70849226D01*
X32007147Y-70849261D01*
X34201022Y-72088960D01*
X34201049Y-72088975D01*
X34237178Y-72107247D01*
X34240137Y-72108744D01*
X34242625Y-72110002D01*
X36545310Y-73144236D01*
X36588433Y-73161273D01*
X38985486Y-73983354D01*
X39029856Y-73996336D01*
X39029861Y-73996337D01*
X39029878Y-73996342D01*
X40268380Y-74297977D01*
X41506904Y-74599619D01*
X41552221Y-74608486D01*
X44094894Y-74986323D01*
X44100952Y-74987000D01*
X44131242Y-74990387D01*
X45012103Y-75056700D01*
X45012116Y-75056700D01*
X45012120Y-75056701D01*
X45032605Y-75057825D01*
X46144995Y-75096276D01*
X46161499Y-75096577D01*
X47330094Y-75098793D01*
X47332473Y-75098798D01*
X47332473Y-75098797D01*
X47332474Y-75098798D01*
X47348587Y-75098572D01*
X48484129Y-75064516D01*
X48504250Y-75063511D01*
X49510340Y-74993133D01*
X49527221Y-74991667D01*
X49821254Y-74961167D01*
X49845411Y-74958072D01*
X51931844Y-74639442D01*
X51970156Y-74632067D01*
X54080810Y-74140662D01*
X54116005Y-74131118D01*
X56201154Y-73484047D01*
X56201154Y-73484046D01*
X56201170Y-73484042D01*
X56215833Y-73478907D01*
X56235362Y-73472071D01*
X58245281Y-72686446D01*
X58280447Y-72671138D01*
X60165413Y-71764069D01*
X60165415Y-71764067D01*
X60165421Y-71764065D01*
X60182353Y-71755005D01*
X60203529Y-71743677D01*
X61913816Y-70732274D01*
X61937099Y-70717635D01*
X62147970Y-70576915D01*
X62163501Y-70566126D01*
X62704917Y-70174785D01*
X62749733Y-70138317D01*
X63099288Y-69818992D01*
X63182971Y-69720049D01*
X63359308Y-69447048D01*
X63405683Y-69356327D01*
X63438317Y-69216196D01*
X63460075Y-68963830D01*
X63457553Y-68853936D01*
X63418527Y-68715450D01*
X63380543Y-68629815D01*
X63335052Y-68527253D01*
X63325864Y-68457990D01*
X63355581Y-68394755D01*
X63414768Y-68357625D01*
X63484634Y-68358387D01*
X63488636Y-68359685D01*
X63676674Y-68424304D01*
X63778720Y-68447898D01*
X64145161Y-68493360D01*
X64232329Y-68496591D01*
X64349786Y-68490791D01*
X64349788Y-68490790D01*
X64349795Y-68490790D01*
X64392803Y-68484166D01*
X64452981Y-68474899D01*
X64614140Y-68432672D01*
X64729280Y-68386795D01*
X64782414Y-68357625D01*
X64915760Y-68284420D01*
X64915764Y-68284417D01*
X64915785Y-68284406D01*
X64981008Y-68241746D01*
X65221295Y-68056642D01*
X65251043Y-68031853D01*
X65573546Y-67741483D01*
X65586414Y-67729486D01*
X66019568Y-67311298D01*
X66024750Y-67306222D01*
X66596988Y-66737665D01*
X66598143Y-66736513D01*
X68215044Y-65119612D01*
X68236482Y-65096804D01*
X68315412Y-64976506D01*
X68357253Y-64838844D01*
X68358615Y-64694970D01*
X68336566Y-64530586D01*
X68290600Y-64187881D01*
X68290596Y-64187851D01*
X68287386Y-64167175D01*
X68264916Y-64039884D01*
X68260378Y-64014178D01*
X68260374Y-64014160D01*
X68253325Y-63987947D01*
X68237314Y-63928404D01*
X68230393Y-63909483D01*
X68205807Y-63842262D01*
X68125681Y-63623194D01*
X68125678Y-63623189D01*
X68125677Y-63623185D01*
X68093877Y-63561118D01*
X68069199Y-63512951D01*
X67851680Y-63192469D01*
X67851676Y-63192463D01*
X67808403Y-63137356D01*
X67808376Y-63137325D01*
X67443876Y-62734159D01*
X67443848Y-62734128D01*
X67432668Y-62722158D01*
X67405292Y-62693783D01*
X67200918Y-62480970D01*
X67200859Y-62480858D01*
X67200834Y-62480883D01*
X66842394Y-62106897D01*
X66842360Y-62106862D01*
X66828710Y-62092609D01*
X66341467Y-61583836D01*
X65708337Y-60922447D01*
X65708330Y-60922433D01*
X65708327Y-60922437D01*
X64953478Y-60133681D01*
X64953478Y-60133680D01*
X64953469Y-60133672D01*
X64911227Y-60089524D01*
X64087402Y-59228524D01*
X63120576Y-58217918D01*
X63120576Y-58217917D01*
X63120570Y-58217912D01*
X63112591Y-58209571D01*
X62063471Y-57112808D01*
X60926562Y-55924142D01*
X59720319Y-54662863D01*
X59720319Y-54662862D01*
X59720315Y-54662859D01*
X59703729Y-54645515D01*
X58458621Y-53343483D01*
X58403692Y-53286038D01*
X57484957Y-52325217D01*
X57141713Y-51966249D01*
X57141710Y-51966245D01*
X57141710Y-51966246D01*
X55790284Y-50552797D01*
X55790284Y-50552796D01*
X55790283Y-50552796D01*
X55741895Y-50502187D01*
X55511975Y-50261713D01*
X55511940Y-50261676D01*
X54155720Y-48843490D01*
X54155661Y-48843428D01*
X52832941Y-47460741D01*
X52832881Y-47460679D01*
X52832693Y-47460482D01*
X52832684Y-47460473D01*
X52392031Y-47000000D01*
X52390352Y-46998245D01*
X53356782Y-46998245D01*
X53362822Y-47141996D01*
X53383596Y-47253133D01*
X53427935Y-47385472D01*
X53427937Y-47385475D01*
X53517144Y-47564725D01*
X53517149Y-47564734D01*
X53556603Y-47630850D01*
X53556609Y-47630859D01*
X53556610Y-47630860D01*
X53571057Y-47651344D01*
X53731822Y-47879283D01*
X53754593Y-47909149D01*
X54032616Y-48246989D01*
X54045059Y-48261538D01*
X54442716Y-48709068D01*
X54449485Y-48716533D01*
X54983597Y-49294013D01*
X54987077Y-49297736D01*
X54987194Y-49297861D01*
X55056444Y-49371172D01*
X55674346Y-50025307D01*
X55674454Y-50025421D01*
X55674515Y-50025485D01*
X55677164Y-50028268D01*
X55900490Y-50261119D01*
X56226452Y-50600983D01*
X56226510Y-50601043D01*
X56226559Y-50601094D01*
X56229897Y-50604542D01*
X56229988Y-50604636D01*
X56780475Y-51167799D01*
X56780507Y-51167831D01*
X56784590Y-51171960D01*
X57266709Y-51653977D01*
X57268532Y-51655770D01*
X57272581Y-51659753D01*
X57662184Y-52036850D01*
X57673450Y-52047424D01*
X57673482Y-52047453D01*
X57946605Y-52296039D01*
X57982423Y-52325215D01*
X57989594Y-52331056D01*
X58122174Y-52427456D01*
X58122189Y-52427465D01*
X58122202Y-52427475D01*
X58182942Y-52465371D01*
X58318386Y-52513915D01*
X58327014Y-52515676D01*
X58340289Y-52518386D01*
X58340292Y-52518386D01*
X58340301Y-52518388D01*
X58469446Y-52527820D01*
X58687923Y-52515677D01*
X58730774Y-52511459D01*
X58868910Y-52471209D01*
X59136422Y-52349709D01*
X59224984Y-52298067D01*
X59567850Y-52048349D01*
X59606864Y-52016859D01*
X59606889Y-52016837D01*
X60051390Y-51620078D01*
X60052911Y-51618652D01*
X60069134Y-51603457D01*
X60641673Y-51040721D01*
X60646609Y-51035802D01*
X61717350Y-49953975D01*
X61768168Y-49893930D01*
X61834823Y-49766420D01*
X61862854Y-49625297D01*
X61849990Y-49481993D01*
X61398999Y-47575814D01*
X61398315Y-47572959D01*
X61294955Y-47147146D01*
X61293095Y-47139726D01*
X61135935Y-46532507D01*
X61133015Y-46521720D01*
X61124764Y-46492519D01*
X60991401Y-46020518D01*
X60986013Y-46002711D01*
X60956609Y-45911624D01*
X60872313Y-45650491D01*
X60850831Y-45595253D01*
X60805053Y-45495321D01*
X60777429Y-45435018D01*
X60759771Y-45400107D01*
X60672724Y-45285550D01*
X60672721Y-45285547D01*
X60556928Y-45200154D01*
X60514840Y-45177563D01*
X60424834Y-45129251D01*
X60365973Y-45102358D01*
X60186246Y-45033780D01*
X60039521Y-44977794D01*
X60020474Y-44970959D01*
X59555506Y-44814508D01*
X59545485Y-44811251D01*
X58992309Y-44637797D01*
X58985169Y-44635619D01*
X58985167Y-44635618D01*
X58985051Y-44635583D01*
X58394370Y-44460141D01*
X58394363Y-44460139D01*
X58394252Y-44460106D01*
X58387337Y-44458107D01*
X57809603Y-44295612D01*
X57800760Y-44293211D01*
X57286479Y-44158616D01*
X57271445Y-44154927D01*
X56871192Y-44063203D01*
X56830261Y-44055583D01*
X56594572Y-44021685D01*
X56557869Y-44017769D01*
X56557867Y-44017769D01*
X56557866Y-44017769D01*
X56513371Y-44021022D01*
X56414376Y-44028262D01*
X56414363Y-44028264D01*
X56316318Y-44049756D01*
X56306674Y-44051969D01*
X56172957Y-44105079D01*
X55864242Y-44282196D01*
X55864237Y-44282199D01*
X55804444Y-44322426D01*
X55346935Y-44680103D01*
X55322804Y-44700206D01*
X54713713Y-45240516D01*
X54703439Y-45249886D01*
X54268844Y-45657204D01*
X54256779Y-45668893D01*
X53887748Y-46038430D01*
X53859958Y-46068615D01*
X53628422Y-46341531D01*
X53628395Y-46341566D01*
X53576271Y-46415530D01*
X53576260Y-46415547D01*
X53456327Y-46622980D01*
X53445749Y-46642230D01*
X53445746Y-46642235D01*
X53398042Y-46777957D01*
X53398038Y-46777973D01*
X53363816Y-46951060D01*
X53356782Y-46998245D01*
X52390352Y-46998245D01*
X51554730Y-46125038D01*
X51554668Y-46124973D01*
X50332155Y-44847925D01*
X50332088Y-44847855D01*
X49176280Y-43640950D01*
X49176206Y-43640873D01*
X49176204Y-43640870D01*
X49176074Y-43640735D01*
X48340625Y-42768720D01*
X48308460Y-42706694D01*
X48314936Y-42637125D01*
X48357995Y-42582101D01*
X48423967Y-42559091D01*
X48491906Y-42575401D01*
X48518395Y-42595809D01*
X48565286Y-42643295D01*
X48565391Y-42643401D01*
X48565410Y-42643420D01*
X48567128Y-42645151D01*
X48567215Y-42645238D01*
X48567214Y-42645238D01*
X48690333Y-42768720D01*
X49072530Y-43152045D01*
X49075175Y-43154678D01*
X49075297Y-43154799D01*
X49099663Y-43178864D01*
X49481395Y-43555877D01*
X49485918Y-43560289D01*
X49620078Y-43689519D01*
X49804731Y-43867386D01*
X49812351Y-43874573D01*
X49812395Y-43874614D01*
X49812406Y-43874624D01*
X49847635Y-43907162D01*
X50055846Y-44099471D01*
X50069745Y-44111842D01*
X50249733Y-44266180D01*
X50249747Y-44266192D01*
X50277027Y-44287995D01*
X50405591Y-44383663D01*
X50405593Y-44383664D01*
X50405606Y-44383673D01*
X50464643Y-44421537D01*
X50464654Y-44421544D01*
X50509195Y-44445924D01*
X50553738Y-44470305D01*
X50687139Y-44520425D01*
X50687147Y-44520426D01*
X50687148Y-44520427D01*
X50748667Y-44534053D01*
X50748710Y-44534062D01*
X50758941Y-44536217D01*
X50902608Y-44544052D01*
X51042662Y-44511094D01*
X51197350Y-44450398D01*
X51285039Y-44405698D01*
X51586615Y-44212851D01*
X51607974Y-44198071D01*
X51616846Y-44191933D01*
X52009747Y-43898380D01*
X52009761Y-43898368D01*
X52009773Y-43898360D01*
X52029024Y-43883237D01*
X52461449Y-43526264D01*
X52463761Y-43524403D01*
X53303615Y-42865768D01*
X53314599Y-42858078D01*
X54318398Y-42233581D01*
X54332784Y-42225896D01*
X55309093Y-41784409D01*
X55327803Y-41777697D01*
X56256586Y-41526472D01*
X56271059Y-41523472D01*
X56533139Y-41485300D01*
X56546748Y-41484079D01*
X57755336Y-41442635D01*
X57776996Y-41443790D01*
X58928837Y-41607182D01*
X58949610Y-41611981D01*
X60046612Y-41967163D01*
X60065924Y-41975276D01*
X61087849Y-42510275D01*
X61105300Y-42521356D01*
X62031244Y-43224133D01*
X62046521Y-43237865D01*
X62350314Y-43560279D01*
X62855360Y-44096281D01*
X62868161Y-44112349D01*
X63141273Y-44520425D01*
X63484845Y-45033780D01*
X63538833Y-45114446D01*
X63548824Y-45132446D01*
X64062313Y-46271291D01*
X64068688Y-46288857D01*
X64214261Y-46809295D01*
X64217528Y-46824675D01*
X64348704Y-47717664D01*
X64349965Y-47731972D01*
X64378701Y-48690934D01*
X64378347Y-48704726D01*
X64302863Y-49630397D01*
X64300358Y-49647047D01*
X64120745Y-50460750D01*
X64117381Y-50472980D01*
X64074655Y-50602086D01*
X64070484Y-50612951D01*
X63620654Y-51638139D01*
X63611152Y-51655770D01*
X62988486Y-52616239D01*
X62977840Y-52630345D01*
X62125880Y-53606001D01*
X62121950Y-53610294D01*
X61900023Y-53841575D01*
X61885133Y-53857786D01*
X61512594Y-54281473D01*
X61484794Y-54316038D01*
X61242814Y-54645513D01*
X61185013Y-54747012D01*
X61185006Y-54747025D01*
X61098760Y-54949948D01*
X61098755Y-54949961D01*
X61075678Y-55016954D01*
X61075677Y-55016960D01*
X61058627Y-55159817D01*
X61058626Y-55159835D01*
X61058798Y-55166983D01*
X61073175Y-55275146D01*
X61077948Y-55294625D01*
X61085641Y-55326026D01*
X61091152Y-55348516D01*
X61137025Y-55467828D01*
X61137026Y-55467830D01*
X61192992Y-55571794D01*
X61193019Y-55571841D01*
X61227627Y-55627222D01*
X61227643Y-55627245D01*
X61227646Y-55627250D01*
X61238437Y-55642262D01*
X61333573Y-55774611D01*
X61354046Y-55801185D01*
X61465938Y-55936855D01*
X61521882Y-56004688D01*
X61533742Y-56018551D01*
X61564683Y-56053423D01*
X61775434Y-56290954D01*
X61782504Y-56298757D01*
X62109937Y-56652746D01*
X62114210Y-56657309D01*
X62304261Y-56857738D01*
X62539507Y-57105830D01*
X62542161Y-57108608D01*
X63077143Y-57664284D01*
X63078806Y-57666003D01*
X63735459Y-58341629D01*
X63736497Y-58342695D01*
X63736567Y-58342767D01*
X64526668Y-59150925D01*
X64527374Y-59151644D01*
X64527397Y-59151688D01*
X64527408Y-59151679D01*
X65463260Y-60105490D01*
X65463391Y-60105624D01*
X65463709Y-60105949D01*
X66443215Y-61102175D01*
X66557010Y-61217912D01*
X66557836Y-61218750D01*
X66808542Y-61472551D01*
X66812110Y-61476127D01*
X67424598Y-62083907D01*
X67433560Y-62092583D01*
X67433587Y-62092609D01*
X67907609Y-62540322D01*
X67925499Y-62556430D01*
X68021555Y-62638863D01*
X68277467Y-62858480D01*
X68318665Y-62890304D01*
X68564898Y-63061009D01*
X68689142Y-63123816D01*
X68846000Y-63177528D01*
X68976087Y-63203666D01*
X69119551Y-63192722D01*
X69211658Y-63172228D01*
X69217203Y-63170962D01*
X69351190Y-63118532D01*
X69632431Y-62959074D01*
X69692105Y-62919402D01*
X70055322Y-62638866D01*
X70083244Y-62615652D01*
X70482788Y-62258445D01*
X70502969Y-62239379D01*
X70893188Y-61849908D01*
X70913982Y-61827871D01*
X71249229Y-61450542D01*
X71279345Y-61413222D01*
X71513970Y-61092444D01*
X71574994Y-60982533D01*
X71663346Y-60762712D01*
X71687894Y-60683317D01*
X71698644Y-60539839D01*
X71697390Y-60521431D01*
X71684795Y-60438631D01*
X71630240Y-60209649D01*
X71621571Y-60177888D01*
X71495776Y-59769824D01*
X71491927Y-59757868D01*
X71307898Y-59209673D01*
X71305348Y-59202264D01*
X71182818Y-58855196D01*
X71130208Y-58706178D01*
X71126453Y-58636411D01*
X71161013Y-58575687D01*
X71222916Y-58543287D01*
X71285646Y-58547031D01*
X71383556Y-58579020D01*
X71383558Y-58579020D01*
X71383566Y-58579023D01*
X71664071Y-58628036D01*
X71687301Y-58631541D01*
X71831162Y-58629196D01*
X71968536Y-58586416D01*
X72219764Y-58466699D01*
X72295893Y-58421870D01*
X72399935Y-58322488D01*
X72639758Y-58016968D01*
X72697058Y-57925230D01*
X72943349Y-57416830D01*
X72962269Y-57372507D01*
X73232898Y-56644153D01*
X73237395Y-56631541D01*
X73245384Y-56608161D01*
X73247808Y-56600886D01*
X73438838Y-56012827D01*
X73447161Y-55984396D01*
X73553109Y-55578759D01*
X73566502Y-55506137D01*
X73587283Y-55316704D01*
X73595190Y-55244633D01*
X73595701Y-55237273D01*
X73597984Y-55204447D01*
X73581726Y-55061488D01*
X73540974Y-54905818D01*
X73523665Y-54852126D01*
X73508594Y-54825215D01*
X73464800Y-54747013D01*
X73453363Y-54726590D01*
X73313749Y-54544187D01*
X73282593Y-54507278D01*
X73204730Y-54444427D01*
X73164929Y-54387002D01*
X73162492Y-54317175D01*
X73198193Y-54257115D01*
X73253282Y-54227458D01*
X73769265Y-54101854D01*
X73775881Y-54100196D01*
X74412028Y-53936216D01*
X74420909Y-53933841D01*
X74929341Y-53792874D01*
X74945572Y-53788079D01*
X75290523Y-53679880D01*
X75346952Y-53658402D01*
X75358342Y-53653267D01*
X75427548Y-53643663D01*
X75490961Y-53672999D01*
X75528447Y-53731961D01*
X75529739Y-53795817D01*
X75356681Y-54502264D01*
X75355508Y-54506694D01*
X75060103Y-55544936D01*
X75058768Y-55549320D01*
X74725193Y-56575959D01*
X74723697Y-56580291D01*
X74352401Y-57593936D01*
X74350745Y-57598209D01*
X73942266Y-58597394D01*
X73940454Y-58601603D01*
X73495322Y-59585038D01*
X73493355Y-59589178D01*
X73012190Y-60555488D01*
X73010072Y-60559551D01*
X72493533Y-61507414D01*
X72491266Y-61511397D01*
X71940063Y-62439513D01*
X71937651Y-62443410D01*
X71352498Y-63350569D01*
X71349943Y-63354373D01*
X70731696Y-64239253D01*
X70729002Y-64242961D01*
X70078466Y-65104412D01*
X70075637Y-65108017D01*
X69393734Y-65944814D01*
X69390774Y-65948313D01*
X68678390Y-66759371D01*
X68675303Y-66762757D01*
X67933452Y-67546919D01*
X67930241Y-67550190D01*
X67159909Y-68306416D01*
X67156580Y-68309565D01*
X66358840Y-69036800D01*
X66355397Y-69039824D01*
X65531337Y-69737081D01*
X65527784Y-69739976D01*
X64678496Y-70406325D01*
X64674839Y-70409087D01*
X63801545Y-71043573D01*
X63797789Y-71046198D01*
X62901610Y-71648004D01*
X62897759Y-71650488D01*
X61979960Y-72218765D01*
X61976019Y-72221105D01*
X61037871Y-72755066D01*
X61033847Y-72757259D01*
X60076602Y-73256194D01*
X60072500Y-73258237D01*
X59097440Y-73721476D01*
X59093265Y-73723365D01*
X58101816Y-74150229D01*
X58097574Y-74151964D01*
X57090968Y-74541925D01*
X57086665Y-74543501D01*
X56066358Y-74895994D01*
X56061999Y-74897410D01*
X55029378Y-75211955D01*
X55024970Y-75213209D01*
X53981402Y-75489390D01*
X53976951Y-75490480D01*
X52923947Y-75727898D01*
X52919459Y-75728824D01*
X51858319Y-75927185D01*
X51853799Y-75927943D01*
X50786142Y-76086945D01*
X50781598Y-76087537D01*
X49708704Y-76206989D01*
X49704141Y-76207411D01*
X48627636Y-76287132D01*
X48623060Y-76287386D01*
X47544329Y-76327275D01*
X47539747Y-76327360D01*
X46460253Y-76327360D01*
X46455671Y-76327275D01*
X45376939Y-76287386D01*
X45372363Y-76287132D01*
X44295858Y-76207411D01*
X44291295Y-76206989D01*
X43218401Y-76087537D01*
X43213857Y-76086945D01*
X42146200Y-75927943D01*
X42141680Y-75927185D01*
X41080540Y-75728824D01*
X41076052Y-75727898D01*
X40023048Y-75490480D01*
X40018597Y-75489390D01*
X38975029Y-75213209D01*
X38970621Y-75211955D01*
X37938000Y-74897410D01*
X37933641Y-74895994D01*
X36913334Y-74543501D01*
X36909031Y-74541925D01*
X35902425Y-74151964D01*
X35898183Y-74150229D01*
X34906734Y-73723365D01*
X34902559Y-73721476D01*
X33927499Y-73258237D01*
X33923397Y-73256194D01*
X32966152Y-72757259D01*
X32962128Y-72755066D01*
X32023980Y-72221105D01*
X32020039Y-72218765D01*
X31102240Y-71650488D01*
X31098389Y-71648004D01*
X30202210Y-71046198D01*
X30198454Y-71043573D01*
X30135469Y-70997812D01*
X29437577Y-70490763D01*
X29325160Y-70409087D01*
X29321503Y-70406325D01*
X28472215Y-69739976D01*
X28468677Y-69737093D01*
X27893005Y-69250004D01*
X27644602Y-69039824D01*
X27641159Y-69036800D01*
X26896138Y-68357625D01*
X26843416Y-68309563D01*
X26840090Y-68306416D01*
X26817669Y-68284406D01*
X26069758Y-67550190D01*
X26066547Y-67546919D01*
X25324696Y-66762757D01*
X25321609Y-66759371D01*
X24943448Y-66328830D01*
X24609209Y-65948294D01*
X24606281Y-65944833D01*
X23924346Y-65107997D01*
X23921548Y-65104432D01*
X23488085Y-64530433D01*
X23270997Y-64242961D01*
X23268303Y-64239253D01*
X22650056Y-63354373D01*
X22647501Y-63350569D01*
X22545521Y-63192470D01*
X22062330Y-62443381D01*
X22059954Y-62439542D01*
X21508733Y-61511397D01*
X21506466Y-61507414D01*
X21057534Y-60683612D01*
X20989923Y-60559543D01*
X20987809Y-60555488D01*
X20883234Y-60345474D01*
X20596595Y-59769824D01*
X20506644Y-59589178D01*
X20504677Y-59585038D01*
X20059545Y-58601603D01*
X20057733Y-58597394D01*
X19817793Y-58010474D01*
X19649249Y-57598198D01*
X19647598Y-57593936D01*
X19612675Y-57498595D01*
X19276289Y-56580253D01*
X19274819Y-56575998D01*
X18941219Y-55549283D01*
X18939907Y-55544974D01*
X18644486Y-54506675D01*
X18643318Y-54502264D01*
X18638063Y-54480811D01*
X18386458Y-53453730D01*
X18385469Y-53449344D01*
X18167525Y-52392013D01*
X18166698Y-52387589D01*
X17987979Y-51322963D01*
X17987305Y-51318433D01*
X17951185Y-51040773D01*
X17848052Y-50247965D01*
X17847546Y-50243419D01*
X17845963Y-50226333D01*
X17747942Y-49168521D01*
X17747606Y-49163970D01*
X17746162Y-49137947D01*
X17687789Y-48086129D01*
X17687622Y-48081651D01*
X17667674Y-47002272D01*
X17667674Y-46997709D01*
X17667805Y-46990623D01*
X17687622Y-45918346D01*
X17687789Y-45913872D01*
X17747607Y-44836006D01*
X17747944Y-44831459D01*
X17749021Y-44819843D01*
X17847547Y-43756565D01*
X17848053Y-43752025D01*
X17852239Y-43719851D01*
X17987306Y-42681556D01*
X17987980Y-42677033D01*
X17993189Y-42646003D01*
X18166700Y-41612400D01*
X18167523Y-41607996D01*
X18385472Y-40550644D01*
X18386455Y-40546281D01*
X18643326Y-39497703D01*
X18644482Y-39493337D01*
X18939912Y-38455009D01*
X18941214Y-38450731D01*
X19274825Y-37423984D01*
X19276283Y-37419762D01*
X19647608Y-36406035D01*
X19649242Y-36401819D01*
X20057738Y-35402592D01*
X20059545Y-35398396D01*
X20063193Y-35390338D01*
X20504682Y-34414949D01*
X20506644Y-34410821D01*
X20511769Y-34400529D01*
X20987824Y-33444480D01*
X20989911Y-33440478D01*
X21506479Y-32492561D01*
X21508719Y-32488624D01*
X22059969Y-31560432D01*
X22062315Y-31556641D01*
X22647519Y-30649401D01*
X22650036Y-30645655D01*
X23268307Y-29760739D01*
X23270997Y-29757038D01*
X23328723Y-29680596D01*
X23921568Y-28895541D01*
X23924325Y-28892028D01*
X24606303Y-28055139D01*
X24609186Y-28051731D01*
X25321633Y-27240601D01*
X25324670Y-27237269D01*
X26066571Y-26453054D01*
X26069733Y-26449834D01*
X26840121Y-25693553D01*
X26843387Y-25690463D01*
X27641172Y-24963186D01*
X27644588Y-24960186D01*
X28468709Y-24262879D01*
X28472193Y-24260040D01*
X29321507Y-23593670D01*
X29325128Y-23590935D01*
X30198496Y-22956396D01*
X30202167Y-22953830D01*
X31098398Y-22351989D01*
X31102240Y-22349511D01*
X32020061Y-21781220D01*
X32023958Y-21778906D01*
X32962148Y-21244922D01*
X32966133Y-21242750D01*
X33923411Y-20743797D01*
X33927485Y-20741768D01*
X34902595Y-20278506D01*
X34906696Y-20276650D01*
X35898225Y-19849752D01*
X35902384Y-19848051D01*
X36909046Y-19458068D01*
X36913318Y-19456503D01*
X37933683Y-19103991D01*
X37937957Y-19102602D01*
X38970651Y-18788035D01*
X38975012Y-18786794D01*
X40018608Y-18510606D01*
X40023023Y-18509524D01*
X41076069Y-18272097D01*
X41080523Y-18271178D01*
X42141701Y-18072810D01*
X42146178Y-18072059D01*
X43213867Y-17913052D01*
X43218392Y-17912463D01*
X44291304Y-17793009D01*
X44295849Y-17792588D01*
X45372382Y-17712865D01*
X45376919Y-17712614D01*
X46455671Y-17672724D01*
X46460253Y-17672640D01*
X47539747Y-17672640D01*
X47544328Y-17672724D01*
G37*
%TD.AperFunction*%
M02*
