%TF.GenerationSoftware,KiCad,Pcbnew,8.0.5*%
%TF.CreationDate,2024-12-13T13:51:03-05:00*%
%TF.ProjectId,GRRCoaster,47525243-6f61-4737-9465-722e6b696361,rev?*%
%TF.SameCoordinates,Original*%
%TF.FileFunction,Drillmap*%
%TF.FilePolarity,Positive*%
%FSLAX45Y45*%
G04 Gerber Fmt 4.5, Leading zero omitted, Abs format (unit mm)*
G04 Created by KiCad (PCBNEW 8.0.5) date 2024-12-13 13:51:03*
%MOMM*%
%LPD*%
G01*
G04 APERTURE LIST*
%ADD10C,0.050000*%
%ADD11C,0.200000*%
%ADD12C,0.160000*%
G04 APERTURE END LIST*
D10*
X10470000Y-5890000D02*
G75*
G02*
X1470000Y-5890000I-4500000J0D01*
G01*
X1470000Y-5890000D02*
G75*
G02*
X10470000Y-5890000I4500000J0D01*
G01*
D11*
D12*
X2652258Y-7080761D02*
X2812258Y-7240761D01*
X2812258Y-7080761D02*
X2652258Y-7240761D01*
X2992258Y-6700761D02*
X3152258Y-6860761D01*
X3152258Y-6700761D02*
X2992258Y-6860761D01*
X3162258Y-7890761D02*
X3322258Y-8050761D01*
X3322258Y-7890761D02*
X3162258Y-8050761D01*
X3752258Y-5860761D02*
X3912258Y-6020761D01*
X3912258Y-5860761D02*
X3752258Y-6020761D01*
X3832258Y-8460761D02*
X3992258Y-8620761D01*
X3992258Y-8460761D02*
X3832258Y-8620761D01*
X4172258Y-5470761D02*
X4332258Y-5630761D01*
X4332258Y-5470761D02*
X4172258Y-5630761D01*
X4212258Y-6910761D02*
X4372258Y-7070761D01*
X4372258Y-6910761D02*
X4212258Y-7070761D01*
X4682258Y-7460761D02*
X4842258Y-7620761D01*
X4842258Y-7460761D02*
X4682258Y-7620761D01*
X5112258Y-6350761D02*
X5272258Y-6510761D01*
X5272258Y-6350761D02*
X5112258Y-6510761D01*
X5202258Y-7970761D02*
X5362258Y-8130761D01*
X5362258Y-7970761D02*
X5202258Y-8130761D01*
X5302258Y-7240761D02*
X5462258Y-7400761D01*
X5462258Y-7240761D02*
X5302258Y-7400761D01*
X5662258Y-8370761D02*
X5822258Y-8530761D01*
X5822258Y-8370761D02*
X5662258Y-8530761D01*
X5762258Y-9310761D02*
X5922258Y-9470761D01*
X5922258Y-9310761D02*
X5762258Y-9470761D01*
X6582258Y-9230761D02*
X6742258Y-9390761D01*
X6742258Y-9230761D02*
X6582258Y-9390761D01*
X7262258Y-9090761D02*
X7422258Y-9250761D01*
X7422258Y-9090761D02*
X7262258Y-9250761D01*
X7702258Y-8800761D02*
X7862258Y-8960761D01*
X7862258Y-8800761D02*
X7702258Y-8960761D01*
D11*
X1728277Y-10703984D02*
X1728277Y-10503984D01*
X1728277Y-10503984D02*
X1775896Y-10503984D01*
X1775896Y-10503984D02*
X1804467Y-10513508D01*
X1804467Y-10513508D02*
X1823515Y-10532555D01*
X1823515Y-10532555D02*
X1833039Y-10551603D01*
X1833039Y-10551603D02*
X1842562Y-10589698D01*
X1842562Y-10589698D02*
X1842562Y-10618270D01*
X1842562Y-10618270D02*
X1833039Y-10656365D01*
X1833039Y-10656365D02*
X1823515Y-10675412D01*
X1823515Y-10675412D02*
X1804467Y-10694460D01*
X1804467Y-10694460D02*
X1775896Y-10703984D01*
X1775896Y-10703984D02*
X1728277Y-10703984D01*
X1928277Y-10703984D02*
X1928277Y-10570650D01*
X1928277Y-10608746D02*
X1937801Y-10589698D01*
X1937801Y-10589698D02*
X1947324Y-10580174D01*
X1947324Y-10580174D02*
X1966372Y-10570650D01*
X1966372Y-10570650D02*
X1985420Y-10570650D01*
X2052086Y-10703984D02*
X2052086Y-10570650D01*
X2052086Y-10503984D02*
X2042562Y-10513508D01*
X2042562Y-10513508D02*
X2052086Y-10523031D01*
X2052086Y-10523031D02*
X2061610Y-10513508D01*
X2061610Y-10513508D02*
X2052086Y-10503984D01*
X2052086Y-10503984D02*
X2052086Y-10523031D01*
X2175896Y-10703984D02*
X2156848Y-10694460D01*
X2156848Y-10694460D02*
X2147324Y-10675412D01*
X2147324Y-10675412D02*
X2147324Y-10503984D01*
X2280658Y-10703984D02*
X2261610Y-10694460D01*
X2261610Y-10694460D02*
X2252086Y-10675412D01*
X2252086Y-10675412D02*
X2252086Y-10503984D01*
X2509229Y-10703984D02*
X2509229Y-10503984D01*
X2509229Y-10503984D02*
X2575896Y-10646841D01*
X2575896Y-10646841D02*
X2642563Y-10503984D01*
X2642563Y-10503984D02*
X2642563Y-10703984D01*
X2823515Y-10703984D02*
X2823515Y-10599222D01*
X2823515Y-10599222D02*
X2813991Y-10580174D01*
X2813991Y-10580174D02*
X2794944Y-10570650D01*
X2794944Y-10570650D02*
X2756848Y-10570650D01*
X2756848Y-10570650D02*
X2737801Y-10580174D01*
X2823515Y-10694460D02*
X2804467Y-10703984D01*
X2804467Y-10703984D02*
X2756848Y-10703984D01*
X2756848Y-10703984D02*
X2737801Y-10694460D01*
X2737801Y-10694460D02*
X2728277Y-10675412D01*
X2728277Y-10675412D02*
X2728277Y-10656365D01*
X2728277Y-10656365D02*
X2737801Y-10637317D01*
X2737801Y-10637317D02*
X2756848Y-10627793D01*
X2756848Y-10627793D02*
X2804467Y-10627793D01*
X2804467Y-10627793D02*
X2823515Y-10618270D01*
X2918753Y-10570650D02*
X2918753Y-10770650D01*
X2918753Y-10580174D02*
X2937801Y-10570650D01*
X2937801Y-10570650D02*
X2975896Y-10570650D01*
X2975896Y-10570650D02*
X2994943Y-10580174D01*
X2994943Y-10580174D02*
X3004467Y-10589698D01*
X3004467Y-10589698D02*
X3013991Y-10608746D01*
X3013991Y-10608746D02*
X3013991Y-10665889D01*
X3013991Y-10665889D02*
X3004467Y-10684936D01*
X3004467Y-10684936D02*
X2994943Y-10694460D01*
X2994943Y-10694460D02*
X2975896Y-10703984D01*
X2975896Y-10703984D02*
X2937801Y-10703984D01*
X2937801Y-10703984D02*
X2918753Y-10694460D01*
X3099705Y-10684936D02*
X3109229Y-10694460D01*
X3109229Y-10694460D02*
X3099705Y-10703984D01*
X3099705Y-10703984D02*
X3090182Y-10694460D01*
X3090182Y-10694460D02*
X3099705Y-10684936D01*
X3099705Y-10684936D02*
X3099705Y-10703984D01*
X3099705Y-10580174D02*
X3109229Y-10589698D01*
X3109229Y-10589698D02*
X3099705Y-10599222D01*
X3099705Y-10599222D02*
X3090182Y-10589698D01*
X3090182Y-10589698D02*
X3099705Y-10580174D01*
X3099705Y-10580174D02*
X3099705Y-10599222D01*
D12*
X1307500Y-10952500D02*
X1467500Y-11112500D01*
X1467500Y-10952500D02*
X1307500Y-11112500D01*
D11*
X1833039Y-11123984D02*
X1718753Y-11123984D01*
X1775896Y-11123984D02*
X1775896Y-10923984D01*
X1775896Y-10923984D02*
X1756848Y-10952555D01*
X1756848Y-10952555D02*
X1737801Y-10971603D01*
X1737801Y-10971603D02*
X1718753Y-10981127D01*
X1918753Y-11104936D02*
X1928277Y-11114460D01*
X1928277Y-11114460D02*
X1918753Y-11123984D01*
X1918753Y-11123984D02*
X1909229Y-11114460D01*
X1909229Y-11114460D02*
X1918753Y-11104936D01*
X1918753Y-11104936D02*
X1918753Y-11123984D01*
X2099705Y-10923984D02*
X2061610Y-10923984D01*
X2061610Y-10923984D02*
X2042562Y-10933508D01*
X2042562Y-10933508D02*
X2033039Y-10943031D01*
X2033039Y-10943031D02*
X2013991Y-10971603D01*
X2013991Y-10971603D02*
X2004467Y-11009698D01*
X2004467Y-11009698D02*
X2004467Y-11085889D01*
X2004467Y-11085889D02*
X2013991Y-11104936D01*
X2013991Y-11104936D02*
X2023515Y-11114460D01*
X2023515Y-11114460D02*
X2042562Y-11123984D01*
X2042562Y-11123984D02*
X2080658Y-11123984D01*
X2080658Y-11123984D02*
X2099705Y-11114460D01*
X2099705Y-11114460D02*
X2109229Y-11104936D01*
X2109229Y-11104936D02*
X2118753Y-11085889D01*
X2118753Y-11085889D02*
X2118753Y-11038270D01*
X2118753Y-11038270D02*
X2109229Y-11019222D01*
X2109229Y-11019222D02*
X2099705Y-11009698D01*
X2099705Y-11009698D02*
X2080658Y-11000174D01*
X2080658Y-11000174D02*
X2042562Y-11000174D01*
X2042562Y-11000174D02*
X2023515Y-11009698D01*
X2023515Y-11009698D02*
X2013991Y-11019222D01*
X2013991Y-11019222D02*
X2004467Y-11038270D01*
X2242563Y-10923984D02*
X2261610Y-10923984D01*
X2261610Y-10923984D02*
X2280658Y-10933508D01*
X2280658Y-10933508D02*
X2290182Y-10943031D01*
X2290182Y-10943031D02*
X2299705Y-10962079D01*
X2299705Y-10962079D02*
X2309229Y-11000174D01*
X2309229Y-11000174D02*
X2309229Y-11047793D01*
X2309229Y-11047793D02*
X2299705Y-11085889D01*
X2299705Y-11085889D02*
X2290182Y-11104936D01*
X2290182Y-11104936D02*
X2280658Y-11114460D01*
X2280658Y-11114460D02*
X2261610Y-11123984D01*
X2261610Y-11123984D02*
X2242563Y-11123984D01*
X2242563Y-11123984D02*
X2223515Y-11114460D01*
X2223515Y-11114460D02*
X2213991Y-11104936D01*
X2213991Y-11104936D02*
X2204467Y-11085889D01*
X2204467Y-11085889D02*
X2194944Y-11047793D01*
X2194944Y-11047793D02*
X2194944Y-11000174D01*
X2194944Y-11000174D02*
X2204467Y-10962079D01*
X2204467Y-10962079D02*
X2213991Y-10943031D01*
X2213991Y-10943031D02*
X2223515Y-10933508D01*
X2223515Y-10933508D02*
X2242563Y-10923984D01*
X2433039Y-10923984D02*
X2452086Y-10923984D01*
X2452086Y-10923984D02*
X2471134Y-10933508D01*
X2471134Y-10933508D02*
X2480658Y-10943031D01*
X2480658Y-10943031D02*
X2490182Y-10962079D01*
X2490182Y-10962079D02*
X2499705Y-11000174D01*
X2499705Y-11000174D02*
X2499705Y-11047793D01*
X2499705Y-11047793D02*
X2490182Y-11085889D01*
X2490182Y-11085889D02*
X2480658Y-11104936D01*
X2480658Y-11104936D02*
X2471134Y-11114460D01*
X2471134Y-11114460D02*
X2452086Y-11123984D01*
X2452086Y-11123984D02*
X2433039Y-11123984D01*
X2433039Y-11123984D02*
X2413991Y-11114460D01*
X2413991Y-11114460D02*
X2404467Y-11104936D01*
X2404467Y-11104936D02*
X2394944Y-11085889D01*
X2394944Y-11085889D02*
X2385420Y-11047793D01*
X2385420Y-11047793D02*
X2385420Y-11000174D01*
X2385420Y-11000174D02*
X2394944Y-10962079D01*
X2394944Y-10962079D02*
X2404467Y-10943031D01*
X2404467Y-10943031D02*
X2413991Y-10933508D01*
X2413991Y-10933508D02*
X2433039Y-10923984D01*
X2585420Y-11123984D02*
X2585420Y-10990650D01*
X2585420Y-11009698D02*
X2594944Y-11000174D01*
X2594944Y-11000174D02*
X2613991Y-10990650D01*
X2613991Y-10990650D02*
X2642563Y-10990650D01*
X2642563Y-10990650D02*
X2661610Y-11000174D01*
X2661610Y-11000174D02*
X2671134Y-11019222D01*
X2671134Y-11019222D02*
X2671134Y-11123984D01*
X2671134Y-11019222D02*
X2680658Y-11000174D01*
X2680658Y-11000174D02*
X2699705Y-10990650D01*
X2699705Y-10990650D02*
X2728277Y-10990650D01*
X2728277Y-10990650D02*
X2747325Y-11000174D01*
X2747325Y-11000174D02*
X2756848Y-11019222D01*
X2756848Y-11019222D02*
X2756848Y-11123984D01*
X2852086Y-11123984D02*
X2852086Y-10990650D01*
X2852086Y-11009698D02*
X2861610Y-11000174D01*
X2861610Y-11000174D02*
X2880658Y-10990650D01*
X2880658Y-10990650D02*
X2909229Y-10990650D01*
X2909229Y-10990650D02*
X2928277Y-11000174D01*
X2928277Y-11000174D02*
X2937801Y-11019222D01*
X2937801Y-11019222D02*
X2937801Y-11123984D01*
X2937801Y-11019222D02*
X2947324Y-11000174D01*
X2947324Y-11000174D02*
X2966372Y-10990650D01*
X2966372Y-10990650D02*
X2994943Y-10990650D01*
X2994943Y-10990650D02*
X3013991Y-11000174D01*
X3013991Y-11000174D02*
X3023515Y-11019222D01*
X3023515Y-11019222D02*
X3023515Y-11123984D01*
X3413991Y-10914460D02*
X3242563Y-11171603D01*
X3671134Y-10923984D02*
X3690182Y-10923984D01*
X3690182Y-10923984D02*
X3709229Y-10933508D01*
X3709229Y-10933508D02*
X3718753Y-10943031D01*
X3718753Y-10943031D02*
X3728277Y-10962079D01*
X3728277Y-10962079D02*
X3737801Y-11000174D01*
X3737801Y-11000174D02*
X3737801Y-11047793D01*
X3737801Y-11047793D02*
X3728277Y-11085889D01*
X3728277Y-11085889D02*
X3718753Y-11104936D01*
X3718753Y-11104936D02*
X3709229Y-11114460D01*
X3709229Y-11114460D02*
X3690182Y-11123984D01*
X3690182Y-11123984D02*
X3671134Y-11123984D01*
X3671134Y-11123984D02*
X3652086Y-11114460D01*
X3652086Y-11114460D02*
X3642563Y-11104936D01*
X3642563Y-11104936D02*
X3633039Y-11085889D01*
X3633039Y-11085889D02*
X3623515Y-11047793D01*
X3623515Y-11047793D02*
X3623515Y-11000174D01*
X3623515Y-11000174D02*
X3633039Y-10962079D01*
X3633039Y-10962079D02*
X3642563Y-10943031D01*
X3642563Y-10943031D02*
X3652086Y-10933508D01*
X3652086Y-10933508D02*
X3671134Y-10923984D01*
X3823515Y-11104936D02*
X3833039Y-11114460D01*
X3833039Y-11114460D02*
X3823515Y-11123984D01*
X3823515Y-11123984D02*
X3813991Y-11114460D01*
X3813991Y-11114460D02*
X3823515Y-11104936D01*
X3823515Y-11104936D02*
X3823515Y-11123984D01*
X3956848Y-10923984D02*
X3975896Y-10923984D01*
X3975896Y-10923984D02*
X3994944Y-10933508D01*
X3994944Y-10933508D02*
X4004467Y-10943031D01*
X4004467Y-10943031D02*
X4013991Y-10962079D01*
X4013991Y-10962079D02*
X4023515Y-11000174D01*
X4023515Y-11000174D02*
X4023515Y-11047793D01*
X4023515Y-11047793D02*
X4013991Y-11085889D01*
X4013991Y-11085889D02*
X4004467Y-11104936D01*
X4004467Y-11104936D02*
X3994944Y-11114460D01*
X3994944Y-11114460D02*
X3975896Y-11123984D01*
X3975896Y-11123984D02*
X3956848Y-11123984D01*
X3956848Y-11123984D02*
X3937801Y-11114460D01*
X3937801Y-11114460D02*
X3928277Y-11104936D01*
X3928277Y-11104936D02*
X3918753Y-11085889D01*
X3918753Y-11085889D02*
X3909229Y-11047793D01*
X3909229Y-11047793D02*
X3909229Y-11000174D01*
X3909229Y-11000174D02*
X3918753Y-10962079D01*
X3918753Y-10962079D02*
X3928277Y-10943031D01*
X3928277Y-10943031D02*
X3937801Y-10933508D01*
X3937801Y-10933508D02*
X3956848Y-10923984D01*
X4194944Y-10923984D02*
X4156848Y-10923984D01*
X4156848Y-10923984D02*
X4137801Y-10933508D01*
X4137801Y-10933508D02*
X4128277Y-10943031D01*
X4128277Y-10943031D02*
X4109229Y-10971603D01*
X4109229Y-10971603D02*
X4099706Y-11009698D01*
X4099706Y-11009698D02*
X4099706Y-11085889D01*
X4099706Y-11085889D02*
X4109229Y-11104936D01*
X4109229Y-11104936D02*
X4118753Y-11114460D01*
X4118753Y-11114460D02*
X4137801Y-11123984D01*
X4137801Y-11123984D02*
X4175896Y-11123984D01*
X4175896Y-11123984D02*
X4194944Y-11114460D01*
X4194944Y-11114460D02*
X4204468Y-11104936D01*
X4204468Y-11104936D02*
X4213991Y-11085889D01*
X4213991Y-11085889D02*
X4213991Y-11038270D01*
X4213991Y-11038270D02*
X4204468Y-11019222D01*
X4204468Y-11019222D02*
X4194944Y-11009698D01*
X4194944Y-11009698D02*
X4175896Y-11000174D01*
X4175896Y-11000174D02*
X4137801Y-11000174D01*
X4137801Y-11000174D02*
X4118753Y-11009698D01*
X4118753Y-11009698D02*
X4109229Y-11019222D01*
X4109229Y-11019222D02*
X4099706Y-11038270D01*
X4280658Y-10923984D02*
X4404468Y-10923984D01*
X4404468Y-10923984D02*
X4337801Y-11000174D01*
X4337801Y-11000174D02*
X4366372Y-11000174D01*
X4366372Y-11000174D02*
X4385420Y-11009698D01*
X4385420Y-11009698D02*
X4394944Y-11019222D01*
X4394944Y-11019222D02*
X4404468Y-11038270D01*
X4404468Y-11038270D02*
X4404468Y-11085889D01*
X4404468Y-11085889D02*
X4394944Y-11104936D01*
X4394944Y-11104936D02*
X4385420Y-11114460D01*
X4385420Y-11114460D02*
X4366372Y-11123984D01*
X4366372Y-11123984D02*
X4309229Y-11123984D01*
X4309229Y-11123984D02*
X4290182Y-11114460D01*
X4290182Y-11114460D02*
X4280658Y-11104936D01*
X4528277Y-10923984D02*
X4547325Y-10923984D01*
X4547325Y-10923984D02*
X4566372Y-10933508D01*
X4566372Y-10933508D02*
X4575896Y-10943031D01*
X4575896Y-10943031D02*
X4585420Y-10962079D01*
X4585420Y-10962079D02*
X4594944Y-11000174D01*
X4594944Y-11000174D02*
X4594944Y-11047793D01*
X4594944Y-11047793D02*
X4585420Y-11085889D01*
X4585420Y-11085889D02*
X4575896Y-11104936D01*
X4575896Y-11104936D02*
X4566372Y-11114460D01*
X4566372Y-11114460D02*
X4547325Y-11123984D01*
X4547325Y-11123984D02*
X4528277Y-11123984D01*
X4528277Y-11123984D02*
X4509229Y-11114460D01*
X4509229Y-11114460D02*
X4499706Y-11104936D01*
X4499706Y-11104936D02*
X4490182Y-11085889D01*
X4490182Y-11085889D02*
X4480658Y-11047793D01*
X4480658Y-11047793D02*
X4480658Y-11000174D01*
X4480658Y-11000174D02*
X4490182Y-10962079D01*
X4490182Y-10962079D02*
X4499706Y-10943031D01*
X4499706Y-10943031D02*
X4509229Y-10933508D01*
X4509229Y-10933508D02*
X4528277Y-10923984D01*
X4671134Y-10923984D02*
X4671134Y-10962079D01*
X4747325Y-10923984D02*
X4747325Y-10962079D01*
X5042563Y-11200174D02*
X5033039Y-11190650D01*
X5033039Y-11190650D02*
X5013991Y-11162079D01*
X5013991Y-11162079D02*
X5004468Y-11143031D01*
X5004468Y-11143031D02*
X4994944Y-11114460D01*
X4994944Y-11114460D02*
X4985420Y-11066841D01*
X4985420Y-11066841D02*
X4985420Y-11028746D01*
X4985420Y-11028746D02*
X4994944Y-10981127D01*
X4994944Y-10981127D02*
X5004468Y-10952555D01*
X5004468Y-10952555D02*
X5013991Y-10933508D01*
X5013991Y-10933508D02*
X5033039Y-10904936D01*
X5033039Y-10904936D02*
X5042563Y-10895412D01*
X5223515Y-11123984D02*
X5109230Y-11123984D01*
X5166372Y-11123984D02*
X5166372Y-10923984D01*
X5166372Y-10923984D02*
X5147325Y-10952555D01*
X5147325Y-10952555D02*
X5128277Y-10971603D01*
X5128277Y-10971603D02*
X5109230Y-10981127D01*
X5394944Y-10923984D02*
X5356849Y-10923984D01*
X5356849Y-10923984D02*
X5337801Y-10933508D01*
X5337801Y-10933508D02*
X5328277Y-10943031D01*
X5328277Y-10943031D02*
X5309230Y-10971603D01*
X5309230Y-10971603D02*
X5299706Y-11009698D01*
X5299706Y-11009698D02*
X5299706Y-11085889D01*
X5299706Y-11085889D02*
X5309230Y-11104936D01*
X5309230Y-11104936D02*
X5318753Y-11114460D01*
X5318753Y-11114460D02*
X5337801Y-11123984D01*
X5337801Y-11123984D02*
X5375896Y-11123984D01*
X5375896Y-11123984D02*
X5394944Y-11114460D01*
X5394944Y-11114460D02*
X5404468Y-11104936D01*
X5404468Y-11104936D02*
X5413991Y-11085889D01*
X5413991Y-11085889D02*
X5413991Y-11038270D01*
X5413991Y-11038270D02*
X5404468Y-11019222D01*
X5404468Y-11019222D02*
X5394944Y-11009698D01*
X5394944Y-11009698D02*
X5375896Y-11000174D01*
X5375896Y-11000174D02*
X5337801Y-11000174D01*
X5337801Y-11000174D02*
X5318753Y-11009698D01*
X5318753Y-11009698D02*
X5309230Y-11019222D01*
X5309230Y-11019222D02*
X5299706Y-11038270D01*
X5652087Y-11123984D02*
X5652087Y-10923984D01*
X5737801Y-11123984D02*
X5737801Y-11019222D01*
X5737801Y-11019222D02*
X5728277Y-11000174D01*
X5728277Y-11000174D02*
X5709230Y-10990650D01*
X5709230Y-10990650D02*
X5680658Y-10990650D01*
X5680658Y-10990650D02*
X5661610Y-11000174D01*
X5661610Y-11000174D02*
X5652087Y-11009698D01*
X5861610Y-11123984D02*
X5842563Y-11114460D01*
X5842563Y-11114460D02*
X5833039Y-11104936D01*
X5833039Y-11104936D02*
X5823515Y-11085889D01*
X5823515Y-11085889D02*
X5823515Y-11028746D01*
X5823515Y-11028746D02*
X5833039Y-11009698D01*
X5833039Y-11009698D02*
X5842563Y-11000174D01*
X5842563Y-11000174D02*
X5861610Y-10990650D01*
X5861610Y-10990650D02*
X5890182Y-10990650D01*
X5890182Y-10990650D02*
X5909230Y-11000174D01*
X5909230Y-11000174D02*
X5918753Y-11009698D01*
X5918753Y-11009698D02*
X5928277Y-11028746D01*
X5928277Y-11028746D02*
X5928277Y-11085889D01*
X5928277Y-11085889D02*
X5918753Y-11104936D01*
X5918753Y-11104936D02*
X5909230Y-11114460D01*
X5909230Y-11114460D02*
X5890182Y-11123984D01*
X5890182Y-11123984D02*
X5861610Y-11123984D01*
X6042563Y-11123984D02*
X6023515Y-11114460D01*
X6023515Y-11114460D02*
X6013991Y-11095412D01*
X6013991Y-11095412D02*
X6013991Y-10923984D01*
X6194944Y-11114460D02*
X6175896Y-11123984D01*
X6175896Y-11123984D02*
X6137801Y-11123984D01*
X6137801Y-11123984D02*
X6118753Y-11114460D01*
X6118753Y-11114460D02*
X6109230Y-11095412D01*
X6109230Y-11095412D02*
X6109230Y-11019222D01*
X6109230Y-11019222D02*
X6118753Y-11000174D01*
X6118753Y-11000174D02*
X6137801Y-10990650D01*
X6137801Y-10990650D02*
X6175896Y-10990650D01*
X6175896Y-10990650D02*
X6194944Y-11000174D01*
X6194944Y-11000174D02*
X6204468Y-11019222D01*
X6204468Y-11019222D02*
X6204468Y-11038270D01*
X6204468Y-11038270D02*
X6109230Y-11057317D01*
X6280658Y-11114460D02*
X6299706Y-11123984D01*
X6299706Y-11123984D02*
X6337801Y-11123984D01*
X6337801Y-11123984D02*
X6356849Y-11114460D01*
X6356849Y-11114460D02*
X6366372Y-11095412D01*
X6366372Y-11095412D02*
X6366372Y-11085889D01*
X6366372Y-11085889D02*
X6356849Y-11066841D01*
X6356849Y-11066841D02*
X6337801Y-11057317D01*
X6337801Y-11057317D02*
X6309230Y-11057317D01*
X6309230Y-11057317D02*
X6290182Y-11047793D01*
X6290182Y-11047793D02*
X6280658Y-11028746D01*
X6280658Y-11028746D02*
X6280658Y-11019222D01*
X6280658Y-11019222D02*
X6290182Y-11000174D01*
X6290182Y-11000174D02*
X6309230Y-10990650D01*
X6309230Y-10990650D02*
X6337801Y-10990650D01*
X6337801Y-10990650D02*
X6356849Y-11000174D01*
X6433039Y-11200174D02*
X6442563Y-11190650D01*
X6442563Y-11190650D02*
X6461611Y-11162079D01*
X6461611Y-11162079D02*
X6471134Y-11143031D01*
X6471134Y-11143031D02*
X6480658Y-11114460D01*
X6480658Y-11114460D02*
X6490182Y-11066841D01*
X6490182Y-11066841D02*
X6490182Y-11028746D01*
X6490182Y-11028746D02*
X6480658Y-10981127D01*
X6480658Y-10981127D02*
X6471134Y-10952555D01*
X6471134Y-10952555D02*
X6461611Y-10933508D01*
X6461611Y-10933508D02*
X6442563Y-10904936D01*
X6442563Y-10904936D02*
X6433039Y-10895412D01*
M02*
