%TF.GenerationSoftware,KiCad,Pcbnew,8.0.5+1*%
%TF.CreationDate,2024-09-26T11:29:32-04:00*%
%TF.ProjectId,GRRCoaster,47525243-6f61-4737-9465-722e6b696361,rev?*%
%TF.SameCoordinates,Original*%
%TF.FileFunction,Drillmap*%
%TF.FilePolarity,Positive*%
%FSLAX45Y45*%
G04 Gerber Fmt 4.5, Leading zero omitted, Abs format (unit mm)*
G04 Created by KiCad (PCBNEW 8.0.5+1) date 2024-09-26 11:29:32*
%MOMM*%
%LPD*%
G01*
G04 APERTURE LIST*
%ADD10C,0.050000*%
%ADD11C,0.200000*%
%ADD12C,0.100000*%
G04 APERTURE END LIST*
D10*
X7683287Y-4700000D02*
G75*
G02*
X1716713Y-4700000I-2983287J0D01*
G01*
X1716713Y-4700000D02*
G75*
G02*
X7683287Y-4700000I2983287J0D01*
G01*
D11*
D12*
X2500000Y-5450000D02*
X2600000Y-5550000D01*
X2600000Y-5450000D02*
X2500000Y-5550000D01*
X2730000Y-5200000D02*
X2830000Y-5300000D01*
X2830000Y-5200000D02*
X2730000Y-5300000D01*
X2860000Y-6010000D02*
X2960000Y-6110000D01*
X2960000Y-6010000D02*
X2860000Y-6110000D01*
X3240000Y-4630000D02*
X3340000Y-4730000D01*
X3340000Y-4630000D02*
X3240000Y-4730000D01*
X3290000Y-6370000D02*
X3390000Y-6470000D01*
X3390000Y-6370000D02*
X3290000Y-6470000D01*
X3510000Y-5330000D02*
X3610000Y-5430000D01*
X3610000Y-5330000D02*
X3510000Y-5430000D01*
X3540000Y-4370000D02*
X3640000Y-4470000D01*
X3640000Y-4370000D02*
X3540000Y-4470000D01*
X3840000Y-5670000D02*
X3940000Y-5770000D01*
X3940000Y-5670000D02*
X3840000Y-5770000D01*
X4120000Y-4950000D02*
X4220000Y-5050000D01*
X4220000Y-4950000D02*
X4120000Y-5050000D01*
X4150000Y-6010000D02*
X4250000Y-6110000D01*
X4250000Y-6010000D02*
X4150000Y-6110000D01*
X4270000Y-5550000D02*
X4370000Y-5650000D01*
X4370000Y-5550000D02*
X4270000Y-5650000D01*
X4500000Y-6280000D02*
X4600000Y-6380000D01*
X4600000Y-6280000D02*
X4500000Y-6380000D01*
X4590000Y-6950000D02*
X4690000Y-7050000D01*
X4690000Y-6950000D02*
X4590000Y-7050000D01*
X5120000Y-6890000D02*
X5220000Y-6990000D01*
X5220000Y-6890000D02*
X5120000Y-6990000D01*
X5530000Y-6800000D02*
X5630000Y-6900000D01*
X5630000Y-6800000D02*
X5530000Y-6900000D01*
X5880000Y-6600000D02*
X5980000Y-6700000D01*
X5980000Y-6600000D02*
X5880000Y-6700000D01*
D11*
X1974990Y-7997271D02*
X1974990Y-7797271D01*
X1974990Y-7797271D02*
X2022609Y-7797271D01*
X2022609Y-7797271D02*
X2051180Y-7806794D01*
X2051180Y-7806794D02*
X2070228Y-7825842D01*
X2070228Y-7825842D02*
X2079752Y-7844890D01*
X2079752Y-7844890D02*
X2089276Y-7882985D01*
X2089276Y-7882985D02*
X2089276Y-7911556D01*
X2089276Y-7911556D02*
X2079752Y-7949651D01*
X2079752Y-7949651D02*
X2070228Y-7968699D01*
X2070228Y-7968699D02*
X2051180Y-7987747D01*
X2051180Y-7987747D02*
X2022609Y-7997271D01*
X2022609Y-7997271D02*
X1974990Y-7997271D01*
X2174990Y-7997271D02*
X2174990Y-7863937D01*
X2174990Y-7902032D02*
X2184514Y-7882985D01*
X2184514Y-7882985D02*
X2194038Y-7873461D01*
X2194038Y-7873461D02*
X2213085Y-7863937D01*
X2213085Y-7863937D02*
X2232133Y-7863937D01*
X2298800Y-7997271D02*
X2298800Y-7863937D01*
X2298800Y-7797271D02*
X2289276Y-7806794D01*
X2289276Y-7806794D02*
X2298800Y-7816318D01*
X2298800Y-7816318D02*
X2308323Y-7806794D01*
X2308323Y-7806794D02*
X2298800Y-7797271D01*
X2298800Y-7797271D02*
X2298800Y-7816318D01*
X2422609Y-7997271D02*
X2403561Y-7987747D01*
X2403561Y-7987747D02*
X2394038Y-7968699D01*
X2394038Y-7968699D02*
X2394038Y-7797271D01*
X2527371Y-7997271D02*
X2508323Y-7987747D01*
X2508323Y-7987747D02*
X2498800Y-7968699D01*
X2498800Y-7968699D02*
X2498800Y-7797271D01*
X2755942Y-7997271D02*
X2755942Y-7797271D01*
X2755942Y-7797271D02*
X2822609Y-7940128D01*
X2822609Y-7940128D02*
X2889276Y-7797271D01*
X2889276Y-7797271D02*
X2889276Y-7997271D01*
X3070228Y-7997271D02*
X3070228Y-7892509D01*
X3070228Y-7892509D02*
X3060704Y-7873461D01*
X3060704Y-7873461D02*
X3041657Y-7863937D01*
X3041657Y-7863937D02*
X3003561Y-7863937D01*
X3003561Y-7863937D02*
X2984514Y-7873461D01*
X3070228Y-7987747D02*
X3051180Y-7997271D01*
X3051180Y-7997271D02*
X3003561Y-7997271D01*
X3003561Y-7997271D02*
X2984514Y-7987747D01*
X2984514Y-7987747D02*
X2974990Y-7968699D01*
X2974990Y-7968699D02*
X2974990Y-7949651D01*
X2974990Y-7949651D02*
X2984514Y-7930604D01*
X2984514Y-7930604D02*
X3003561Y-7921080D01*
X3003561Y-7921080D02*
X3051180Y-7921080D01*
X3051180Y-7921080D02*
X3070228Y-7911556D01*
X3165466Y-7863937D02*
X3165466Y-8063937D01*
X3165466Y-7873461D02*
X3184514Y-7863937D01*
X3184514Y-7863937D02*
X3222609Y-7863937D01*
X3222609Y-7863937D02*
X3241657Y-7873461D01*
X3241657Y-7873461D02*
X3251180Y-7882985D01*
X3251180Y-7882985D02*
X3260704Y-7902032D01*
X3260704Y-7902032D02*
X3260704Y-7959175D01*
X3260704Y-7959175D02*
X3251180Y-7978223D01*
X3251180Y-7978223D02*
X3241657Y-7987747D01*
X3241657Y-7987747D02*
X3222609Y-7997271D01*
X3222609Y-7997271D02*
X3184514Y-7997271D01*
X3184514Y-7997271D02*
X3165466Y-7987747D01*
X3346419Y-7978223D02*
X3355942Y-7987747D01*
X3355942Y-7987747D02*
X3346419Y-7997271D01*
X3346419Y-7997271D02*
X3336895Y-7987747D01*
X3336895Y-7987747D02*
X3346419Y-7978223D01*
X3346419Y-7978223D02*
X3346419Y-7997271D01*
X3346419Y-7873461D02*
X3355942Y-7882985D01*
X3355942Y-7882985D02*
X3346419Y-7892509D01*
X3346419Y-7892509D02*
X3336895Y-7882985D01*
X3336895Y-7882985D02*
X3346419Y-7873461D01*
X3346419Y-7873461D02*
X3346419Y-7892509D01*
D12*
X1614213Y-8275787D02*
X1714213Y-8375787D01*
X1714213Y-8275787D02*
X1614213Y-8375787D01*
D11*
X2079752Y-8417271D02*
X1965466Y-8417271D01*
X2022609Y-8417271D02*
X2022609Y-8217271D01*
X2022609Y-8217271D02*
X2003561Y-8245842D01*
X2003561Y-8245842D02*
X1984514Y-8264890D01*
X1984514Y-8264890D02*
X1965466Y-8274413D01*
X2165466Y-8398223D02*
X2174990Y-8407747D01*
X2174990Y-8407747D02*
X2165466Y-8417271D01*
X2165466Y-8417271D02*
X2155942Y-8407747D01*
X2155942Y-8407747D02*
X2165466Y-8398223D01*
X2165466Y-8398223D02*
X2165466Y-8417271D01*
X2298800Y-8217271D02*
X2317847Y-8217271D01*
X2317847Y-8217271D02*
X2336895Y-8226794D01*
X2336895Y-8226794D02*
X2346419Y-8236318D01*
X2346419Y-8236318D02*
X2355942Y-8255366D01*
X2355942Y-8255366D02*
X2365466Y-8293461D01*
X2365466Y-8293461D02*
X2365466Y-8341080D01*
X2365466Y-8341080D02*
X2355942Y-8379175D01*
X2355942Y-8379175D02*
X2346419Y-8398223D01*
X2346419Y-8398223D02*
X2336895Y-8407747D01*
X2336895Y-8407747D02*
X2317847Y-8417271D01*
X2317847Y-8417271D02*
X2298800Y-8417271D01*
X2298800Y-8417271D02*
X2279752Y-8407747D01*
X2279752Y-8407747D02*
X2270228Y-8398223D01*
X2270228Y-8398223D02*
X2260704Y-8379175D01*
X2260704Y-8379175D02*
X2251181Y-8341080D01*
X2251181Y-8341080D02*
X2251181Y-8293461D01*
X2251181Y-8293461D02*
X2260704Y-8255366D01*
X2260704Y-8255366D02*
X2270228Y-8236318D01*
X2270228Y-8236318D02*
X2279752Y-8226794D01*
X2279752Y-8226794D02*
X2298800Y-8217271D01*
X2489276Y-8217271D02*
X2508323Y-8217271D01*
X2508323Y-8217271D02*
X2527371Y-8226794D01*
X2527371Y-8226794D02*
X2536895Y-8236318D01*
X2536895Y-8236318D02*
X2546419Y-8255366D01*
X2546419Y-8255366D02*
X2555942Y-8293461D01*
X2555942Y-8293461D02*
X2555942Y-8341080D01*
X2555942Y-8341080D02*
X2546419Y-8379175D01*
X2546419Y-8379175D02*
X2536895Y-8398223D01*
X2536895Y-8398223D02*
X2527371Y-8407747D01*
X2527371Y-8407747D02*
X2508323Y-8417271D01*
X2508323Y-8417271D02*
X2489276Y-8417271D01*
X2489276Y-8417271D02*
X2470228Y-8407747D01*
X2470228Y-8407747D02*
X2460704Y-8398223D01*
X2460704Y-8398223D02*
X2451181Y-8379175D01*
X2451181Y-8379175D02*
X2441657Y-8341080D01*
X2441657Y-8341080D02*
X2441657Y-8293461D01*
X2441657Y-8293461D02*
X2451181Y-8255366D01*
X2451181Y-8255366D02*
X2460704Y-8236318D01*
X2460704Y-8236318D02*
X2470228Y-8226794D01*
X2470228Y-8226794D02*
X2489276Y-8217271D01*
X2679752Y-8217271D02*
X2698800Y-8217271D01*
X2698800Y-8217271D02*
X2717847Y-8226794D01*
X2717847Y-8226794D02*
X2727371Y-8236318D01*
X2727371Y-8236318D02*
X2736895Y-8255366D01*
X2736895Y-8255366D02*
X2746419Y-8293461D01*
X2746419Y-8293461D02*
X2746419Y-8341080D01*
X2746419Y-8341080D02*
X2736895Y-8379175D01*
X2736895Y-8379175D02*
X2727371Y-8398223D01*
X2727371Y-8398223D02*
X2717847Y-8407747D01*
X2717847Y-8407747D02*
X2698800Y-8417271D01*
X2698800Y-8417271D02*
X2679752Y-8417271D01*
X2679752Y-8417271D02*
X2660704Y-8407747D01*
X2660704Y-8407747D02*
X2651181Y-8398223D01*
X2651181Y-8398223D02*
X2641657Y-8379175D01*
X2641657Y-8379175D02*
X2632133Y-8341080D01*
X2632133Y-8341080D02*
X2632133Y-8293461D01*
X2632133Y-8293461D02*
X2641657Y-8255366D01*
X2641657Y-8255366D02*
X2651181Y-8236318D01*
X2651181Y-8236318D02*
X2660704Y-8226794D01*
X2660704Y-8226794D02*
X2679752Y-8217271D01*
X2832133Y-8417271D02*
X2832133Y-8283937D01*
X2832133Y-8302985D02*
X2841657Y-8293461D01*
X2841657Y-8293461D02*
X2860704Y-8283937D01*
X2860704Y-8283937D02*
X2889276Y-8283937D01*
X2889276Y-8283937D02*
X2908323Y-8293461D01*
X2908323Y-8293461D02*
X2917847Y-8312509D01*
X2917847Y-8312509D02*
X2917847Y-8417271D01*
X2917847Y-8312509D02*
X2927371Y-8293461D01*
X2927371Y-8293461D02*
X2946419Y-8283937D01*
X2946419Y-8283937D02*
X2974990Y-8283937D01*
X2974990Y-8283937D02*
X2994038Y-8293461D01*
X2994038Y-8293461D02*
X3003561Y-8312509D01*
X3003561Y-8312509D02*
X3003561Y-8417271D01*
X3098800Y-8417271D02*
X3098800Y-8283937D01*
X3098800Y-8302985D02*
X3108323Y-8293461D01*
X3108323Y-8293461D02*
X3127371Y-8283937D01*
X3127371Y-8283937D02*
X3155942Y-8283937D01*
X3155942Y-8283937D02*
X3174990Y-8293461D01*
X3174990Y-8293461D02*
X3184514Y-8312509D01*
X3184514Y-8312509D02*
X3184514Y-8417271D01*
X3184514Y-8312509D02*
X3194038Y-8293461D01*
X3194038Y-8293461D02*
X3213085Y-8283937D01*
X3213085Y-8283937D02*
X3241657Y-8283937D01*
X3241657Y-8283937D02*
X3260704Y-8293461D01*
X3260704Y-8293461D02*
X3270228Y-8312509D01*
X3270228Y-8312509D02*
X3270228Y-8417271D01*
X3660704Y-8207747D02*
X3489276Y-8464890D01*
X3917847Y-8217271D02*
X3936895Y-8217271D01*
X3936895Y-8217271D02*
X3955943Y-8226794D01*
X3955943Y-8226794D02*
X3965466Y-8236318D01*
X3965466Y-8236318D02*
X3974990Y-8255366D01*
X3974990Y-8255366D02*
X3984514Y-8293461D01*
X3984514Y-8293461D02*
X3984514Y-8341080D01*
X3984514Y-8341080D02*
X3974990Y-8379175D01*
X3974990Y-8379175D02*
X3965466Y-8398223D01*
X3965466Y-8398223D02*
X3955943Y-8407747D01*
X3955943Y-8407747D02*
X3936895Y-8417271D01*
X3936895Y-8417271D02*
X3917847Y-8417271D01*
X3917847Y-8417271D02*
X3898800Y-8407747D01*
X3898800Y-8407747D02*
X3889276Y-8398223D01*
X3889276Y-8398223D02*
X3879752Y-8379175D01*
X3879752Y-8379175D02*
X3870228Y-8341080D01*
X3870228Y-8341080D02*
X3870228Y-8293461D01*
X3870228Y-8293461D02*
X3879752Y-8255366D01*
X3879752Y-8255366D02*
X3889276Y-8236318D01*
X3889276Y-8236318D02*
X3898800Y-8226794D01*
X3898800Y-8226794D02*
X3917847Y-8217271D01*
X4070228Y-8398223D02*
X4079752Y-8407747D01*
X4079752Y-8407747D02*
X4070228Y-8417271D01*
X4070228Y-8417271D02*
X4060704Y-8407747D01*
X4060704Y-8407747D02*
X4070228Y-8398223D01*
X4070228Y-8398223D02*
X4070228Y-8417271D01*
X4203562Y-8217271D02*
X4222609Y-8217271D01*
X4222609Y-8217271D02*
X4241657Y-8226794D01*
X4241657Y-8226794D02*
X4251181Y-8236318D01*
X4251181Y-8236318D02*
X4260705Y-8255366D01*
X4260705Y-8255366D02*
X4270228Y-8293461D01*
X4270228Y-8293461D02*
X4270228Y-8341080D01*
X4270228Y-8341080D02*
X4260705Y-8379175D01*
X4260705Y-8379175D02*
X4251181Y-8398223D01*
X4251181Y-8398223D02*
X4241657Y-8407747D01*
X4241657Y-8407747D02*
X4222609Y-8417271D01*
X4222609Y-8417271D02*
X4203562Y-8417271D01*
X4203562Y-8417271D02*
X4184514Y-8407747D01*
X4184514Y-8407747D02*
X4174990Y-8398223D01*
X4174990Y-8398223D02*
X4165466Y-8379175D01*
X4165466Y-8379175D02*
X4155943Y-8341080D01*
X4155943Y-8341080D02*
X4155943Y-8293461D01*
X4155943Y-8293461D02*
X4165466Y-8255366D01*
X4165466Y-8255366D02*
X4174990Y-8236318D01*
X4174990Y-8236318D02*
X4184514Y-8226794D01*
X4184514Y-8226794D02*
X4203562Y-8217271D01*
X4336895Y-8217271D02*
X4460705Y-8217271D01*
X4460705Y-8217271D02*
X4394038Y-8293461D01*
X4394038Y-8293461D02*
X4422609Y-8293461D01*
X4422609Y-8293461D02*
X4441657Y-8302985D01*
X4441657Y-8302985D02*
X4451181Y-8312509D01*
X4451181Y-8312509D02*
X4460705Y-8331556D01*
X4460705Y-8331556D02*
X4460705Y-8379175D01*
X4460705Y-8379175D02*
X4451181Y-8398223D01*
X4451181Y-8398223D02*
X4441657Y-8407747D01*
X4441657Y-8407747D02*
X4422609Y-8417271D01*
X4422609Y-8417271D02*
X4365466Y-8417271D01*
X4365466Y-8417271D02*
X4346419Y-8407747D01*
X4346419Y-8407747D02*
X4336895Y-8398223D01*
X4555943Y-8417271D02*
X4594038Y-8417271D01*
X4594038Y-8417271D02*
X4613086Y-8407747D01*
X4613086Y-8407747D02*
X4622609Y-8398223D01*
X4622609Y-8398223D02*
X4641657Y-8369651D01*
X4641657Y-8369651D02*
X4651181Y-8331556D01*
X4651181Y-8331556D02*
X4651181Y-8255366D01*
X4651181Y-8255366D02*
X4641657Y-8236318D01*
X4641657Y-8236318D02*
X4632133Y-8226794D01*
X4632133Y-8226794D02*
X4613086Y-8217271D01*
X4613086Y-8217271D02*
X4574990Y-8217271D01*
X4574990Y-8217271D02*
X4555943Y-8226794D01*
X4555943Y-8226794D02*
X4546419Y-8236318D01*
X4546419Y-8236318D02*
X4536895Y-8255366D01*
X4536895Y-8255366D02*
X4536895Y-8302985D01*
X4536895Y-8302985D02*
X4546419Y-8322032D01*
X4546419Y-8322032D02*
X4555943Y-8331556D01*
X4555943Y-8331556D02*
X4574990Y-8341080D01*
X4574990Y-8341080D02*
X4613086Y-8341080D01*
X4613086Y-8341080D02*
X4632133Y-8331556D01*
X4632133Y-8331556D02*
X4641657Y-8322032D01*
X4641657Y-8322032D02*
X4651181Y-8302985D01*
X4822609Y-8283937D02*
X4822609Y-8417271D01*
X4774990Y-8207747D02*
X4727371Y-8350604D01*
X4727371Y-8350604D02*
X4851181Y-8350604D01*
X4917847Y-8217271D02*
X4917847Y-8255366D01*
X4994038Y-8217271D02*
X4994038Y-8255366D01*
X5289276Y-8493461D02*
X5279752Y-8483937D01*
X5279752Y-8483937D02*
X5260705Y-8455366D01*
X5260705Y-8455366D02*
X5251181Y-8436318D01*
X5251181Y-8436318D02*
X5241657Y-8407747D01*
X5241657Y-8407747D02*
X5232133Y-8360128D01*
X5232133Y-8360128D02*
X5232133Y-8322032D01*
X5232133Y-8322032D02*
X5241657Y-8274413D01*
X5241657Y-8274413D02*
X5251181Y-8245842D01*
X5251181Y-8245842D02*
X5260705Y-8226794D01*
X5260705Y-8226794D02*
X5279752Y-8198223D01*
X5279752Y-8198223D02*
X5289276Y-8188699D01*
X5470228Y-8417271D02*
X5355943Y-8417271D01*
X5413086Y-8417271D02*
X5413086Y-8217271D01*
X5413086Y-8217271D02*
X5394038Y-8245842D01*
X5394038Y-8245842D02*
X5374990Y-8264890D01*
X5374990Y-8264890D02*
X5355943Y-8274413D01*
X5641657Y-8217271D02*
X5603562Y-8217271D01*
X5603562Y-8217271D02*
X5584514Y-8226794D01*
X5584514Y-8226794D02*
X5574990Y-8236318D01*
X5574990Y-8236318D02*
X5555943Y-8264890D01*
X5555943Y-8264890D02*
X5546419Y-8302985D01*
X5546419Y-8302985D02*
X5546419Y-8379175D01*
X5546419Y-8379175D02*
X5555943Y-8398223D01*
X5555943Y-8398223D02*
X5565467Y-8407747D01*
X5565467Y-8407747D02*
X5584514Y-8417271D01*
X5584514Y-8417271D02*
X5622609Y-8417271D01*
X5622609Y-8417271D02*
X5641657Y-8407747D01*
X5641657Y-8407747D02*
X5651181Y-8398223D01*
X5651181Y-8398223D02*
X5660705Y-8379175D01*
X5660705Y-8379175D02*
X5660705Y-8331556D01*
X5660705Y-8331556D02*
X5651181Y-8312509D01*
X5651181Y-8312509D02*
X5641657Y-8302985D01*
X5641657Y-8302985D02*
X5622609Y-8293461D01*
X5622609Y-8293461D02*
X5584514Y-8293461D01*
X5584514Y-8293461D02*
X5565467Y-8302985D01*
X5565467Y-8302985D02*
X5555943Y-8312509D01*
X5555943Y-8312509D02*
X5546419Y-8331556D01*
X5898800Y-8417271D02*
X5898800Y-8217271D01*
X5984514Y-8417271D02*
X5984514Y-8312509D01*
X5984514Y-8312509D02*
X5974990Y-8293461D01*
X5974990Y-8293461D02*
X5955943Y-8283937D01*
X5955943Y-8283937D02*
X5927371Y-8283937D01*
X5927371Y-8283937D02*
X5908324Y-8293461D01*
X5908324Y-8293461D02*
X5898800Y-8302985D01*
X6108324Y-8417271D02*
X6089276Y-8407747D01*
X6089276Y-8407747D02*
X6079752Y-8398223D01*
X6079752Y-8398223D02*
X6070228Y-8379175D01*
X6070228Y-8379175D02*
X6070228Y-8322032D01*
X6070228Y-8322032D02*
X6079752Y-8302985D01*
X6079752Y-8302985D02*
X6089276Y-8293461D01*
X6089276Y-8293461D02*
X6108324Y-8283937D01*
X6108324Y-8283937D02*
X6136895Y-8283937D01*
X6136895Y-8283937D02*
X6155943Y-8293461D01*
X6155943Y-8293461D02*
X6165467Y-8302985D01*
X6165467Y-8302985D02*
X6174990Y-8322032D01*
X6174990Y-8322032D02*
X6174990Y-8379175D01*
X6174990Y-8379175D02*
X6165467Y-8398223D01*
X6165467Y-8398223D02*
X6155943Y-8407747D01*
X6155943Y-8407747D02*
X6136895Y-8417271D01*
X6136895Y-8417271D02*
X6108324Y-8417271D01*
X6289276Y-8417271D02*
X6270228Y-8407747D01*
X6270228Y-8407747D02*
X6260705Y-8388699D01*
X6260705Y-8388699D02*
X6260705Y-8217271D01*
X6441657Y-8407747D02*
X6422609Y-8417271D01*
X6422609Y-8417271D02*
X6384514Y-8417271D01*
X6384514Y-8417271D02*
X6365467Y-8407747D01*
X6365467Y-8407747D02*
X6355943Y-8388699D01*
X6355943Y-8388699D02*
X6355943Y-8312509D01*
X6355943Y-8312509D02*
X6365467Y-8293461D01*
X6365467Y-8293461D02*
X6384514Y-8283937D01*
X6384514Y-8283937D02*
X6422609Y-8283937D01*
X6422609Y-8283937D02*
X6441657Y-8293461D01*
X6441657Y-8293461D02*
X6451181Y-8312509D01*
X6451181Y-8312509D02*
X6451181Y-8331556D01*
X6451181Y-8331556D02*
X6355943Y-8350604D01*
X6527371Y-8407747D02*
X6546419Y-8417271D01*
X6546419Y-8417271D02*
X6584514Y-8417271D01*
X6584514Y-8417271D02*
X6603562Y-8407747D01*
X6603562Y-8407747D02*
X6613086Y-8388699D01*
X6613086Y-8388699D02*
X6613086Y-8379175D01*
X6613086Y-8379175D02*
X6603562Y-8360128D01*
X6603562Y-8360128D02*
X6584514Y-8350604D01*
X6584514Y-8350604D02*
X6555943Y-8350604D01*
X6555943Y-8350604D02*
X6536895Y-8341080D01*
X6536895Y-8341080D02*
X6527371Y-8322032D01*
X6527371Y-8322032D02*
X6527371Y-8312509D01*
X6527371Y-8312509D02*
X6536895Y-8293461D01*
X6536895Y-8293461D02*
X6555943Y-8283937D01*
X6555943Y-8283937D02*
X6584514Y-8283937D01*
X6584514Y-8283937D02*
X6603562Y-8293461D01*
X6679752Y-8493461D02*
X6689276Y-8483937D01*
X6689276Y-8483937D02*
X6708324Y-8455366D01*
X6708324Y-8455366D02*
X6717848Y-8436318D01*
X6717848Y-8436318D02*
X6727371Y-8407747D01*
X6727371Y-8407747D02*
X6736895Y-8360128D01*
X6736895Y-8360128D02*
X6736895Y-8322032D01*
X6736895Y-8322032D02*
X6727371Y-8274413D01*
X6727371Y-8274413D02*
X6717848Y-8245842D01*
X6717848Y-8245842D02*
X6708324Y-8226794D01*
X6708324Y-8226794D02*
X6689276Y-8198223D01*
X6689276Y-8198223D02*
X6679752Y-8188699D01*
M02*
