%TF.GenerationSoftware,KiCad,Pcbnew,8.0.5+1*%
%TF.CreationDate,2024-09-26T11:29:29-04:00*%
%TF.ProjectId,GRRCoaster,47525243-6f61-4737-9465-722e6b696361,rev?*%
%TF.SameCoordinates,Original*%
%TF.FileFunction,Copper,L1,Top*%
%TF.FilePolarity,Positive*%
%FSLAX46Y46*%
G04 Gerber Fmt 4.6, Leading zero omitted, Abs format (unit mm)*
G04 Created by KiCad (PCBNEW 8.0.5+1) date 2024-09-26 11:29:29*
%MOMM*%
%LPD*%
G01*
G04 APERTURE LIST*
G04 Aperture macros list*
%AMFreePoly0*
4,1,84,27.995836,24.184206,29.020327,24.142848,29.930931,24.079826,30.668749,23.995611,30.709716,23.989354,31.478646,23.862209,32.040845,23.748313,32.429081,23.636297,32.676117,23.514791,32.814721,23.372425,32.868467,23.240261,32.885936,22.832138,32.734005,22.526090,32.498701,22.390935,32.261716,22.380042,31.855447,22.408656,31.347044,22.470870,31.032080,22.519980,30.107567,22.641419,29.013017,22.729477,
27.816988,22.782966,26.588038,22.800695,25.394727,22.781474,24.305614,22.724114,23.553860,22.649768,21.047134,22.213313,18.634204,21.555876,16.320424,20.680078,14.111143,19.588538,12.011713,18.283876,10.027485,16.768712,8.297482,15.180243,6.588956,13.307859,5.090280,11.317788,3.801894,9.210746,2.724241,6.987447,1.934277,4.885782,1.437835,3.219337,1.073709,1.626244,0.830183,0.030854,
0.695544,-1.642481,0.657801,-3.357032,0.668262,-4.259338,0.701321,-5.085273,0.762801,-5.903317,0.858528,-6.781947,0.994327,-7.789644,1.089500,-8.432233,1.115299,-8.792554,1.037283,-9.032963,0.910184,-9.184603,0.611543,-9.401698,0.329047,-9.396806,0.060848,-9.228673,-0.078392,-9.078983,-0.195176,-8.856171,-0.297379,-8.527698,-0.392878,-8.061022,-0.489547,-7.423604,-0.595262,-6.582903,
-0.610200,-6.455961,-0.781912,-3.980229,-0.724439,-1.497484,-0.443987,0.971255,0.053241,3.404972,0.761041,5.782649,1.673208,8.083268,2.783539,10.285814,4.085828,12.369267,5.491862,14.215166,7.269903,16.157332,9.184840,17.902406,11.230672,19.447058,13.401397,20.787962,15.691015,21.921790,18.093526,22.845213,20.602927,23.554905,23.213218,24.047538,23.226541,24.049455,23.936980,24.123520,
24.828029,24.173555,25.840787,24.200032,26.916356,24.203424,27.995836,24.184206,27.995836,24.184206,$1*%
%AMFreePoly1*
4,1,200,17.674493,14.502632,17.781495,14.428477,17.828929,14.357536,17.894898,14.118310,17.870511,13.998194,17.749223,13.884039,17.470172,13.655937,17.069602,13.342509,16.583757,12.972378,16.344076,12.792793,14.914557,11.697266,13.364272,10.451136,11.679680,9.043339,10.268018,7.829622,9.683765,7.316941,9.013057,6.720274,8.283951,6.065326,7.524504,5.377804,6.762770,4.683416,6.026808,4.007869,
5.344672,3.376868,4.744419,2.816121,4.254104,2.351335,3.901785,2.008217,3.787548,1.891793,3.389314,1.474090,3.652168,0.969794,3.844950,0.359678,3.811083,-0.257315,3.554253,-0.830063,3.518747,-0.879835,3.255086,-1.236455,4.394363,-2.396190,4.618057,-2.626236,4.997006,-3.018808,5.520140,-3.562357,6.176391,-4.245335,6.954690,-5.056194,7.843969,-5.983387,8.833160,-7.015365,
9.911193,-8.140581,11.067001,-9.347486,12.289514,-10.624534,13.567665,-11.960175,14.890385,-13.342862,16.246605,-14.761048,16.524915,-15.052133,17.876355,-16.465597,19.189871,-17.839283,20.454995,-19.162246,21.661255,-20.423543,22.798183,-21.612229,23.855309,-22.717361,24.822162,-23.727995,25.688272,-24.633188,26.443169,-25.421994,27.076384,-26.083471,27.577447,-26.606674,27.935887,-26.980660,28.141235,-27.194486,
28.168877,-27.223137,28.533421,-27.626352,28.750940,-27.946834,28.862573,-28.252044,28.889583,-28.405051,28.957602,-28.912170,27.340701,-30.529071,26.768463,-31.097628,26.335309,-31.515816,26.012806,-31.806186,25.772519,-31.991290,25.586014,-32.093679,25.424855,-32.135906,25.307398,-32.141706,24.940957,-32.096244,24.639664,-31.992706,24.637083,-31.991232,24.522559,-31.892531,24.244020,-31.636296,23.811136,-31.231722,
23.233575,-30.688005,22.521006,-30.014342,21.683096,-29.219928,20.729515,-28.313959,19.669931,-27.305631,18.514012,-26.204139,17.271428,-25.018680,15.951845,-23.758450,14.564933,-22.432644,13.120361,-21.050458,11.627796,-19.621088,11.169981,-19.182407,-2.043209,-6.519791,-2.399699,-6.783355,-2.792453,-6.966870,-3.286100,-7.053856,-3.792316,-7.042917,-4.222778,-6.932654,-4.411333,-6.815205,-4.571286,-6.685359,
-4.700977,-6.668670,-4.872316,-6.783992,-5.100094,-6.995774,-5.401575,-7.296894,-5.837287,-7.751268,-6.382272,-8.331532,-7.011574,-9.010320,-7.700233,-9.760268,-8.423292,-10.554011,-9.155793,-11.364183,-9.872779,-12.163420,-10.549292,-12.924356,-11.160374,-13.619627,-11.530687,-14.046613,-12.709903,-15.433528,-13.829165,-16.784616,-14.859698,-18.064255,-15.772726,-19.236821,-16.399052,-20.073627,-16.772163,-20.572225,
-17.043609,-20.898783,-17.245737,-21.081271,-17.410893,-21.147664,-17.571425,-21.125932,-17.602843,-21.114623,-17.708646,-21.032869,-17.761957,-20.868833,-17.759929,-20.593431,-17.699718,-20.177577,-17.578478,-19.592185,-17.393365,-18.808172,-17.366477,-18.698356,-16.504990,-15.687943,-15.413991,-12.727009,-14.103033,-9.836511,-12.581668,-7.037408,-10.859446,-4.350659,-10.767090,-4.218010,-10.389664,-3.682525,-10.036741,-3.189863,
-9.743201,-2.788172,-9.543926,-2.525601,-9.515827,-2.490835,-9.232224,-2.148020,-9.579458,-1.752542,-9.918585,-1.210178,-10.025496,-0.631880,-9.898252,-0.045581,-9.732664,0.296394,-9.564848,0.563841,-9.535220,0.599610,-9.462135,0.719076,-9.489542,0.855664,-9.643314,1.056901,-9.949324,1.370313,-9.961138,1.381955,-10.283823,1.736596,-10.496628,2.044991,-10.560663,2.228977,-10.489581,2.388535,
-10.291756,2.705647,-9.990323,3.149449,-9.608418,3.689076,-9.169174,4.293665,-8.695726,4.932350,-8.211209,5.574269,-7.738758,6.188555,-7.301506,6.744346,-6.922589,7.210777,-6.625142,7.556983,-6.432298,7.752101,-6.405947,7.771857,-6.170490,7.871036,-5.916751,7.845904,-5.611359,7.679181,-5.220944,7.353587,-4.797046,6.938737,-4.029163,6.157004,-3.653444,6.386109,-3.090608,6.596469,
-2.479489,6.602292,-1.885382,6.411323,-1.472038,6.127347,-1.340314,6.023598,-1.213594,6.000179,-1.037905,6.075501,-0.759278,6.267971,-0.509005,6.455842,1.895969,8.147681,4.436915,9.693981,7.077064,11.077068,9.779648,12.279266,12.507897,13.282898,15.225042,14.070289,15.441232,14.123507,16.222954,14.309966,16.804550,14.437914,17.218611,14.510544,17.497728,14.531052,17.674493,14.502632,
17.674493,14.502632,$1*%
%AMFreePoly2*
4,1,233,0.849984,7.152656,0.902891,7.139366,1.014665,7.020397,1.228691,6.725444,1.524310,6.285542,1.880866,5.731729,2.277700,5.095042,2.434812,4.837743,2.882546,4.102996,3.227142,3.548370,3.489127,3.147415,3.689026,2.873681,3.847366,2.700718,3.984675,2.602076,4.121477,2.551305,4.225335,2.530520,4.566566,2.469038,4.822135,2.415924,4.839811,2.411561,4.983416,2.470086,
5.283429,2.659757,5.709908,2.959281,6.232910,3.347367,6.822491,3.802720,7.055299,3.987001,7.826143,4.592426,8.431501,5.047326,8.885528,5.361467,9.202377,5.544616,9.396205,5.606539,9.402692,5.606630,9.653637,5.547992,10.034133,5.394077,10.489363,5.174819,10.964512,4.920150,11.404765,4.660005,11.755305,4.424316,11.961316,4.243016,11.990684,4.193403,11.999753,4.014511,
11.988313,3.634843,11.958590,3.093309,11.912814,2.428816,11.853213,1.680272,11.833873,1.455450,11.612761,-1.072512,12.064808,-1.538648,12.516854,-2.004783,15.088522,-1.881930,16.022672,-1.843246,16.788356,-1.823937,17.366607,-1.824069,17.738455,-1.843709,17.872110,-1.872124,18.027635,-2.036241,18.242127,-2.365412,18.486023,-2.800798,18.729759,-3.283564,18.943771,-3.754871,19.098495,-4.155884,
19.164366,-4.427766,19.164929,-4.445031,19.108970,-4.628673,18.932900,-4.919799,18.624430,-5.335064,18.171270,-5.891123,17.630095,-6.525103,17.143960,-7.087416,16.704102,-7.597946,16.337972,-8.024693,16.073017,-8.335661,15.936687,-8.498849,15.933001,-8.503491,15.833505,-8.755068,15.835183,-9.159878,15.852818,-9.306237,15.934895,-9.903005,18.140793,-11.361100,18.788183,-11.794110,19.365950,-12.190247,
19.844123,-12.528166,20.192730,-12.786522,20.381801,-12.943970,20.406331,-12.974616,20.411570,-13.160477,20.374201,-13.519839,20.305203,-13.991487,20.215557,-14.514203,20.116239,-15.026770,20.018229,-15.467971,19.932506,-15.776589,19.884937,-15.881878,19.739233,-15.947551,19.394282,-16.055750,18.885850,-16.196717,18.249703,-16.360697,17.521608,-16.537936,17.223235,-16.607900,16.384545,-16.803768,15.748940,-16.957467,
15.284676,-17.079919,14.960005,-17.182048,14.743183,-17.274777,14.602464,-17.369029,14.506102,-17.475728,14.448719,-17.562576,14.308182,-17.805448,14.217224,-18.028974,14.181362,-18.269204,14.206112,-18.562191,14.296992,-18.943986,14.459518,-19.450642,14.699207,-20.118212,14.937945,-20.759563,15.199424,-21.471170,15.428680,-22.120546,15.612709,-22.668741,15.738504,-23.076805,15.793059,-23.305787,15.794313,-23.324195,
15.705961,-23.544016,15.471336,-23.864794,15.136089,-24.242123,14.745870,-24.631594,14.346326,-24.988801,13.983109,-25.269337,13.701868,-25.428795,13.609761,-25.449289,13.452903,-25.395577,13.206670,-25.224872,12.854707,-24.922826,12.380659,-24.475088,11.768171,-23.867308,11.517465,-23.613507,10.424083,-22.501461,9.488231,-21.547650,8.697955,-20.739313,8.041302,-20.063687,7.506320,-19.508011,7.081054,-19.059522,
6.753553,-18.705459,6.511863,-18.433059,6.344031,-18.229560,6.238104,-18.082200,6.182129,-17.978218,6.164153,-17.904850,6.163981,-17.897688,6.250237,-17.694742,6.492221,-17.365261,6.864756,-16.941577,7.096920,-16.699628,7.988189,-15.678955,8.663060,-14.637960,9.145267,-13.538985,9.207417,-13.351185,9.403211,-12.464176,9.485026,-11.460864,9.454145,-10.430326,9.311850,-9.461639,9.142690,-8.856877,
8.588097,-7.626872,7.859151,-6.537703,6.978542,-5.603117,5.968960,-4.836861,4.853093,-4.252681,3.653631,-3.864325,2.393264,-3.685538,1.094682,-3.730068,0.760948,-3.778677,-0.253060,-4.052955,-1.313352,-4.532419,-2.381442,-5.196914,-3.254348,-5.881470,-3.692786,-6.243405,-4.085715,-6.536979,-4.387291,-6.729826,-4.541979,-6.790522,-4.603550,-6.776885,-4.692635,-6.728123,-4.821199,-6.632455,
-5.001204,-6.478101,-5.244614,-6.253282,-5.563392,-5.946219,-5.969501,-5.545130,-6.474903,-5.038236,-7.091563,-4.413759,-7.831443,-3.659917,-8.706506,-2.764931,-9.728716,-1.717021,-10.538564,-0.885835,-11.095900,-0.302043,-11.492063,0.142046,-11.744456,0.468207,-11.870482,0.698214,-11.892891,0.808692,-11.803786,1.043503,-11.567075,1.376639,-11.228661,1.763186,-10.834450,2.158229,-10.430346,2.516853,
-10.062252,2.794143,-9.776074,2.945182,-9.694006,2.960189,-9.495364,2.915150,-9.113455,2.789377,-8.586340,2.596894,-7.952081,2.351720,-7.248739,2.067877,-7.062031,1.990630,-4.730523,1.021070,-4.161590,1.287544,-3.986941,1.365189,-3.849226,1.431999,-3.736715,1.515631,-3.637683,1.643741,-3.540399,1.843986,-3.433138,2.144022,-3.304170,2.571508,-3.141767,3.154098,-2.934203,3.919450,
-2.737640,4.645497,-2.528085,5.379152,-2.334634,5.983410,-2.168632,6.425915,-2.041423,6.674311,-2.016220,6.703002,-1.813195,6.793387,-1.434262,6.891065,-0.943681,6.986431,-0.405708,7.069878,0.115399,7.131802,0.555382,7.162596,0.849984,7.152656,0.849984,7.152656,$1*%
%AMFreePoly3*
4,1,45,-0.341707,2.794066,0.058507,2.702351,0.572731,2.567771,1.150443,2.405282,1.741124,2.229840,2.294251,2.056401,2.759305,1.899921,3.085763,1.775355,3.217855,1.704453,3.291257,1.544219,3.404949,1.192024,3.546560,0.690833,3.703720,0.083614,3.807080,-0.342199,4.258071,-2.248378,3.187330,-3.330205,2.614791,-3.892941,2.170248,-4.289738,1.827382,-4.539456,1.559870,-4.660956,
1.341393,-4.673099,1.319478,-4.668626,1.186860,-4.572199,0.913737,-4.323613,0.524114,-3.946497,0.041995,-3.464480,-0.508615,-2.901191,-1.058010,-2.328365,-1.745331,-1.600741,-2.279411,-1.023296,-2.677059,-0.575777,-2.955085,-0.237932,-3.130299,0.010493,-3.219510,0.189750,-3.240284,0.300884,-3.206060,0.473986,-3.086120,0.681432,-2.854569,0.954367,-2.485507,1.323935,-2.050854,1.731309,
-1.441730,2.271648,-0.984207,2.629337,-0.675487,2.806458,-0.577390,2.827962,-0.341707,2.794066,-0.341707,2.794066,$1*%
%AMFreePoly4*
4,1,47,-0.130634,0.976939,0.271120,0.804927,0.798908,0.543468,1.414661,0.213200,2.080308,-0.165237,2.757780,-0.571204,3.409005,-0.984061,3.615809,-1.121080,5.600460,-2.592439,7.457910,-4.251165,9.167677,-6.073166,10.709275,-8.034352,12.062220,-10.110630,13.206027,-12.277908,13.329017,-12.544626,13.644803,-13.259371,13.856756,-13.794301,13.972854,-14.182825,14.001074,-14.458346,13.949396,-14.654272,
13.860802,-14.771291,13.585448,-14.923372,13.244088,-14.965559,12.948245,-14.892302,12.860417,-14.821090,12.761669,-14.652017,12.594704,-14.316111,12.385939,-13.867916,12.233661,-13.527014,11.118374,-11.281822,9.806357,-9.173553,8.302234,-7.207140,6.610627,-5.387512,4.736158,-3.719602,2.683449,-2.208339,0.457122,-0.858655,0.255450,-0.749076,-0.276872,-0.455580,-0.630227,-0.238445,-0.841840,-0.068081,
-0.948935,0.085104,-0.987459,0.238915,-0.934282,0.603420,-0.727524,0.894289,-0.426199,1.035281,-0.368282,1.038862,-0.130634,0.976939,-0.130634,0.976939,$1*%
%AMFreePoly5*
4,1,70,-39.013219,11.619641,-38.747700,11.384522,-38.460702,10.950060,-38.263342,10.578008,-37.086583,8.496264,-35.701837,6.521475,-34.101377,4.643056,-33.402518,3.919756,-31.529740,2.212005,-29.536803,0.712329,-27.429061,-0.576651,-25.211863,-1.652315,-22.890562,-2.512044,-20.470508,-3.153216,-18.146140,-3.549768,-17.037739,-3.651861,-15.779195,-3.702220,-14.444223,-3.702500,-13.106534,-3.654354,-11.839842,-3.559439,
-10.717859,-3.419406,-10.468246,-3.377477,-7.992584,-2.816827,-5.615512,-2.036568,-3.336382,-1.036446,-1.154545,0.183796,-0.743488,0.445385,-0.155036,0.804517,0.285143,1.011445,0.609996,1.072472,0.852469,0.993901,1.042263,0.787012,1.156443,0.529591,1.134685,0.277225,0.958348,0.004224,0.608793,-0.315101,0.067377,-0.706442,-0.143494,-0.847162,-1.853781,-1.858565,-3.738747,-2.765634,
-5.748666,-3.551259,-7.833815,-4.198330,-9.944469,-4.689735,-12.030902,-5.008365,-12.324935,-5.038865,-13.331025,-5.109243,-14.466567,-5.143299,-15.637542,-5.141078,-16.749932,-5.102627,-17.630805,-5.036313,-20.173478,-4.658476,-22.650526,-4.055193,-25.047579,-3.233112,-27.350264,-2.198878,-29.544210,-0.959138,-31.615043,0.479461,-33.548393,2.110275,-33.989642,2.528853,-35.740537,4.362981,-37.258408,6.242338,
-38.547772,8.172919,-39.381500,9.685782,-39.683902,10.324234,-39.856764,10.795798,-39.903761,11.134133,-39.828565,11.372901,-39.634848,11.545760,-39.587366,11.572638,-39.284145,11.675613,-39.013219,11.619641,-39.013219,11.619641,$1*%
%AMFreePoly6*
4,1,26,0.512339,0.698567,0.651953,0.516164,0.692705,0.360494,0.664017,0.098987,0.558069,-0.306650,0.367039,-0.894709,0.359050,-0.918089,0.088421,-1.646443,-0.157870,-2.154843,-0.397693,-2.460363,-0.648921,-2.580080,-0.929426,-2.531067,-1.178902,-2.387487,-1.328809,-2.260062,-1.409349,-2.107404,-1.416296,-1.889020,-1.345426,-1.564417,-1.192513,-1.093104,-0.983670,-0.516556,-0.766692,0.050505,
-0.598306,0.430331,-0.454169,0.665131,-0.309941,0.797115,-0.194853,0.851301,0.191639,0.889201,0.512339,0.698567,0.512339,0.698567,$1*%
%AMFreePoly7*
4,1,27,0.346983,0.822677,0.540441,0.692880,0.670338,0.433175,0.753436,0.008072,0.806498,-0.617918,0.811471,-0.705101,0.838044,-1.260224,0.839629,-1.629349,0.809144,-1.866568,0.739510,-2.025973,0.623646,-2.161657,0.620382,-2.164926,0.271300,-2.388275,-0.080147,-2.372765,-0.359241,-2.181517,-0.469729,-2.042255,-0.540633,-1.856014,-0.580342,-1.570884,-0.597244,-1.134954,-0.600000,-0.691517,
-0.588822,-0.050839,-0.544514,0.386888,-0.450909,0.658872,-0.291843,0.802321,-0.051152,0.854444,0.073204,0.858057,0.346983,0.822677,0.346983,0.822677,$1*%
G04 Aperture macros list end*
%TA.AperFunction,SMDPad,CuDef*%
%ADD10FreePoly0,0.000000*%
%TD*%
%TA.AperFunction,SMDPad,CuDef*%
%ADD11FreePoly1,0.000000*%
%TD*%
%TA.AperFunction,SMDPad,CuDef*%
%ADD12FreePoly2,0.000000*%
%TD*%
%TA.AperFunction,SMDPad,CuDef*%
%ADD13FreePoly3,0.000000*%
%TD*%
%TA.AperFunction,SMDPad,CuDef*%
%ADD14FreePoly4,0.000000*%
%TD*%
%TA.AperFunction,SMDPad,CuDef*%
%ADD15FreePoly5,0.000000*%
%TD*%
%TA.AperFunction,SMDPad,CuDef*%
%ADD16FreePoly6,0.000000*%
%TD*%
%TA.AperFunction,SMDPad,CuDef*%
%ADD17FreePoly7,0.000000*%
%TD*%
%TA.AperFunction,ViaPad*%
%ADD18C,2.000000*%
%TD*%
%TA.AperFunction,Conductor*%
%ADD19C,1.000000*%
%TD*%
G04 APERTURE END LIST*
D10*
%TO.P,REF\u002A\u002A,1*%
%TO.N,N/C*%
X20100000Y-43000000D03*
D11*
X38900000Y-35100000D03*
D12*
X55400000Y-36500000D03*
D13*
X57100000Y-46600000D03*
D14*
X58600000Y-22300000D03*
D15*
X61800000Y-68700000D03*
D16*
X72400000Y-54800000D03*
D17*
X73600000Y-44600000D03*
%TD*%
D18*
%TO.N,*%
X27800000Y-52500000D03*
X59300000Y-66500000D03*
X51700000Y-69400000D03*
X45500000Y-63300000D03*
X46400000Y-70000000D03*
X55800000Y-68500000D03*
X42000000Y-60600000D03*
X25500000Y-55000000D03*
X33400000Y-64200000D03*
X38900000Y-57200000D03*
X35600000Y-53800000D03*
X29100000Y-60600000D03*
X32900000Y-46800000D03*
X43200000Y-56000000D03*
X41700000Y-50000000D03*
X35900000Y-44200000D03*
%TD*%
D19*
%TO.N,*%
X45500000Y-63300000D02*
X45600000Y-63300000D01*
X31150000Y-49350000D02*
X35600000Y-53800000D01*
X28000000Y-52500000D02*
X31150000Y-49350000D01*
X27800000Y-52500000D02*
X28000000Y-52500000D01*
X40600000Y-64200000D02*
X46400000Y-70000000D01*
X32900000Y-46800000D02*
X38900000Y-52800000D01*
X27700000Y-57200000D02*
X25500000Y-55000000D01*
X38900000Y-57200000D02*
X27700000Y-57200000D01*
X45600000Y-52800000D02*
X59300000Y-66500000D01*
X41700000Y-50000000D02*
X35900000Y-44200000D01*
X45600000Y-63300000D02*
X51700000Y-69400000D01*
X43300000Y-56000000D02*
X43200000Y-56000000D01*
X33400000Y-64200000D02*
X40600000Y-64200000D01*
X29100000Y-60600000D02*
X42000000Y-60600000D01*
X38900000Y-52800000D02*
X45600000Y-52800000D01*
X55800000Y-68500000D02*
X43300000Y-56000000D01*
%TD*%
%TA.AperFunction,NonConductor*%
G36*
X43097493Y-36091640D02*
G01*
X43134824Y-36133426D01*
X43212229Y-36274697D01*
X43212235Y-36274706D01*
X43255758Y-36341149D01*
X43255767Y-36341161D01*
X43407953Y-36537828D01*
X43433413Y-36602894D01*
X43419654Y-36671395D01*
X43371044Y-36721584D01*
X43303017Y-36737525D01*
X43237171Y-36714157D01*
X43221428Y-36700613D01*
X42907802Y-36381355D01*
X42890019Y-36363253D01*
X42857082Y-36301635D01*
X42862686Y-36231990D01*
X42870905Y-36214679D01*
X42875295Y-36207022D01*
X42915502Y-36136895D01*
X42915511Y-36136874D01*
X42915576Y-36136748D01*
X42915602Y-36136720D01*
X42917030Y-36134230D01*
X42917628Y-36134573D01*
X42963535Y-36085938D01*
X43031351Y-36069122D01*
X43097493Y-36091640D01*
G37*
%TD.AperFunction*%
%TA.AperFunction,NonConductor*%
G36*
X57080716Y-21609767D02*
G01*
X57132184Y-21657019D01*
X57149935Y-21724596D01*
X57148687Y-21738935D01*
X57112335Y-21988114D01*
X57107449Y-22040777D01*
X57122187Y-22183905D01*
X57122189Y-22183915D01*
X57160706Y-22337694D01*
X57171952Y-22376083D01*
X57171953Y-22376085D01*
X57236770Y-22504535D01*
X57343864Y-22657718D01*
X57343866Y-22657721D01*
X57441156Y-22761830D01*
X57441170Y-22761843D01*
X57652772Y-22932198D01*
X57683394Y-22953801D01*
X57705120Y-22969129D01*
X58058475Y-23186264D01*
X58079059Y-23198254D01*
X58611381Y-23491750D01*
X58614110Y-23493244D01*
X58614227Y-23493307D01*
X58614299Y-23493347D01*
X58802695Y-23595712D01*
X58807777Y-23598631D01*
X60997254Y-24925975D01*
X61006486Y-24932154D01*
X61278797Y-25132637D01*
X63012985Y-26409396D01*
X63021896Y-26416615D01*
X63613972Y-26943446D01*
X64852326Y-28045338D01*
X64860700Y-28053531D01*
X66171365Y-29463388D01*
X66511418Y-29829176D01*
X66519091Y-29838268D01*
X67960270Y-31722392D01*
X67986420Y-31756578D01*
X67993203Y-31766391D01*
X68784038Y-33037177D01*
X69273276Y-33823329D01*
X69279051Y-33833681D01*
X69658988Y-34598535D01*
X70310427Y-35909953D01*
X70375202Y-36040351D01*
X70377367Y-36044942D01*
X70524405Y-36374113D01*
X70527722Y-36381381D01*
X70736462Y-36829523D01*
X70742052Y-36841138D01*
X70908999Y-37177007D01*
X70925164Y-37206956D01*
X70952024Y-37252944D01*
X71023914Y-37376032D01*
X71044326Y-37408141D01*
X71142052Y-37513740D01*
X71229880Y-37584952D01*
X71229891Y-37584959D01*
X71229898Y-37584965D01*
X71280592Y-37620006D01*
X71324547Y-37674317D01*
X71332160Y-37743771D01*
X71301016Y-37806315D01*
X71241002Y-37842093D01*
X71215216Y-37845903D01*
X70467526Y-37876866D01*
X70464523Y-37877000D01*
X68176732Y-37986291D01*
X68108829Y-37969828D01*
X68081799Y-37948758D01*
X67985308Y-37849260D01*
X67827693Y-37686732D01*
X67575914Y-37427106D01*
X67543375Y-37365277D01*
X67541403Y-37329980D01*
X67666280Y-35902274D01*
X67737451Y-35088590D01*
X67737454Y-35088554D01*
X67737506Y-35087959D01*
X67753212Y-34905377D01*
X67756853Y-34863053D01*
X67757118Y-34859850D01*
X67816719Y-34111306D01*
X67817119Y-34105925D01*
X67862895Y-33441432D01*
X67863330Y-33434395D01*
X67893053Y-32892861D01*
X67893584Y-32880382D01*
X67905024Y-32500714D01*
X67904879Y-32486636D01*
X67904605Y-32459908D01*
X67904605Y-32459895D01*
X67895536Y-32281003D01*
X67880610Y-32182086D01*
X67825686Y-32049101D01*
X67825684Y-32049098D01*
X67825683Y-32049095D01*
X67796300Y-31999458D01*
X67788661Y-31986971D01*
X67788658Y-31986967D01*
X67767349Y-31961990D01*
X67695274Y-31877508D01*
X67545418Y-31745628D01*
X67489261Y-31696206D01*
X67489247Y-31696195D01*
X67437365Y-31656194D01*
X67437362Y-31656192D01*
X67437357Y-31656188D01*
X67086817Y-31420499D01*
X67061924Y-31404795D01*
X66901815Y-31310187D01*
X66621680Y-31144655D01*
X66603327Y-31134320D01*
X66603326Y-31134319D01*
X66603311Y-31134311D01*
X66128162Y-30879642D01*
X66108716Y-30869753D01*
X66108709Y-30869749D01*
X66108696Y-30869743D01*
X65653494Y-30650498D01*
X65636499Y-30642978D01*
X65623692Y-30637311D01*
X65623681Y-30637306D01*
X65623673Y-30637303D01*
X65243207Y-30483400D01*
X65243176Y-30483389D01*
X65168670Y-30459771D01*
X65168653Y-30459766D01*
X64917715Y-30401130D01*
X64836305Y-30392323D01*
X64795602Y-30387920D01*
X64795601Y-30387920D01*
X64795599Y-30387919D01*
X64789070Y-30388011D01*
X64784271Y-30388101D01*
X64784262Y-30388102D01*
X64642374Y-30411936D01*
X64448540Y-30473860D01*
X64349404Y-30517736D01*
X64032556Y-30700884D01*
X63997906Y-30722834D01*
X63543905Y-31036957D01*
X63527812Y-31048566D01*
X62922476Y-31503449D01*
X62913886Y-31510048D01*
X62142962Y-32115536D01*
X62141640Y-32116578D01*
X62141641Y-32116579D01*
X62141560Y-32116643D01*
X62118809Y-32134652D01*
X61911710Y-32298581D01*
X61910545Y-32299492D01*
X61328714Y-32748859D01*
X61326810Y-32750300D01*
X60815277Y-33129876D01*
X60812653Y-33131771D01*
X60405401Y-33417792D01*
X60400396Y-33421129D01*
X60224114Y-33532576D01*
X60156930Y-33551762D01*
X60132622Y-33549171D01*
X60069464Y-33536045D01*
X60069441Y-33536040D01*
X60069424Y-33536037D01*
X60056202Y-33533473D01*
X60056187Y-33533470D01*
X60056170Y-33533467D01*
X59720942Y-33473066D01*
X59718597Y-33472620D01*
X59669493Y-33462793D01*
X59650685Y-33457457D01*
X59639991Y-33453488D01*
X59610791Y-33437944D01*
X59595276Y-33426797D01*
X59576169Y-33409827D01*
X59514174Y-33342107D01*
X59485400Y-33310675D01*
X59476724Y-33300077D01*
X59307007Y-33067673D01*
X59303342Y-33062371D01*
X59054241Y-32681134D01*
X59052720Y-32678748D01*
X59044379Y-32665323D01*
X58713268Y-32132401D01*
X58712926Y-32131846D01*
X58266480Y-31399211D01*
X58266240Y-31398818D01*
X58109128Y-31141519D01*
X58106695Y-31137574D01*
X57709861Y-30500887D01*
X57705895Y-30494628D01*
X57692524Y-30473860D01*
X57349375Y-29940870D01*
X57349339Y-29940815D01*
X57343874Y-29932507D01*
X57048255Y-29492605D01*
X57037827Y-29477676D01*
X56823801Y-29182723D01*
X56823800Y-29182722D01*
X56823793Y-29182712D01*
X56796154Y-29149292D01*
X56783074Y-29133474D01*
X56673984Y-29017362D01*
X56671302Y-29014507D01*
X56671301Y-29014506D01*
X56671300Y-29014505D01*
X56563229Y-28928156D01*
X56559183Y-28924923D01*
X56559179Y-28924920D01*
X56426053Y-28870368D01*
X56426042Y-28870364D01*
X56373134Y-28857074D01*
X56267034Y-28842131D01*
X56267022Y-28842130D01*
X55972442Y-28832190D01*
X55920104Y-28833137D01*
X55920076Y-28833138D01*
X55480135Y-28863929D01*
X55455749Y-28866229D01*
X55027731Y-28917092D01*
X54934642Y-28928154D01*
X54934629Y-28928155D01*
X54934627Y-28928156D01*
X54916824Y-28930593D01*
X54378821Y-29014045D01*
X54359833Y-29017362D01*
X53869296Y-29112720D01*
X53839558Y-29119436D01*
X53594085Y-29182712D01*
X53460626Y-29217114D01*
X53460620Y-29217115D01*
X53460603Y-29217121D01*
X53381231Y-29244802D01*
X53381212Y-29244809D01*
X53178185Y-29335195D01*
X53113371Y-29369904D01*
X53003997Y-29463388D01*
X52978797Y-29492076D01*
X52908647Y-29595269D01*
X52781435Y-29843670D01*
X52758073Y-29896539D01*
X52758061Y-29896568D01*
X52592082Y-30339015D01*
X52583941Y-30362446D01*
X52390478Y-30966739D01*
X52385857Y-30982001D01*
X52176275Y-31715750D01*
X52174428Y-31722392D01*
X51977934Y-32448185D01*
X51977920Y-32448238D01*
X51770936Y-33211447D01*
X51770705Y-33212287D01*
X51610679Y-33786351D01*
X51609948Y-33788869D01*
X51487482Y-34194801D01*
X51485530Y-34200728D01*
X51395153Y-34453536D01*
X51389924Y-34465981D01*
X51336043Y-34576886D01*
X51322616Y-34598535D01*
X51317774Y-34604799D01*
X51273791Y-34640527D01*
X51201863Y-34675422D01*
X51198113Y-34677165D01*
X51033030Y-34750557D01*
X51024004Y-34754678D01*
X50706956Y-34903175D01*
X50637897Y-34913784D01*
X50606748Y-34905377D01*
X50086907Y-34689201D01*
X48532068Y-34042620D01*
X48532045Y-34042610D01*
X48531542Y-34042401D01*
X48531223Y-34042269D01*
X48531162Y-34042243D01*
X48344624Y-33965066D01*
X48341915Y-33963959D01*
X48340438Y-33963356D01*
X48174955Y-33896573D01*
X47637123Y-33679523D01*
X47630182Y-33676781D01*
X47029304Y-33444511D01*
X46995919Y-33431606D01*
X46995898Y-33431598D01*
X46987031Y-33428266D01*
X46459978Y-33235806D01*
X46459959Y-33235799D01*
X46459936Y-33235791D01*
X46444666Y-33230490D01*
X46444634Y-33230479D01*
X46444601Y-33230468D01*
X46062790Y-33104727D01*
X46062720Y-33104706D01*
X46016429Y-33091867D01*
X46016391Y-33091857D01*
X45817790Y-33046827D01*
X45817780Y-33046825D01*
X45758839Y-33037080D01*
X45615068Y-33042555D01*
X45615066Y-33042555D01*
X45533010Y-33057560D01*
X45523482Y-33059398D01*
X45387979Y-33107761D01*
X45101794Y-33258804D01*
X45033601Y-33302094D01*
X45033578Y-33302110D01*
X44665502Y-33579387D01*
X44634125Y-33605058D01*
X44582927Y-33650494D01*
X44230017Y-33963686D01*
X44230000Y-33963701D01*
X44230000Y-33963702D01*
X44207749Y-33984687D01*
X43813523Y-34379746D01*
X43790985Y-34403855D01*
X43463713Y-34777676D01*
X43404743Y-34815150D01*
X43334874Y-34814793D01*
X43276290Y-34776719D01*
X43248065Y-34716148D01*
X43226962Y-34588026D01*
X43226960Y-34588021D01*
X43226960Y-34588018D01*
X43034178Y-33977902D01*
X43028137Y-33963342D01*
X43000437Y-33896573D01*
X43000433Y-33896565D01*
X43000430Y-33896558D01*
X42945740Y-33791634D01*
X42932211Y-33723089D01*
X42957888Y-33658108D01*
X42965943Y-33648767D01*
X43050373Y-33560210D01*
X43051469Y-33559076D01*
X43157620Y-33450894D01*
X43159519Y-33449000D01*
X43503819Y-33113693D01*
X43504868Y-33112685D01*
X43990741Y-32652110D01*
X43990919Y-32651942D01*
X44588964Y-32093260D01*
X45269280Y-31463942D01*
X46003898Y-30789628D01*
X46764532Y-30096244D01*
X47522424Y-29410129D01*
X48249861Y-28756680D01*
X48918370Y-28161968D01*
X48918749Y-28161633D01*
X49499128Y-27652352D01*
X49499831Y-27651741D01*
X50906035Y-26442717D01*
X50907122Y-26441796D01*
X52583909Y-25040520D01*
X52585576Y-25039154D01*
X54125576Y-23801292D01*
X54127755Y-23799580D01*
X55549083Y-22710330D01*
X55549704Y-22709860D01*
X55786867Y-22532164D01*
X55790093Y-22529727D01*
X56275938Y-22159596D01*
X56281108Y-22155604D01*
X56681678Y-21842176D01*
X56690095Y-21835444D01*
X56947508Y-21625028D01*
X57011871Y-21597841D01*
X57080716Y-21609767D01*
G37*
%TD.AperFunction*%
%TA.AperFunction,NonConductor*%
G36*
X72473284Y-44661497D02*
G01*
X72502621Y-44724909D01*
X72503952Y-44745321D01*
X72494576Y-45282691D01*
X72494510Y-45294618D01*
X72494510Y-45294659D01*
X72495005Y-45374285D01*
X72497266Y-45738101D01*
X72497636Y-45754554D01*
X72514538Y-46190477D01*
X72518991Y-46240623D01*
X72533132Y-46342163D01*
X72522882Y-46411277D01*
X72476894Y-46463877D01*
X72409767Y-46483265D01*
X72342816Y-46463283D01*
X72341941Y-46462710D01*
X71851327Y-46138415D01*
X71806255Y-46085027D01*
X71796859Y-46051866D01*
X71777873Y-45913819D01*
X71754307Y-45742475D01*
X71754067Y-45740619D01*
X71741414Y-45635610D01*
X71740527Y-45621311D01*
X71740112Y-45521291D01*
X71739503Y-45374284D01*
X71748192Y-45328169D01*
X71765962Y-45283235D01*
X71786105Y-45249344D01*
X71859126Y-45161939D01*
X71859632Y-45161339D01*
X72122140Y-44853244D01*
X72285862Y-44662414D01*
X72344453Y-44624354D01*
X72414322Y-44624011D01*
X72473284Y-44661497D01*
G37*
%TD.AperFunction*%
%TA.AperFunction,NonConductor*%
G36*
X47900230Y-20722343D02*
G01*
X47903855Y-20722451D01*
X49079259Y-20775017D01*
X49083583Y-20775287D01*
X50151239Y-20861182D01*
X50157437Y-20861838D01*
X51058768Y-20980232D01*
X51061643Y-20980645D01*
X51369166Y-21028595D01*
X51385643Y-21030887D01*
X51385663Y-21030889D01*
X51385667Y-21030890D01*
X51389317Y-21031336D01*
X51430645Y-21036393D01*
X51494795Y-21064074D01*
X51533798Y-21122044D01*
X51535269Y-21191898D01*
X51498740Y-21251458D01*
X51450097Y-21278575D01*
X51267209Y-21331574D01*
X51267199Y-21331577D01*
X51248008Y-21337879D01*
X51233354Y-21342691D01*
X48505134Y-22346312D01*
X48474188Y-22358871D01*
X45771622Y-23561061D01*
X45742499Y-23575149D01*
X43102332Y-24958245D01*
X43074105Y-24974206D01*
X40533196Y-26520483D01*
X40505124Y-26538870D01*
X38100138Y-28230717D01*
X38087505Y-28239899D01*
X37847165Y-28420312D01*
X37843201Y-28423168D01*
X37752751Y-28485649D01*
X37686404Y-28507555D01*
X37618746Y-28490114D01*
X37612058Y-28485828D01*
X37301008Y-28272130D01*
X37298627Y-28270504D01*
X37298621Y-28270500D01*
X37169309Y-28207427D01*
X37169307Y-28207426D01*
X36575183Y-28016452D01*
X36558306Y-28011350D01*
X36558290Y-28011347D01*
X36415693Y-27992230D01*
X35804589Y-27998053D01*
X35772989Y-27999342D01*
X35772986Y-27999343D01*
X35632419Y-28030021D01*
X35632412Y-28030023D01*
X35069601Y-28240373D01*
X35069571Y-28240386D01*
X35027741Y-28260728D01*
X34958843Y-28272343D01*
X34894604Y-28244865D01*
X34885064Y-28236119D01*
X34463577Y-27807029D01*
X34456520Y-27799986D01*
X34032622Y-27385136D01*
X34032617Y-27385131D01*
X34002833Y-27358214D01*
X33861837Y-27240628D01*
X33612400Y-27032605D01*
X33530864Y-26977132D01*
X33530857Y-26977128D01*
X33530845Y-26977120D01*
X33225484Y-26810415D01*
X33225464Y-26810405D01*
X33172781Y-26785473D01*
X33172777Y-26785471D01*
X33033073Y-26751057D01*
X33033071Y-26751056D01*
X33033068Y-26751056D01*
X32779350Y-26725926D01*
X32779335Y-26725925D01*
X32779334Y-26725925D01*
X32779333Y-26725925D01*
X32672476Y-26726692D01*
X32672471Y-26726693D01*
X32533282Y-26763104D01*
X32533275Y-26763107D01*
X32297828Y-26862282D01*
X32297815Y-26862289D01*
X32190827Y-26923687D01*
X32164478Y-26943442D01*
X32164460Y-26943457D01*
X32108167Y-26992561D01*
X31915318Y-27187684D01*
X31891443Y-27213588D01*
X31593979Y-27559814D01*
X31585048Y-27570502D01*
X31206165Y-28036892D01*
X31201183Y-28043123D01*
X30763923Y-28598924D01*
X30760532Y-28603284D01*
X30288135Y-29217500D01*
X30285351Y-29221153D01*
X29800847Y-29863055D01*
X29798096Y-29866735D01*
X29324792Y-30505226D01*
X29321823Y-30509269D01*
X28882622Y-31113799D01*
X28878960Y-31118907D01*
X28497070Y-31658512D01*
X28491527Y-31666506D01*
X28190057Y-32110363D01*
X28179373Y-32126770D01*
X27981531Y-32443908D01*
X27948674Y-32505742D01*
X27948670Y-32505750D01*
X27877582Y-32665323D01*
X27847881Y-32752692D01*
X27847881Y-32752697D01*
X27835912Y-32880382D01*
X27834452Y-32895954D01*
X27861923Y-33037171D01*
X27861924Y-33037177D01*
X27891436Y-33121971D01*
X27894187Y-33129876D01*
X27925962Y-33221170D01*
X27925963Y-33221174D01*
X27987308Y-33342099D01*
X27987310Y-33342102D01*
X27987313Y-33342107D01*
X28200118Y-33650502D01*
X28200132Y-33650520D01*
X28200139Y-33650529D01*
X28242275Y-33703592D01*
X28242286Y-33703604D01*
X28564971Y-34058245D01*
X28584050Y-34078099D01*
X28591562Y-34085501D01*
X28593217Y-34087164D01*
X28784901Y-34283485D01*
X28817651Y-34345204D01*
X28811834Y-34414831D01*
X28801213Y-34436018D01*
X28739160Y-34534911D01*
X28739151Y-34534926D01*
X28712372Y-34583291D01*
X28712364Y-34583307D01*
X28546777Y-34925280D01*
X28507746Y-35038375D01*
X28380504Y-35624663D01*
X28371672Y-35680011D01*
X28377426Y-35823774D01*
X28451349Y-36223630D01*
X28484285Y-36401790D01*
X28484340Y-36402084D01*
X28494661Y-36446564D01*
X28552804Y-36578176D01*
X28552805Y-36578177D01*
X28891932Y-37120541D01*
X28905332Y-37138551D01*
X28941682Y-37187408D01*
X28965907Y-37252944D01*
X28950854Y-37321173D01*
X28940976Y-37336383D01*
X28872123Y-37427107D01*
X28754129Y-37582578D01*
X28748667Y-37589913D01*
X28455079Y-37991668D01*
X28452333Y-37995464D01*
X28099329Y-38488238D01*
X28097288Y-38491112D01*
X27719627Y-39026930D01*
X27717944Y-39029332D01*
X27625694Y-39161830D01*
X27614996Y-39177839D01*
X25892758Y-41864611D01*
X25874199Y-41896003D01*
X24352825Y-44695121D01*
X24336598Y-44727725D01*
X23025644Y-47618214D01*
X23011687Y-47652224D01*
X22452979Y-49168540D01*
X21920684Y-50613171D01*
X21911112Y-50642457D01*
X21909010Y-50648891D01*
X21852997Y-50844623D01*
X21815628Y-50903660D01*
X21752273Y-50933121D01*
X21683048Y-50923653D01*
X21629931Y-50878262D01*
X21611122Y-50828676D01*
X21594964Y-50719585D01*
X21594744Y-50718024D01*
X21585428Y-50648891D01*
X21460567Y-49722368D01*
X21460189Y-49719264D01*
X21366460Y-48858980D01*
X21366088Y-48854932D01*
X21306224Y-48058376D01*
X21305979Y-48054121D01*
X21273712Y-47248001D01*
X21273624Y-47244565D01*
X21263389Y-46361749D01*
X21263411Y-46357586D01*
X21273655Y-45892230D01*
X21300517Y-44671944D01*
X21300886Y-44664739D01*
X21302063Y-44650109D01*
X21432258Y-43032000D01*
X21433275Y-43023270D01*
X21669940Y-41472833D01*
X21671636Y-41463921D01*
X21688473Y-41390259D01*
X22026083Y-39913173D01*
X22028116Y-39905441D01*
X22512456Y-38279622D01*
X22515206Y-38271450D01*
X23287250Y-36217458D01*
X23291721Y-36207042D01*
X24343387Y-34037356D01*
X24349167Y-34026777D01*
X25605662Y-31971891D01*
X25612394Y-31961990D01*
X25676014Y-31877510D01*
X27074920Y-30019923D01*
X27082351Y-30010965D01*
X28752147Y-28181026D01*
X28759862Y-28173289D01*
X30448361Y-26622927D01*
X30456944Y-26615735D01*
X32394445Y-25136251D01*
X32404237Y-25129493D01*
X34451978Y-23856954D01*
X34462476Y-23851117D01*
X36616934Y-22786663D01*
X36627956Y-22781868D01*
X38884921Y-21927575D01*
X38896200Y-21923913D01*
X41251591Y-21282153D01*
X41262875Y-21279639D01*
X43717693Y-20852222D01*
X43726719Y-20850991D01*
X44441016Y-20780350D01*
X44446632Y-20779925D01*
X45509864Y-20723928D01*
X45514307Y-20723775D01*
X46686599Y-20704892D01*
X46690334Y-20704890D01*
X47900230Y-20722343D01*
G37*
%TD.AperFunction*%
%TA.AperFunction,NonConductor*%
G36*
X71280194Y-53965992D02*
G01*
X71337903Y-54005380D01*
X71365156Y-54069716D01*
X71353300Y-54138572D01*
X71351738Y-54141646D01*
X71339582Y-54164773D01*
X71339573Y-54164791D01*
X71171183Y-54544625D01*
X71161181Y-54568863D01*
X70944236Y-55135838D01*
X70941038Y-55144428D01*
X70732201Y-55720957D01*
X70726673Y-55737064D01*
X70726660Y-55737102D01*
X70726660Y-55737104D01*
X70646786Y-55983296D01*
X70645604Y-55986938D01*
X70606191Y-56044631D01*
X70541844Y-56071857D01*
X70472993Y-56059972D01*
X70421496Y-56012750D01*
X70410950Y-55990573D01*
X70338923Y-55789965D01*
X70337555Y-55785939D01*
X70185712Y-55312585D01*
X70183156Y-55303423D01*
X70174850Y-55268530D01*
X70108779Y-54990963D01*
X70105852Y-54972700D01*
X70091254Y-54799885D01*
X70092172Y-54771150D01*
X70106058Y-54678131D01*
X70113843Y-54649707D01*
X70114785Y-54647392D01*
X70159994Y-54536292D01*
X70167509Y-54520950D01*
X70276905Y-54331897D01*
X70280747Y-54325689D01*
X70301673Y-54294018D01*
X70313086Y-54279288D01*
X70325443Y-54265605D01*
X70348453Y-54245699D01*
X70375702Y-54227448D01*
X70395937Y-54216469D01*
X70530016Y-54159127D01*
X70541535Y-54154864D01*
X70822290Y-54066550D01*
X70827861Y-54064939D01*
X71210352Y-53964055D01*
X71280194Y-53965992D01*
G37*
%TD.AperFunction*%
%TA.AperFunction,NonConductor*%
G36*
X36868872Y-42333674D02*
G01*
X36884091Y-42346103D01*
X49369734Y-54311487D01*
X49720223Y-54647372D01*
X49720247Y-54647395D01*
X49849394Y-54771144D01*
X50178062Y-55086076D01*
X50178075Y-55086089D01*
X50178076Y-55086089D01*
X50178166Y-55086176D01*
X51670731Y-56515546D01*
X51670892Y-56515700D01*
X53115464Y-57897886D01*
X53115631Y-57898045D01*
X54499737Y-59221169D01*
X54502353Y-59223669D01*
X54502645Y-59223949D01*
X54502787Y-59224085D01*
X54669900Y-59383681D01*
X55673817Y-60342444D01*
X55822320Y-60484267D01*
X55822530Y-60484468D01*
X55822539Y-60484476D01*
X56895851Y-61508445D01*
X57065096Y-61669909D01*
X57065335Y-61670137D01*
X57065334Y-61670137D01*
X57558734Y-62140304D01*
X58221088Y-62771471D01*
X58221175Y-62771621D01*
X58221209Y-62771586D01*
X58221455Y-62771821D01*
X59217672Y-63719847D01*
X59281156Y-63780260D01*
X59281372Y-63780465D01*
X59281500Y-63780586D01*
X60234920Y-64686402D01*
X60235302Y-64686765D01*
X61073212Y-65481179D01*
X61073231Y-65481197D01*
X61073238Y-65481204D01*
X61073668Y-65481612D01*
X61073669Y-65481612D01*
X61073732Y-65481672D01*
X61786301Y-66155335D01*
X61786348Y-66155379D01*
X61786347Y-66155379D01*
X61787029Y-66156023D01*
X61787030Y-66156023D01*
X61787079Y-66156069D01*
X62364640Y-66699786D01*
X62365689Y-66700770D01*
X62365897Y-66700965D01*
X62598640Y-66918487D01*
X62634178Y-66978644D01*
X62631550Y-67048465D01*
X62591593Y-67105781D01*
X62526991Y-67132396D01*
X62488531Y-67130443D01*
X62460418Y-67124550D01*
X62460417Y-67124549D01*
X62460413Y-67124549D01*
X62460410Y-67124549D01*
X62460409Y-67124549D01*
X62316661Y-67130719D01*
X61991814Y-67191745D01*
X61925204Y-67213271D01*
X61870086Y-67231083D01*
X61593661Y-67361029D01*
X61429891Y-67438018D01*
X61429890Y-67438019D01*
X61381659Y-67463973D01*
X61381605Y-67464005D01*
X60793189Y-67823114D01*
X60785116Y-67828147D01*
X60389159Y-68080126D01*
X60383112Y-68083737D01*
X58243370Y-69280436D01*
X58232676Y-69285757D01*
X57498925Y-69607741D01*
X56853388Y-69891014D01*
X56784089Y-69899927D01*
X56720973Y-69869959D01*
X56684077Y-69810625D01*
X56685117Y-69740763D01*
X56723762Y-69682554D01*
X56727357Y-69679645D01*
X56819744Y-69607738D01*
X56988164Y-69424785D01*
X57124173Y-69216607D01*
X57224063Y-68988881D01*
X57285108Y-68747821D01*
X57285109Y-68747812D01*
X57305643Y-68500005D01*
X57305643Y-68499994D01*
X57285109Y-68252187D01*
X57285107Y-68252175D01*
X57224063Y-68011118D01*
X57124173Y-67783393D01*
X56988166Y-67575217D01*
X56962116Y-67546919D01*
X56819744Y-67392262D01*
X56623509Y-67239526D01*
X56623507Y-67239525D01*
X56623506Y-67239524D01*
X56404811Y-67121172D01*
X56404802Y-67121169D01*
X56169616Y-67040429D01*
X55924335Y-66999500D01*
X55765783Y-66999500D01*
X55698744Y-66979815D01*
X55678102Y-66963181D01*
X44736946Y-56022026D01*
X44703461Y-55960703D01*
X44701050Y-55944584D01*
X44700631Y-55939524D01*
X44685108Y-55752179D01*
X44624063Y-55511119D01*
X44614308Y-55488881D01*
X44524173Y-55283393D01*
X44388166Y-55075217D01*
X44318928Y-55000005D01*
X44219744Y-54892262D01*
X44023509Y-54739526D01*
X44023507Y-54739525D01*
X44023506Y-54739524D01*
X43804811Y-54621172D01*
X43804802Y-54621169D01*
X43569616Y-54540429D01*
X43324335Y-54499500D01*
X43075665Y-54499500D01*
X42830383Y-54540429D01*
X42595197Y-54621169D01*
X42595188Y-54621172D01*
X42376493Y-54739524D01*
X42180257Y-54892261D01*
X42011833Y-55075217D01*
X41875826Y-55283393D01*
X41775936Y-55511118D01*
X41714892Y-55752175D01*
X41714890Y-55752187D01*
X41694357Y-55999994D01*
X41694357Y-56000005D01*
X41714890Y-56247812D01*
X41714892Y-56247824D01*
X41775936Y-56488881D01*
X41875826Y-56716606D01*
X42011833Y-56924782D01*
X42011836Y-56924785D01*
X42180256Y-57107738D01*
X42376491Y-57260474D01*
X42595190Y-57378828D01*
X42830386Y-57459571D01*
X43075665Y-57500500D01*
X43329464Y-57500500D01*
X43329464Y-57501764D01*
X43392044Y-57514638D01*
X43421535Y-57536455D01*
X54260657Y-68375578D01*
X54294142Y-68436901D01*
X54296553Y-68473497D01*
X54294358Y-68499994D01*
X54294357Y-68500004D01*
X54294357Y-68500005D01*
X54314890Y-68747812D01*
X54314892Y-68747824D01*
X54375936Y-68988881D01*
X54475826Y-69216606D01*
X54611833Y-69424782D01*
X54611836Y-69424785D01*
X54780256Y-69607738D01*
X54976491Y-69760474D01*
X54976493Y-69760475D01*
X55189184Y-69875578D01*
X55195190Y-69878828D01*
X55430386Y-69959571D01*
X55675665Y-70000500D01*
X55924334Y-70000500D01*
X55924335Y-70000500D01*
X56040245Y-69981158D01*
X56109607Y-69989540D01*
X56163429Y-70034092D01*
X56184620Y-70100671D01*
X56166453Y-70168137D01*
X56114694Y-70215071D01*
X56110480Y-70217015D01*
X56009159Y-70261477D01*
X55998003Y-70265744D01*
X53678043Y-71027256D01*
X53666759Y-71030379D01*
X51237376Y-71580548D01*
X51230530Y-71581897D01*
X51011498Y-71618690D01*
X51006313Y-71619448D01*
X49912987Y-71755903D01*
X49906896Y-71756511D01*
X48667890Y-71849352D01*
X48663084Y-71849619D01*
X47348968Y-71896917D01*
X47344482Y-71896997D01*
X46033442Y-71896722D01*
X46028510Y-71896623D01*
X44798766Y-71847416D01*
X44792351Y-71846992D01*
X43724418Y-71748626D01*
X43714937Y-71747383D01*
X41442444Y-71359681D01*
X41431541Y-71357311D01*
X39068045Y-70731124D01*
X39056736Y-70727541D01*
X36792356Y-69888894D01*
X36781297Y-69884177D01*
X34775595Y-68911119D01*
X34619122Y-68835207D01*
X34608556Y-68829431D01*
X34475092Y-68747812D01*
X32860595Y-67760474D01*
X32552783Y-67572233D01*
X32542918Y-67565527D01*
X30669873Y-66156069D01*
X30597918Y-66101923D01*
X30588927Y-66094469D01*
X30497521Y-66011118D01*
X28752811Y-64420149D01*
X28747187Y-64414686D01*
X28539750Y-64199994D01*
X31894357Y-64199994D01*
X31894357Y-64200005D01*
X31914890Y-64447812D01*
X31914892Y-64447824D01*
X31975936Y-64688881D01*
X32075826Y-64916606D01*
X32211833Y-65124782D01*
X32211836Y-65124785D01*
X32380256Y-65307738D01*
X32576491Y-65460474D01*
X32795190Y-65578828D01*
X33030386Y-65659571D01*
X33275665Y-65700500D01*
X33524335Y-65700500D01*
X33769614Y-65659571D01*
X34004810Y-65578828D01*
X34223509Y-65460474D01*
X34419744Y-65307738D01*
X34444194Y-65281177D01*
X34481626Y-65240517D01*
X34541513Y-65204526D01*
X34572855Y-65200500D01*
X40134218Y-65200500D01*
X40201257Y-65220185D01*
X40221899Y-65236819D01*
X44860657Y-69875578D01*
X44894142Y-69936901D01*
X44896553Y-69973497D01*
X44894358Y-69999994D01*
X44894357Y-70000004D01*
X44894357Y-70000005D01*
X44914890Y-70247812D01*
X44914892Y-70247824D01*
X44975936Y-70488881D01*
X45075826Y-70716606D01*
X45211833Y-70924782D01*
X45211836Y-70924785D01*
X45380256Y-71107738D01*
X45576491Y-71260474D01*
X45576493Y-71260475D01*
X45760391Y-71359996D01*
X45795190Y-71378828D01*
X46030386Y-71459571D01*
X46275665Y-71500500D01*
X46524335Y-71500500D01*
X46769614Y-71459571D01*
X47004810Y-71378828D01*
X47223509Y-71260474D01*
X47419744Y-71107738D01*
X47588164Y-70924785D01*
X47724173Y-70716607D01*
X47824063Y-70488881D01*
X47885108Y-70247821D01*
X47895981Y-70116606D01*
X47905643Y-70000005D01*
X47905643Y-69999994D01*
X47885109Y-69752187D01*
X47885107Y-69752175D01*
X47824063Y-69511118D01*
X47724173Y-69283393D01*
X47588166Y-69075217D01*
X47554221Y-69038343D01*
X47419744Y-68892262D01*
X47223509Y-68739526D01*
X47223507Y-68739525D01*
X47223506Y-68739524D01*
X47004811Y-68621172D01*
X47004802Y-68621169D01*
X46769616Y-68540429D01*
X46524335Y-68499500D01*
X46365783Y-68499500D01*
X46298744Y-68479815D01*
X46278102Y-68463181D01*
X41384209Y-63569289D01*
X41384206Y-63569285D01*
X41384206Y-63569286D01*
X41377139Y-63562219D01*
X41377139Y-63562218D01*
X41237782Y-63422861D01*
X41237781Y-63422860D01*
X41237780Y-63422859D01*
X41073920Y-63313371D01*
X41073911Y-63313366D01*
X41041628Y-63299994D01*
X43994357Y-63299994D01*
X43994357Y-63300005D01*
X44014890Y-63547812D01*
X44014892Y-63547824D01*
X44075936Y-63788881D01*
X44175826Y-64016606D01*
X44311833Y-64224782D01*
X44311836Y-64224785D01*
X44480256Y-64407738D01*
X44676491Y-64560474D01*
X44895190Y-64678828D01*
X45130386Y-64759571D01*
X45375665Y-64800500D01*
X45629464Y-64800500D01*
X45629464Y-64801764D01*
X45692044Y-64814638D01*
X45721534Y-64836454D01*
X47990690Y-67105611D01*
X50160657Y-69275578D01*
X50194142Y-69336901D01*
X50196553Y-69373497D01*
X50194358Y-69399994D01*
X50194357Y-69400004D01*
X50194357Y-69400005D01*
X50214890Y-69647812D01*
X50214892Y-69647824D01*
X50275936Y-69888881D01*
X50375826Y-70116606D01*
X50511833Y-70324782D01*
X50511836Y-70324785D01*
X50680256Y-70507738D01*
X50876491Y-70660474D01*
X51095190Y-70778828D01*
X51330386Y-70859571D01*
X51575665Y-70900500D01*
X51824335Y-70900500D01*
X52069614Y-70859571D01*
X52304810Y-70778828D01*
X52523509Y-70660474D01*
X52719744Y-70507738D01*
X52888164Y-70324785D01*
X53024173Y-70116607D01*
X53124063Y-69888881D01*
X53185108Y-69647821D01*
X53188429Y-69607740D01*
X53205643Y-69400005D01*
X53205643Y-69399994D01*
X53185109Y-69152187D01*
X53185107Y-69152175D01*
X53124063Y-68911118D01*
X53024173Y-68683393D01*
X52888166Y-68475217D01*
X52833855Y-68416220D01*
X52719744Y-68292262D01*
X52523509Y-68139526D01*
X52523507Y-68139525D01*
X52523506Y-68139524D01*
X52304811Y-68021172D01*
X52304802Y-68021169D01*
X52069616Y-67940429D01*
X51824335Y-67899500D01*
X51665783Y-67899500D01*
X51598744Y-67879815D01*
X51578102Y-67863181D01*
X47036946Y-63322026D01*
X47003461Y-63260703D01*
X47001050Y-63244584D01*
X46985108Y-63052179D01*
X46924063Y-62811119D01*
X46908341Y-62775277D01*
X46824173Y-62583393D01*
X46688166Y-62375217D01*
X46629056Y-62311007D01*
X46519744Y-62192262D01*
X46323509Y-62039526D01*
X46323507Y-62039525D01*
X46323506Y-62039524D01*
X46104811Y-61921172D01*
X46104802Y-61921169D01*
X45869616Y-61840429D01*
X45624335Y-61799500D01*
X45375665Y-61799500D01*
X45130383Y-61840429D01*
X44895197Y-61921169D01*
X44895188Y-61921172D01*
X44676493Y-62039524D01*
X44480257Y-62192261D01*
X44311833Y-62375217D01*
X44175826Y-62583393D01*
X44075936Y-62811118D01*
X44014892Y-63052175D01*
X44014890Y-63052187D01*
X43994357Y-63299994D01*
X41041628Y-63299994D01*
X40981805Y-63275215D01*
X40945165Y-63260038D01*
X40907855Y-63244584D01*
X40891837Y-63237949D01*
X40891833Y-63237947D01*
X40708390Y-63201459D01*
X40708386Y-63201457D01*
X40708386Y-63201458D01*
X40698544Y-63199500D01*
X40698541Y-63199500D01*
X34572855Y-63199500D01*
X34505816Y-63179815D01*
X34481626Y-63159483D01*
X34419747Y-63092265D01*
X34419744Y-63092262D01*
X34368245Y-63052179D01*
X34223509Y-62939526D01*
X34223507Y-62939525D01*
X34223506Y-62939524D01*
X34004811Y-62821172D01*
X34004802Y-62821169D01*
X33769616Y-62740429D01*
X33524335Y-62699500D01*
X33275665Y-62699500D01*
X33030383Y-62740429D01*
X32795197Y-62821169D01*
X32795188Y-62821172D01*
X32576493Y-62939524D01*
X32380257Y-63092261D01*
X32211833Y-63275217D01*
X32075826Y-63483393D01*
X31975936Y-63711118D01*
X31914892Y-63952175D01*
X31914890Y-63952187D01*
X31894357Y-64199994D01*
X28539750Y-64199994D01*
X28075828Y-63719847D01*
X28070617Y-63714104D01*
X26502170Y-61873258D01*
X26495029Y-61864031D01*
X25608671Y-60599994D01*
X27594357Y-60599994D01*
X27594357Y-60600005D01*
X27614890Y-60847812D01*
X27614892Y-60847824D01*
X27675936Y-61088881D01*
X27775826Y-61316606D01*
X27911833Y-61524782D01*
X27911836Y-61524785D01*
X28080256Y-61707738D01*
X28276491Y-61860474D01*
X28276493Y-61860475D01*
X28430432Y-61943783D01*
X28495190Y-61978828D01*
X28730386Y-62059571D01*
X28975665Y-62100500D01*
X29224335Y-62100500D01*
X29469614Y-62059571D01*
X29704810Y-61978828D01*
X29923509Y-61860474D01*
X30119744Y-61707738D01*
X30154358Y-61670137D01*
X30181626Y-61640517D01*
X30241513Y-61604526D01*
X30272855Y-61600500D01*
X40827145Y-61600500D01*
X40894184Y-61620185D01*
X40918374Y-61640517D01*
X40980252Y-61707734D01*
X40980256Y-61707738D01*
X41176491Y-61860474D01*
X41176493Y-61860475D01*
X41330432Y-61943783D01*
X41395190Y-61978828D01*
X41630386Y-62059571D01*
X41875665Y-62100500D01*
X42124335Y-62100500D01*
X42369614Y-62059571D01*
X42604810Y-61978828D01*
X42823509Y-61860474D01*
X43019744Y-61707738D01*
X43188164Y-61524785D01*
X43324173Y-61316607D01*
X43424063Y-61088881D01*
X43485108Y-60847821D01*
X43486267Y-60833836D01*
X43505643Y-60600005D01*
X43505643Y-60599994D01*
X43485109Y-60352187D01*
X43485107Y-60352175D01*
X43424063Y-60111118D01*
X43324173Y-59883393D01*
X43188166Y-59675217D01*
X43108961Y-59589178D01*
X43019744Y-59492262D01*
X42823509Y-59339526D01*
X42823507Y-59339525D01*
X42823506Y-59339524D01*
X42604811Y-59221172D01*
X42604802Y-59221169D01*
X42369616Y-59140429D01*
X42124335Y-59099500D01*
X41875665Y-59099500D01*
X41630383Y-59140429D01*
X41395197Y-59221169D01*
X41395188Y-59221172D01*
X41176493Y-59339524D01*
X40980255Y-59492262D01*
X40980252Y-59492265D01*
X40918374Y-59559483D01*
X40858487Y-59595474D01*
X40827145Y-59599500D01*
X30272855Y-59599500D01*
X30205816Y-59579815D01*
X30181626Y-59559483D01*
X30119747Y-59492265D01*
X30119744Y-59492262D01*
X29980238Y-59383680D01*
X29923509Y-59339526D01*
X29923507Y-59339525D01*
X29923506Y-59339524D01*
X29704811Y-59221172D01*
X29704802Y-59221169D01*
X29469616Y-59140429D01*
X29224335Y-59099500D01*
X28975665Y-59099500D01*
X28730383Y-59140429D01*
X28495197Y-59221169D01*
X28495188Y-59221172D01*
X28276493Y-59339524D01*
X28080257Y-59492261D01*
X27911833Y-59675217D01*
X27775826Y-59883393D01*
X27675936Y-60111118D01*
X27614892Y-60352175D01*
X27614890Y-60352187D01*
X27594357Y-60599994D01*
X25608671Y-60599994D01*
X25144852Y-59938540D01*
X25138432Y-59928368D01*
X24386065Y-58597394D01*
X23980843Y-57880538D01*
X23979257Y-57877641D01*
X23958113Y-57837782D01*
X23785858Y-57513056D01*
X23761080Y-57471318D01*
X23758833Y-57467917D01*
X23474082Y-57036856D01*
X23387422Y-56937029D01*
X23132302Y-56711119D01*
X23121901Y-56701909D01*
X23121899Y-56701907D01*
X23121895Y-56701904D01*
X23024384Y-56634180D01*
X22956719Y-56609746D01*
X22889055Y-56585313D01*
X22618129Y-56529341D01*
X22608866Y-56528589D01*
X22494739Y-56519327D01*
X22494732Y-56519328D01*
X22353305Y-56545734D01*
X22349022Y-56546856D01*
X22348615Y-56545302D01*
X22285601Y-56547921D01*
X22225305Y-56512620D01*
X22193666Y-56450325D01*
X22200729Y-56380813D01*
X22226110Y-56341725D01*
X22245128Y-56321914D01*
X22516574Y-55995356D01*
X22532563Y-55975090D01*
X22797546Y-55620986D01*
X22905638Y-55476541D01*
X22905645Y-55476531D01*
X23028354Y-55312585D01*
X23262319Y-54999994D01*
X23994357Y-54999994D01*
X23994357Y-55000005D01*
X24014890Y-55247812D01*
X24014892Y-55247824D01*
X24075936Y-55488881D01*
X24175826Y-55716606D01*
X24311833Y-55924782D01*
X24311836Y-55924785D01*
X24480256Y-56107738D01*
X24676491Y-56260474D01*
X24895190Y-56378828D01*
X25130386Y-56459571D01*
X25375665Y-56500500D01*
X25534218Y-56500500D01*
X25601257Y-56520185D01*
X25621899Y-56536819D01*
X26919735Y-57834655D01*
X26919764Y-57834686D01*
X27062214Y-57977136D01*
X27062218Y-57977139D01*
X27226079Y-58086628D01*
X27226092Y-58086635D01*
X27354833Y-58139961D01*
X27397744Y-58157735D01*
X27408164Y-58162051D01*
X27504812Y-58181275D01*
X27553135Y-58190887D01*
X27601458Y-58200500D01*
X27601459Y-58200500D01*
X27601460Y-58200500D01*
X27798540Y-58200500D01*
X37727145Y-58200500D01*
X37794184Y-58220185D01*
X37818374Y-58240517D01*
X37880252Y-58307734D01*
X37880256Y-58307738D01*
X38076491Y-58460474D01*
X38185840Y-58519651D01*
X38241458Y-58549750D01*
X38295190Y-58578828D01*
X38530386Y-58659571D01*
X38775665Y-58700500D01*
X39024335Y-58700500D01*
X39269614Y-58659571D01*
X39504810Y-58578828D01*
X39723509Y-58460474D01*
X39919744Y-58307738D01*
X40088164Y-58124785D01*
X40224173Y-57916607D01*
X40324063Y-57688881D01*
X40385108Y-57447821D01*
X40387909Y-57414021D01*
X40405643Y-57200005D01*
X40405643Y-57199994D01*
X40385109Y-56952187D01*
X40385107Y-56952175D01*
X40324063Y-56711118D01*
X40224173Y-56483393D01*
X40088166Y-56275217D01*
X39981625Y-56159483D01*
X39919744Y-56092262D01*
X39723509Y-55939526D01*
X39723507Y-55939525D01*
X39723506Y-55939524D01*
X39504811Y-55821172D01*
X39504802Y-55821169D01*
X39269616Y-55740429D01*
X39024335Y-55699500D01*
X38775665Y-55699500D01*
X38530383Y-55740429D01*
X38295197Y-55821169D01*
X38295188Y-55821172D01*
X38076493Y-55939524D01*
X37880255Y-56092262D01*
X37880252Y-56092265D01*
X37818374Y-56159483D01*
X37758487Y-56195474D01*
X37727145Y-56199500D01*
X28165782Y-56199500D01*
X28098743Y-56179815D01*
X28078101Y-56163181D01*
X27039342Y-55124422D01*
X27005857Y-55063099D01*
X27003447Y-55026499D01*
X27005643Y-55000003D01*
X27005643Y-54999995D01*
X26985109Y-54752187D01*
X26985107Y-54752175D01*
X26924063Y-54511118D01*
X26824173Y-54283393D01*
X26688166Y-54075217D01*
X26587617Y-53965992D01*
X26519744Y-53892262D01*
X26323509Y-53739526D01*
X26323507Y-53739525D01*
X26323506Y-53739524D01*
X26104811Y-53621172D01*
X26104802Y-53621169D01*
X25869616Y-53540429D01*
X25624335Y-53499500D01*
X25375665Y-53499500D01*
X25130383Y-53540429D01*
X24895197Y-53621169D01*
X24895188Y-53621172D01*
X24676493Y-53739524D01*
X24480257Y-53892261D01*
X24311833Y-54075217D01*
X24175826Y-54283393D01*
X24075936Y-54511118D01*
X24014892Y-54752175D01*
X24014890Y-54752187D01*
X23994357Y-54999994D01*
X23262319Y-54999994D01*
X23528441Y-54644439D01*
X23529781Y-54642684D01*
X24436043Y-53478808D01*
X24437191Y-53477357D01*
X25224292Y-52499994D01*
X26294357Y-52499994D01*
X26294357Y-52500005D01*
X26314890Y-52747812D01*
X26314892Y-52747824D01*
X26375936Y-52988881D01*
X26475826Y-53216606D01*
X26611833Y-53424782D01*
X26636473Y-53451548D01*
X26780256Y-53607738D01*
X26976491Y-53760474D01*
X27195190Y-53878828D01*
X27430386Y-53959571D01*
X27675665Y-54000500D01*
X27924335Y-54000500D01*
X28169614Y-53959571D01*
X28404810Y-53878828D01*
X28623509Y-53760474D01*
X28819744Y-53607738D01*
X28988164Y-53424785D01*
X29124173Y-53216607D01*
X29224063Y-52988881D01*
X29285108Y-52747821D01*
X29292015Y-52664446D01*
X29317168Y-52599264D01*
X29327903Y-52587015D01*
X31062322Y-50852597D01*
X31123641Y-50819115D01*
X31193333Y-50824099D01*
X31237679Y-50852599D01*
X32664894Y-52279815D01*
X34060657Y-53675578D01*
X34094142Y-53736901D01*
X34096553Y-53773497D01*
X34094358Y-53799994D01*
X34094357Y-53800004D01*
X34094357Y-53800005D01*
X34114890Y-54047812D01*
X34114892Y-54047824D01*
X34175936Y-54288881D01*
X34275826Y-54516606D01*
X34411833Y-54724782D01*
X34411836Y-54724785D01*
X34580256Y-54907738D01*
X34776491Y-55060474D01*
X34776493Y-55060475D01*
X34988236Y-55175065D01*
X34995190Y-55178828D01*
X35230386Y-55259571D01*
X35475665Y-55300500D01*
X35724335Y-55300500D01*
X35969614Y-55259571D01*
X36204810Y-55178828D01*
X36423509Y-55060474D01*
X36619744Y-54907738D01*
X36788164Y-54724785D01*
X36924173Y-54516607D01*
X37024063Y-54288881D01*
X37085108Y-54047821D01*
X37091010Y-53976594D01*
X37105643Y-53800005D01*
X37105643Y-53799994D01*
X37085109Y-53552187D01*
X37085107Y-53552175D01*
X37024063Y-53311118D01*
X36924173Y-53083393D01*
X36788166Y-52875217D01*
X36766557Y-52851744D01*
X36619744Y-52692262D01*
X36423509Y-52539526D01*
X36423507Y-52539525D01*
X36423506Y-52539524D01*
X36204811Y-52421172D01*
X36204802Y-52421169D01*
X35969616Y-52340429D01*
X35724335Y-52299500D01*
X35565783Y-52299500D01*
X35498744Y-52279815D01*
X35478102Y-52263181D01*
X31932527Y-48717607D01*
X31932505Y-48717582D01*
X31787786Y-48572863D01*
X31787782Y-48572860D01*
X31623914Y-48463369D01*
X31623909Y-48463367D01*
X31441836Y-48387949D01*
X31441828Y-48387947D01*
X31248543Y-48349500D01*
X31248540Y-48349500D01*
X31051460Y-48349500D01*
X31051457Y-48349500D01*
X30858171Y-48387947D01*
X30858163Y-48387949D01*
X30676087Y-48463367D01*
X30512214Y-48572863D01*
X30512213Y-48572864D01*
X28107654Y-50977424D01*
X28046331Y-51010909D01*
X27999566Y-51012052D01*
X27924336Y-50999500D01*
X27924335Y-50999500D01*
X27675665Y-50999500D01*
X27430383Y-51040429D01*
X27195197Y-51121169D01*
X27195188Y-51121172D01*
X26976493Y-51239524D01*
X26780257Y-51392261D01*
X26611833Y-51575217D01*
X26475826Y-51783393D01*
X26375936Y-52011118D01*
X26314892Y-52252175D01*
X26314890Y-52252187D01*
X26294357Y-52499994D01*
X25224292Y-52499994D01*
X25461866Y-52204993D01*
X25462789Y-52203863D01*
X26576861Y-50859041D01*
X26577738Y-50857995D01*
X27752579Y-49476225D01*
X27753179Y-49475526D01*
X28120204Y-49052332D01*
X28120479Y-49052017D01*
X28729462Y-48359135D01*
X29404164Y-47600236D01*
X30119973Y-46802311D01*
X30122068Y-46799994D01*
X31394357Y-46799994D01*
X31394357Y-46800005D01*
X31414890Y-47047812D01*
X31414892Y-47047824D01*
X31475936Y-47288881D01*
X31575826Y-47516606D01*
X31711833Y-47724782D01*
X31711836Y-47724785D01*
X31880256Y-47907738D01*
X32076491Y-48060474D01*
X32295190Y-48178828D01*
X32530386Y-48259571D01*
X32775665Y-48300500D01*
X32934218Y-48300500D01*
X33001257Y-48320185D01*
X33021898Y-48336818D01*
X38122860Y-53437781D01*
X38122861Y-53437782D01*
X38206920Y-53521841D01*
X38262219Y-53577140D01*
X38413372Y-53678137D01*
X38426086Y-53686632D01*
X38532745Y-53730811D01*
X38608164Y-53762051D01*
X38801454Y-53800499D01*
X38801457Y-53800500D01*
X38801459Y-53800500D01*
X45134218Y-53800500D01*
X45201257Y-53820185D01*
X45221899Y-53836819D01*
X57760657Y-66375577D01*
X57794142Y-66436900D01*
X57796553Y-66473495D01*
X57794358Y-66499994D01*
X57794357Y-66500002D01*
X57794357Y-66500005D01*
X57814890Y-66747812D01*
X57814892Y-66747824D01*
X57875936Y-66988881D01*
X57975826Y-67216606D01*
X58111833Y-67424782D01*
X58111836Y-67424785D01*
X58280256Y-67607738D01*
X58476491Y-67760474D01*
X58695190Y-67878828D01*
X58930386Y-67959571D01*
X59175665Y-68000500D01*
X59424335Y-68000500D01*
X59669614Y-67959571D01*
X59904810Y-67878828D01*
X60123509Y-67760474D01*
X60319744Y-67607738D01*
X60488164Y-67424785D01*
X60624173Y-67216607D01*
X60724063Y-66988881D01*
X60785108Y-66747821D01*
X60788991Y-66700965D01*
X60805643Y-66500005D01*
X60805643Y-66499994D01*
X60785109Y-66252187D01*
X60785107Y-66252175D01*
X60724063Y-66011118D01*
X60624173Y-65783393D01*
X60488166Y-65575217D01*
X60466557Y-65551744D01*
X60319744Y-65392262D01*
X60123509Y-65239526D01*
X60123507Y-65239525D01*
X60123506Y-65239524D01*
X59904811Y-65121172D01*
X59904802Y-65121169D01*
X59669616Y-65040429D01*
X59424335Y-64999500D01*
X59265782Y-64999500D01*
X59198743Y-64979815D01*
X59178101Y-64963181D01*
X46381479Y-52166559D01*
X46381459Y-52166537D01*
X46237785Y-52022863D01*
X46237781Y-52022860D01*
X46073920Y-51913371D01*
X46073911Y-51913366D01*
X45994190Y-51880345D01*
X45945165Y-51860038D01*
X45891836Y-51837949D01*
X45891832Y-51837948D01*
X45891828Y-51837946D01*
X45795188Y-51818724D01*
X45698544Y-51799500D01*
X45698541Y-51799500D01*
X39365783Y-51799500D01*
X39298744Y-51779815D01*
X39278102Y-51763181D01*
X34439342Y-46924422D01*
X34405857Y-46863099D01*
X34403447Y-46826499D01*
X34405643Y-46800003D01*
X34405643Y-46799995D01*
X34385109Y-46552187D01*
X34385107Y-46552175D01*
X34324063Y-46311118D01*
X34224173Y-46083393D01*
X34088166Y-45875217D01*
X34052105Y-45836045D01*
X33919744Y-45692262D01*
X33723509Y-45539526D01*
X33723507Y-45539525D01*
X33723506Y-45539524D01*
X33504811Y-45421172D01*
X33504802Y-45421169D01*
X33269616Y-45340429D01*
X33024335Y-45299500D01*
X32775665Y-45299500D01*
X32530383Y-45340429D01*
X32295197Y-45421169D01*
X32295188Y-45421172D01*
X32076493Y-45539524D01*
X31880257Y-45692261D01*
X31711833Y-45875217D01*
X31575826Y-46083393D01*
X31475936Y-46311118D01*
X31414892Y-46552175D01*
X31414890Y-46552187D01*
X31394357Y-46799994D01*
X30122068Y-46799994D01*
X30850965Y-45993808D01*
X31572790Y-45201420D01*
X32259930Y-44453126D01*
X32887167Y-43776564D01*
X32887406Y-43776308D01*
X33429124Y-43199522D01*
X33429682Y-43198935D01*
X33858622Y-42751622D01*
X33860391Y-42749816D01*
X34149201Y-42461353D01*
X34152365Y-42458306D01*
X34184031Y-42428864D01*
X34246531Y-42397631D01*
X34315995Y-42405147D01*
X34334019Y-42414421D01*
X34396007Y-42453033D01*
X34409978Y-42461736D01*
X34414693Y-42464604D01*
X34418907Y-42467169D01*
X34551788Y-42522344D01*
X34982250Y-42632607D01*
X35096763Y-42648299D01*
X35126511Y-42648941D01*
X35193108Y-42670068D01*
X35237712Y-42723847D01*
X35246160Y-42793204D01*
X35215770Y-42856119D01*
X35182850Y-42881966D01*
X35076500Y-42939519D01*
X35076494Y-42939523D01*
X34880257Y-43092261D01*
X34711833Y-43275217D01*
X34575826Y-43483393D01*
X34475936Y-43711118D01*
X34414892Y-43952175D01*
X34414890Y-43952187D01*
X34394357Y-44199994D01*
X34394357Y-44200005D01*
X34414890Y-44447812D01*
X34414892Y-44447824D01*
X34475936Y-44688881D01*
X34575826Y-44916606D01*
X34711833Y-45124782D01*
X34711836Y-45124785D01*
X34880256Y-45307738D01*
X35076491Y-45460474D01*
X35295190Y-45578828D01*
X35530386Y-45659571D01*
X35775665Y-45700500D01*
X35934218Y-45700500D01*
X36001257Y-45720185D01*
X36021899Y-45736819D01*
X40160657Y-49875578D01*
X40194142Y-49936901D01*
X40196553Y-49973497D01*
X40194358Y-49999994D01*
X40194357Y-50000004D01*
X40194357Y-50000005D01*
X40214890Y-50247812D01*
X40214892Y-50247824D01*
X40275936Y-50488881D01*
X40375826Y-50716606D01*
X40511833Y-50924782D01*
X40511836Y-50924785D01*
X40680256Y-51107738D01*
X40876491Y-51260474D01*
X41095190Y-51378828D01*
X41330386Y-51459571D01*
X41575665Y-51500500D01*
X41824335Y-51500500D01*
X42069614Y-51459571D01*
X42304810Y-51378828D01*
X42523509Y-51260474D01*
X42719744Y-51107738D01*
X42888164Y-50924785D01*
X43024173Y-50716607D01*
X43124063Y-50488881D01*
X43185108Y-50247821D01*
X43185109Y-50247812D01*
X43205643Y-50000005D01*
X43205643Y-49999994D01*
X43185109Y-49752187D01*
X43185107Y-49752175D01*
X43124063Y-49511118D01*
X43024173Y-49283393D01*
X42888166Y-49075217D01*
X42755582Y-48931193D01*
X42719744Y-48892262D01*
X42523509Y-48739526D01*
X42523507Y-48739525D01*
X42523506Y-48739524D01*
X42304811Y-48621172D01*
X42304802Y-48621169D01*
X42069616Y-48540429D01*
X41824335Y-48499500D01*
X41665783Y-48499500D01*
X41598744Y-48479815D01*
X41578102Y-48463181D01*
X39512037Y-46397116D01*
X37439341Y-44324421D01*
X37405857Y-44263099D01*
X37403447Y-44226499D01*
X37405643Y-44200003D01*
X37405643Y-44199995D01*
X37385109Y-43952187D01*
X37385107Y-43952175D01*
X37324063Y-43711118D01*
X37224173Y-43483393D01*
X37088166Y-43275217D01*
X37033095Y-43215394D01*
X36919744Y-43092262D01*
X36723509Y-42939526D01*
X36723507Y-42939525D01*
X36723506Y-42939524D01*
X36504811Y-42821172D01*
X36504802Y-42821169D01*
X36323259Y-42758844D01*
X36266243Y-42718458D01*
X36240113Y-42653658D01*
X36253165Y-42585019D01*
X36301254Y-42534331D01*
X36318530Y-42526014D01*
X36321539Y-42524842D01*
X36463937Y-42458306D01*
X36714290Y-42341328D01*
X36734874Y-42329076D01*
X36802546Y-42311703D01*
X36868872Y-42333674D01*
G37*
%TD.AperFunction*%
%TA.AperFunction,NonConductor*%
G36*
X47544328Y-17672724D02*
G01*
X48623077Y-17712613D01*
X48627620Y-17712866D01*
X49704145Y-17792588D01*
X49708700Y-17793009D01*
X50781598Y-17912462D01*
X50786139Y-17913053D01*
X51853812Y-18072058D01*
X51858306Y-18072811D01*
X52919466Y-18271176D01*
X52923941Y-18272099D01*
X53976963Y-18509522D01*
X53981402Y-18510609D01*
X53986303Y-18511906D01*
X54946398Y-18765996D01*
X55024970Y-18786790D01*
X55029362Y-18788039D01*
X56062026Y-19102597D01*
X56066331Y-19103996D01*
X56897871Y-19391274D01*
X57086665Y-19456498D01*
X57090968Y-19458074D01*
X58097596Y-19848044D01*
X58101793Y-19849760D01*
X59093282Y-20276641D01*
X59097424Y-20278515D01*
X59645423Y-20538863D01*
X60072500Y-20741762D01*
X60076602Y-20743805D01*
X61033847Y-21242740D01*
X61037871Y-21244933D01*
X61976019Y-21778894D01*
X61979960Y-21781234D01*
X62897759Y-22349511D01*
X62901610Y-22351995D01*
X63166318Y-22529753D01*
X63797806Y-22953813D01*
X63801528Y-22956414D01*
X64633761Y-23561067D01*
X64674839Y-23590912D01*
X64678496Y-23593674D01*
X65527784Y-24260023D01*
X65531316Y-24262901D01*
X65829741Y-24515405D01*
X66355397Y-24960175D01*
X66358840Y-24963199D01*
X67156580Y-25690434D01*
X67159909Y-25693583D01*
X67930241Y-26449809D01*
X67933452Y-26453080D01*
X68675303Y-27237242D01*
X68678390Y-27240628D01*
X69388622Y-28049237D01*
X69390774Y-28051686D01*
X69393722Y-28055171D01*
X70075637Y-28891982D01*
X70078456Y-28895574D01*
X70258103Y-29133465D01*
X70729002Y-29757038D01*
X70731696Y-29760746D01*
X71349943Y-30645626D01*
X71352498Y-30649430D01*
X71494615Y-30869753D01*
X71907618Y-31510030D01*
X71937651Y-31556589D01*
X71940054Y-31560472D01*
X72032225Y-31715669D01*
X72491266Y-32488602D01*
X72493533Y-32492585D01*
X73010072Y-33440448D01*
X73012190Y-33444511D01*
X73493355Y-34410821D01*
X73495322Y-34414961D01*
X73940454Y-35398396D01*
X73942266Y-35402605D01*
X74350745Y-36401790D01*
X74352401Y-36406063D01*
X74511759Y-36841112D01*
X74711506Y-37386428D01*
X74723697Y-37419708D01*
X74725190Y-37424033D01*
X74996900Y-38260269D01*
X75058768Y-38450679D01*
X75060103Y-38455063D01*
X75355508Y-39493305D01*
X75356681Y-39497735D01*
X75579251Y-40406293D01*
X75611240Y-40536877D01*
X75613531Y-40546227D01*
X75614539Y-40550698D01*
X75832466Y-41607946D01*
X75833308Y-41612450D01*
X76012019Y-42677033D01*
X76012694Y-42681566D01*
X76151946Y-43752025D01*
X76152453Y-43756580D01*
X76252055Y-44831459D01*
X76252393Y-44836029D01*
X76312208Y-45913819D01*
X76312378Y-45918399D01*
X76332325Y-46997709D01*
X76332325Y-47002291D01*
X76312378Y-48081600D01*
X76312208Y-48086180D01*
X76265312Y-48931193D01*
X76241943Y-48997039D01*
X76186685Y-49039797D01*
X76117082Y-49045893D01*
X76062153Y-49019609D01*
X76035050Y-48997039D01*
X75916208Y-48898074D01*
X75893714Y-48880396D01*
X75545107Y-48622040D01*
X75535858Y-48615345D01*
X75057685Y-48277426D01*
X75051802Y-48273331D01*
X74792123Y-48095286D01*
X74474039Y-47877196D01*
X74469234Y-47873942D01*
X74113280Y-47635860D01*
X74068500Y-47582227D01*
X74059825Y-47512898D01*
X74090009Y-47449884D01*
X74130937Y-47419892D01*
X74143737Y-47414078D01*
X74492819Y-47190729D01*
X74578098Y-47122095D01*
X74581362Y-47118826D01*
X74608061Y-47089918D01*
X74723925Y-46954234D01*
X74726966Y-46950639D01*
X74802740Y-46828329D01*
X74872374Y-46668924D01*
X74910521Y-46531000D01*
X74941006Y-46293781D01*
X74945124Y-46227178D01*
X74943539Y-45858053D01*
X74942966Y-45836054D01*
X74916393Y-45280931D01*
X74916151Y-45276314D01*
X74911178Y-45189131D01*
X74910192Y-45175222D01*
X74857130Y-44549232D01*
X74849546Y-44494950D01*
X74766448Y-44069847D01*
X74722440Y-43940697D01*
X74592543Y-43680992D01*
X74592541Y-43680988D01*
X74528936Y-43583697D01*
X74528934Y-43583695D01*
X74422081Y-43487348D01*
X74422075Y-43487343D01*
X74292251Y-43400240D01*
X74228622Y-43357550D01*
X74193385Y-43338183D01*
X74150387Y-43314552D01*
X74150388Y-43314552D01*
X74011765Y-43275990D01*
X73760401Y-43243508D01*
X73696437Y-43215394D01*
X73657827Y-43157162D01*
X73656829Y-43087299D01*
X73681979Y-43040027D01*
X73955744Y-42719316D01*
X73963125Y-42710465D01*
X74416285Y-42154406D01*
X74430223Y-42136498D01*
X74738693Y-41721233D01*
X74765446Y-41681398D01*
X74765446Y-41681397D01*
X74765454Y-41681386D01*
X74765458Y-41681378D01*
X74807145Y-41612450D01*
X74941516Y-41390272D01*
X74992519Y-41276019D01*
X75048478Y-41092377D01*
X75054337Y-41071563D01*
X75070160Y-40928556D01*
X75069597Y-40911291D01*
X75055653Y-40808738D01*
X74989782Y-40536856D01*
X74970109Y-40473920D01*
X74815385Y-40072907D01*
X74804042Y-40045870D01*
X74590030Y-39574563D01*
X74581009Y-39555740D01*
X74337273Y-39072974D01*
X74332793Y-39064556D01*
X74327043Y-39053751D01*
X74198426Y-38824155D01*
X74083144Y-38618361D01*
X74065648Y-38589440D01*
X73851156Y-38260269D01*
X73851151Y-38260262D01*
X73851148Y-38260258D01*
X73794560Y-38188540D01*
X73794555Y-38188535D01*
X73794553Y-38188532D01*
X73639028Y-38024415D01*
X73639010Y-38024396D01*
X73627860Y-38012997D01*
X73569621Y-37969828D01*
X73512274Y-37927319D01*
X73512272Y-37927318D01*
X73377229Y-37877674D01*
X73243577Y-37849260D01*
X73189230Y-37842093D01*
X73165117Y-37838913D01*
X73165114Y-37838912D01*
X73165108Y-37838912D01*
X72793270Y-37819272D01*
X72766733Y-37818568D01*
X72634380Y-37818538D01*
X72567345Y-37798838D01*
X72521603Y-37746023D01*
X72511675Y-37676863D01*
X72540715Y-37613314D01*
X72574455Y-37585996D01*
X72705197Y-37513786D01*
X72761537Y-37477602D01*
X72863826Y-37376417D01*
X72952420Y-37259398D01*
X72982058Y-37215679D01*
X73038179Y-37083195D01*
X73089857Y-36887269D01*
X73098084Y-36850601D01*
X73103943Y-36706840D01*
X73075723Y-36431319D01*
X73075721Y-36431312D01*
X73075721Y-36431306D01*
X73065791Y-36381355D01*
X73057192Y-36338096D01*
X72941094Y-35949572D01*
X72926710Y-35908093D01*
X72714757Y-35373163D01*
X72707185Y-35355083D01*
X72391399Y-34640338D01*
X72388063Y-34632949D01*
X72265073Y-34366231D01*
X72253086Y-34341967D01*
X72253083Y-34341963D01*
X72253075Y-34341945D01*
X71109302Y-32174731D01*
X71109287Y-32174705D01*
X71109279Y-32174689D01*
X71085739Y-32134656D01*
X69732794Y-30058378D01*
X69706693Y-30021960D01*
X69584678Y-29866735D01*
X68165104Y-28060785D01*
X68158877Y-28053539D01*
X68138668Y-28030022D01*
X68136289Y-28027253D01*
X66426523Y-26205254D01*
X66394614Y-26174123D01*
X64537174Y-24515405D01*
X64532956Y-24511970D01*
X64501512Y-24486363D01*
X62516861Y-23015004D01*
X62495009Y-22999681D01*
X62345507Y-22900627D01*
X62288159Y-22862631D01*
X62279647Y-22857114D01*
X61628470Y-22444288D01*
X61628463Y-22444283D01*
X61628443Y-22444271D01*
X61617615Y-22437596D01*
X60940143Y-22031629D01*
X60930144Y-22025792D01*
X60264497Y-21647355D01*
X60253594Y-21641332D01*
X59637841Y-21311064D01*
X59637826Y-21311056D01*
X59637805Y-21311045D01*
X59629532Y-21306779D01*
X59623301Y-21303566D01*
X59256876Y-21122044D01*
X59095528Y-21042114D01*
X59070071Y-21030370D01*
X58801338Y-20915311D01*
X58668328Y-20858363D01*
X58636027Y-20847309D01*
X58596832Y-20833895D01*
X58478002Y-20802932D01*
X58359178Y-20771971D01*
X58343931Y-20768250D01*
X58200523Y-20756601D01*
X58200521Y-20756601D01*
X58200520Y-20756601D01*
X58142604Y-20760182D01*
X58142591Y-20760183D01*
X58097240Y-20765050D01*
X57959566Y-20806860D01*
X57959563Y-20806862D01*
X57658250Y-20947847D01*
X57559659Y-21008626D01*
X57512882Y-21057767D01*
X57452403Y-21092752D01*
X57382609Y-21089486D01*
X57325661Y-21049005D01*
X57300055Y-20987888D01*
X57282209Y-20847309D01*
X57220962Y-20625206D01*
X57216234Y-20608061D01*
X57211287Y-20591266D01*
X57211286Y-20591264D01*
X57211285Y-20591260D01*
X57149147Y-20461489D01*
X57103108Y-20392634D01*
X57101710Y-20390543D01*
X57088810Y-20373010D01*
X57074822Y-20353995D01*
X56969432Y-20256044D01*
X56862430Y-20181889D01*
X56862426Y-20181886D01*
X56792101Y-20141103D01*
X56792087Y-20141097D01*
X56654742Y-20098279D01*
X56477973Y-20069858D01*
X56477966Y-20069857D01*
X56360689Y-20064807D01*
X56360686Y-20064807D01*
X56081578Y-20085314D01*
X56081571Y-20085314D01*
X56081569Y-20085315D01*
X56069537Y-20086808D01*
X56031272Y-20091558D01*
X56031248Y-20091562D01*
X55617206Y-20164189D01*
X55595948Y-20168389D01*
X55014342Y-20296340D01*
X55005654Y-20298331D01*
X54223952Y-20484785D01*
X54220577Y-20485604D01*
X54220404Y-20485646D01*
X54142712Y-20504771D01*
X54004216Y-20538863D01*
X53992191Y-20542084D01*
X53984344Y-20544186D01*
X53984330Y-20544190D01*
X53984319Y-20544193D01*
X53530227Y-20675782D01*
X53460358Y-20675535D01*
X53401714Y-20637552D01*
X53372914Y-20573894D01*
X53383103Y-20504771D01*
X53384621Y-20501597D01*
X53438714Y-20392634D01*
X53476606Y-20289406D01*
X53490974Y-20146245D01*
X53473505Y-19738122D01*
X53471409Y-19708953D01*
X53461329Y-19668366D01*
X53436729Y-19569314D01*
X53412798Y-19510469D01*
X53382983Y-19437151D01*
X53361591Y-19391276D01*
X53361591Y-19391275D01*
X53361590Y-19391274D01*
X53276914Y-19274946D01*
X53276913Y-19274945D01*
X53138315Y-19132585D01*
X53117983Y-19112840D01*
X52999225Y-19031609D01*
X52999212Y-19031602D01*
X52752188Y-18910102D01*
X52752187Y-18910101D01*
X52669216Y-18878015D01*
X52280969Y-18765996D01*
X52241222Y-18756253D01*
X51679005Y-18642353D01*
X51661137Y-18639066D01*
X50892117Y-18511906D01*
X50886035Y-18510940D01*
X50845088Y-18504686D01*
X50826068Y-18502148D01*
X50088279Y-18417937D01*
X50065809Y-18415877D01*
X49155270Y-18352860D01*
X49140683Y-18352061D01*
X48116267Y-18310706D01*
X48107611Y-18310454D01*
X48104834Y-18310374D01*
X48104828Y-18310373D01*
X48104763Y-18310372D01*
X47025412Y-18291156D01*
X47020103Y-18291117D01*
X47014762Y-18291079D01*
X47014720Y-18291079D01*
X47014703Y-18291079D01*
X45939252Y-18294470D01*
X45931651Y-18294581D01*
X45927576Y-18294641D01*
X44914818Y-18321118D01*
X44914780Y-18321119D01*
X44914763Y-18321120D01*
X44899718Y-18321738D01*
X44008622Y-18371775D01*
X43984598Y-18373701D01*
X43274093Y-18447773D01*
X43254565Y-18450195D01*
X43245624Y-18451481D01*
X43241225Y-18452115D01*
X43241213Y-18452117D01*
X43219472Y-18455730D01*
X40609171Y-18948365D01*
X40565370Y-18958671D01*
X38055978Y-19668360D01*
X38055947Y-19668370D01*
X38012163Y-19682941D01*
X38012160Y-19682942D01*
X35609677Y-20606354D01*
X35609645Y-20606367D01*
X35566707Y-20625201D01*
X35566696Y-20625206D01*
X33277084Y-21759031D01*
X33235734Y-21781975D01*
X31065014Y-23122876D01*
X31064998Y-23122886D01*
X31026096Y-23149501D01*
X31026092Y-23149504D01*
X30062170Y-23877289D01*
X28980244Y-24694169D01*
X28980238Y-24694173D01*
X28980234Y-24694177D01*
X28944346Y-24723970D01*
X28944341Y-24723974D01*
X27353039Y-26174123D01*
X27046929Y-26453080D01*
X27029402Y-26469052D01*
X26997065Y-26501314D01*
X25614640Y-28011347D01*
X25237621Y-28423168D01*
X25218993Y-28443515D01*
X25189732Y-28478530D01*
X23783701Y-30324425D01*
X23757192Y-30362776D01*
X23757183Y-30362789D01*
X23757177Y-30362799D01*
X22885978Y-31756578D01*
X22454884Y-32446258D01*
X22432153Y-32486631D01*
X22432134Y-32486667D01*
X21321831Y-34689159D01*
X21321811Y-34689201D01*
X21303297Y-34730414D01*
X20391126Y-37031043D01*
X20376557Y-37073110D01*
X20376553Y-37073121D01*
X20376552Y-37073126D01*
X19668752Y-39450803D01*
X19657972Y-39493841D01*
X19657969Y-39493852D01*
X19657968Y-39493859D01*
X19160746Y-41927543D01*
X19160744Y-41927558D01*
X19153744Y-41971687D01*
X18957360Y-43700397D01*
X18873291Y-44440434D01*
X18870195Y-44485791D01*
X18812723Y-46968532D01*
X18813798Y-47015202D01*
X18985511Y-49490939D01*
X18987765Y-49515054D01*
X19002701Y-49641982D01*
X19003181Y-49645915D01*
X19108901Y-50486664D01*
X19110669Y-50499405D01*
X19207333Y-51136798D01*
X19211890Y-51162396D01*
X19307382Y-51629036D01*
X19319939Y-51677856D01*
X19319951Y-51677898D01*
X19422150Y-52006357D01*
X19457093Y-52090834D01*
X19457103Y-52090857D01*
X19573879Y-52313653D01*
X19651480Y-52423272D01*
X19790719Y-52572962D01*
X19790721Y-52572963D01*
X19892344Y-52656967D01*
X19892352Y-52656973D01*
X20062654Y-52763734D01*
X20160549Y-52825104D01*
X20278255Y-52879291D01*
X20420295Y-52902230D01*
X20514460Y-52903860D01*
X20702781Y-52907122D01*
X20702785Y-52907121D01*
X20702791Y-52907122D01*
X20740534Y-52906366D01*
X20881541Y-52877756D01*
X21008776Y-52810578D01*
X21073217Y-52763732D01*
X21139014Y-52740236D01*
X21207072Y-52756043D01*
X21255781Y-52806135D01*
X21269675Y-52874609D01*
X21265342Y-52898147D01*
X21047525Y-53659297D01*
X21042520Y-53678154D01*
X21019177Y-53773497D01*
X21015638Y-53787953D01*
X21014662Y-53792013D01*
X21014651Y-53792059D01*
X20829539Y-54576066D01*
X20826529Y-54589652D01*
X20705285Y-55175065D01*
X20699997Y-55205144D01*
X20639789Y-55620986D01*
X20639788Y-55620989D01*
X20634585Y-55689699D01*
X20634125Y-55752175D01*
X20632590Y-55960703D01*
X20632557Y-55965130D01*
X20632749Y-55983296D01*
X20632751Y-55983313D01*
X20657292Y-56125063D01*
X20657297Y-56125083D01*
X20710587Y-56289057D01*
X20714988Y-56301989D01*
X20715083Y-56302269D01*
X20751949Y-56372306D01*
X20782100Y-56429587D01*
X20782102Y-56429590D01*
X20882270Y-56532866D01*
X20882274Y-56532869D01*
X20988077Y-56614623D01*
X20998890Y-56622749D01*
X21125954Y-56690249D01*
X21157372Y-56701558D01*
X21260762Y-56726863D01*
X21406404Y-56746579D01*
X21421286Y-56748594D01*
X21421287Y-56748594D01*
X21421294Y-56748595D01*
X21537878Y-56750806D01*
X21537880Y-56750805D01*
X21538230Y-56750812D01*
X21604884Y-56771764D01*
X21649630Y-56825426D01*
X21658260Y-56894761D01*
X21629392Y-56956223D01*
X21551591Y-57045563D01*
X21489280Y-57175254D01*
X21414090Y-57414002D01*
X21414082Y-57414029D01*
X21396234Y-57491537D01*
X21395546Y-57635414D01*
X21395546Y-57635418D01*
X21442542Y-57973752D01*
X21442543Y-57973755D01*
X21468619Y-58078184D01*
X21641477Y-58549738D01*
X21641482Y-58549750D01*
X21653669Y-58578830D01*
X21659252Y-58592150D01*
X21958456Y-59223851D01*
X21961659Y-59230612D01*
X21975769Y-59258185D01*
X22258614Y-59771428D01*
X22784782Y-60726201D01*
X22809512Y-60771074D01*
X22831859Y-60807830D01*
X24121211Y-62738394D01*
X24121226Y-62738415D01*
X24148329Y-62775269D01*
X24148335Y-62775277D01*
X25666209Y-64654638D01*
X25693805Y-64686053D01*
X25693816Y-64686065D01*
X25693820Y-64686069D01*
X27444715Y-66520197D01*
X27462461Y-66537887D01*
X27903710Y-66956465D01*
X27903721Y-66956475D01*
X27925674Y-66976117D01*
X28718353Y-67644755D01*
X29859027Y-68606933D01*
X29859051Y-68606951D01*
X29859053Y-68606953D01*
X29896542Y-68635686D01*
X29896549Y-68635691D01*
X31967384Y-70074292D01*
X32007088Y-70099226D01*
X32007147Y-70099261D01*
X34201022Y-71338960D01*
X34201049Y-71338975D01*
X34237178Y-71357247D01*
X34240137Y-71358744D01*
X34242625Y-71360002D01*
X36545310Y-72394236D01*
X36588433Y-72411273D01*
X38985486Y-73233354D01*
X39029856Y-73246336D01*
X39029861Y-73246337D01*
X39029878Y-73246342D01*
X40268380Y-73547977D01*
X41506904Y-73849619D01*
X41552221Y-73858486D01*
X44094894Y-74236323D01*
X44100952Y-74237000D01*
X44131242Y-74240387D01*
X45012103Y-74306700D01*
X45012116Y-74306700D01*
X45012120Y-74306701D01*
X45032605Y-74307825D01*
X46144995Y-74346276D01*
X46161499Y-74346577D01*
X47330094Y-74348793D01*
X47332473Y-74348798D01*
X47332473Y-74348797D01*
X47332474Y-74348798D01*
X47348587Y-74348572D01*
X48484129Y-74314516D01*
X48504250Y-74313511D01*
X49510340Y-74243133D01*
X49527221Y-74241667D01*
X49821254Y-74211167D01*
X49845411Y-74208072D01*
X51931844Y-73889442D01*
X51970156Y-73882067D01*
X54080810Y-73390662D01*
X54116005Y-73381118D01*
X56201154Y-72734047D01*
X56201154Y-72734046D01*
X56201170Y-72734042D01*
X56215833Y-72728907D01*
X56235362Y-72722071D01*
X58245281Y-71936446D01*
X58280447Y-71921138D01*
X60165413Y-71014069D01*
X60165415Y-71014067D01*
X60165421Y-71014065D01*
X60182353Y-71005005D01*
X60203529Y-70993677D01*
X61913816Y-69982274D01*
X61937099Y-69967635D01*
X62147970Y-69826915D01*
X62163501Y-69816126D01*
X62704917Y-69424785D01*
X62749733Y-69388317D01*
X63099288Y-69068992D01*
X63182971Y-68970049D01*
X63359308Y-68697048D01*
X63405683Y-68606327D01*
X63438317Y-68466196D01*
X63460075Y-68213830D01*
X63457553Y-68103936D01*
X63418527Y-67965450D01*
X63380543Y-67879815D01*
X63335052Y-67777253D01*
X63325864Y-67707990D01*
X63355581Y-67644755D01*
X63414768Y-67607625D01*
X63484634Y-67608387D01*
X63488636Y-67609685D01*
X63676674Y-67674304D01*
X63778720Y-67697898D01*
X64145161Y-67743360D01*
X64232329Y-67746591D01*
X64349786Y-67740791D01*
X64349788Y-67740790D01*
X64349795Y-67740790D01*
X64392803Y-67734166D01*
X64452981Y-67724899D01*
X64614140Y-67682672D01*
X64729280Y-67636795D01*
X64782414Y-67607625D01*
X64915760Y-67534420D01*
X64915764Y-67534417D01*
X64915785Y-67534406D01*
X64981008Y-67491746D01*
X65221295Y-67306642D01*
X65251043Y-67281853D01*
X65573546Y-66991483D01*
X65586414Y-66979486D01*
X66019568Y-66561298D01*
X66024750Y-66556222D01*
X66596988Y-65987665D01*
X66598143Y-65986513D01*
X68215044Y-64369612D01*
X68236482Y-64346804D01*
X68315412Y-64226506D01*
X68357253Y-64088844D01*
X68358615Y-63944970D01*
X68336566Y-63780586D01*
X68290600Y-63437881D01*
X68290596Y-63437851D01*
X68287386Y-63417175D01*
X68264916Y-63289884D01*
X68260378Y-63264178D01*
X68260374Y-63264160D01*
X68253325Y-63237947D01*
X68237314Y-63178404D01*
X68230393Y-63159483D01*
X68205807Y-63092262D01*
X68125681Y-62873194D01*
X68125678Y-62873189D01*
X68125677Y-62873185D01*
X68093877Y-62811118D01*
X68069199Y-62762951D01*
X67851680Y-62442469D01*
X67851676Y-62442463D01*
X67808403Y-62387356D01*
X67808376Y-62387325D01*
X67443876Y-61984159D01*
X67443848Y-61984128D01*
X67432668Y-61972158D01*
X67405292Y-61943783D01*
X67200918Y-61730970D01*
X67200859Y-61730858D01*
X67200834Y-61730883D01*
X66842394Y-61356897D01*
X66842360Y-61356862D01*
X66828710Y-61342609D01*
X66341467Y-60833836D01*
X66236780Y-60724477D01*
X66075012Y-60555488D01*
X65708337Y-60172447D01*
X65708330Y-60172433D01*
X65708327Y-60172437D01*
X64953478Y-59383681D01*
X64953478Y-59383680D01*
X64953469Y-59383672D01*
X64911227Y-59339524D01*
X64087402Y-58478524D01*
X63120576Y-57467918D01*
X63120576Y-57467917D01*
X63120570Y-57467912D01*
X63112591Y-57459571D01*
X62063471Y-56362808D01*
X60926562Y-55174142D01*
X59720319Y-53912863D01*
X59720319Y-53912862D01*
X59720315Y-53912859D01*
X59703729Y-53895515D01*
X58458621Y-52593483D01*
X58403692Y-52536038D01*
X57484957Y-51575217D01*
X57141713Y-51216249D01*
X57141710Y-51216245D01*
X57141710Y-51216246D01*
X55790284Y-49802797D01*
X55790284Y-49802796D01*
X55790283Y-49802796D01*
X55741895Y-49752187D01*
X55511975Y-49511713D01*
X55511940Y-49511676D01*
X54155720Y-48093490D01*
X54155661Y-48093428D01*
X52832941Y-46710741D01*
X52832881Y-46710679D01*
X52832693Y-46710482D01*
X52832684Y-46710473D01*
X52433928Y-46293781D01*
X52390352Y-46248245D01*
X53356782Y-46248245D01*
X53362822Y-46391996D01*
X53383596Y-46503133D01*
X53427935Y-46635472D01*
X53427937Y-46635475D01*
X53517144Y-46814725D01*
X53517149Y-46814734D01*
X53556603Y-46880850D01*
X53556609Y-46880859D01*
X53556610Y-46880860D01*
X53571057Y-46901344D01*
X53731822Y-47129283D01*
X53754593Y-47159149D01*
X54032616Y-47496989D01*
X54045059Y-47511538D01*
X54442716Y-47959068D01*
X54449485Y-47966533D01*
X54983597Y-48544013D01*
X54987077Y-48547736D01*
X54987194Y-48547861D01*
X55056444Y-48621172D01*
X55674346Y-49275307D01*
X55674454Y-49275421D01*
X55674515Y-49275485D01*
X55677164Y-49278268D01*
X55900490Y-49511119D01*
X56226452Y-49850983D01*
X56226510Y-49851043D01*
X56226559Y-49851094D01*
X56229897Y-49854542D01*
X56229988Y-49854636D01*
X56780475Y-50417799D01*
X56780507Y-50417831D01*
X56784590Y-50421960D01*
X57266709Y-50903977D01*
X57268532Y-50905770D01*
X57272581Y-50909753D01*
X57662184Y-51286850D01*
X57673450Y-51297424D01*
X57673482Y-51297453D01*
X57946605Y-51546039D01*
X57982423Y-51575215D01*
X57989594Y-51581056D01*
X58122174Y-51677456D01*
X58122189Y-51677465D01*
X58122202Y-51677475D01*
X58182942Y-51715371D01*
X58318386Y-51763915D01*
X58327014Y-51765676D01*
X58340289Y-51768386D01*
X58340292Y-51768386D01*
X58340301Y-51768388D01*
X58469446Y-51777820D01*
X58687923Y-51765677D01*
X58730774Y-51761459D01*
X58868910Y-51721209D01*
X59136422Y-51599709D01*
X59224984Y-51548067D01*
X59567850Y-51298349D01*
X59606864Y-51266859D01*
X59606889Y-51266837D01*
X60051390Y-50870078D01*
X60052911Y-50868652D01*
X60069134Y-50853457D01*
X60641673Y-50290721D01*
X60646609Y-50285802D01*
X61717350Y-49203975D01*
X61768168Y-49143930D01*
X61834823Y-49016420D01*
X61862854Y-48875297D01*
X61849990Y-48731993D01*
X61398999Y-46825814D01*
X61398315Y-46822959D01*
X61294955Y-46397146D01*
X61293095Y-46389726D01*
X61135935Y-45782507D01*
X61133015Y-45771720D01*
X61124764Y-45742519D01*
X60991401Y-45270518D01*
X60986013Y-45252711D01*
X60956609Y-45161624D01*
X60872313Y-44900491D01*
X60850831Y-44845253D01*
X60805053Y-44745321D01*
X60777429Y-44685018D01*
X60759771Y-44650107D01*
X60672724Y-44535550D01*
X60672721Y-44535547D01*
X60556928Y-44450154D01*
X60514840Y-44427563D01*
X60424834Y-44379251D01*
X60365973Y-44352358D01*
X60186246Y-44283780D01*
X60039521Y-44227794D01*
X60020474Y-44220959D01*
X59555506Y-44064508D01*
X59545485Y-44061251D01*
X58992309Y-43887797D01*
X58985169Y-43885619D01*
X58985167Y-43885618D01*
X58985051Y-43885583D01*
X58394370Y-43710141D01*
X58394363Y-43710139D01*
X58394252Y-43710106D01*
X58387337Y-43708107D01*
X57809603Y-43545612D01*
X57800760Y-43543211D01*
X57286479Y-43408616D01*
X57271445Y-43404927D01*
X56871192Y-43313203D01*
X56830261Y-43305583D01*
X56594572Y-43271685D01*
X56557869Y-43267769D01*
X56557867Y-43267769D01*
X56557866Y-43267769D01*
X56513371Y-43271022D01*
X56414376Y-43278262D01*
X56414363Y-43278264D01*
X56316318Y-43299756D01*
X56306674Y-43301969D01*
X56172957Y-43355079D01*
X55864242Y-43532196D01*
X55864237Y-43532199D01*
X55804444Y-43572426D01*
X55346935Y-43930103D01*
X55322804Y-43950206D01*
X54713713Y-44490516D01*
X54703439Y-44499886D01*
X54268844Y-44907204D01*
X54256779Y-44918893D01*
X53887748Y-45288430D01*
X53859958Y-45318615D01*
X53628422Y-45591531D01*
X53628395Y-45591566D01*
X53576271Y-45665530D01*
X53576260Y-45665547D01*
X53456327Y-45872980D01*
X53445749Y-45892230D01*
X53445746Y-45892235D01*
X53398042Y-46027957D01*
X53398038Y-46027973D01*
X53363816Y-46201060D01*
X53356782Y-46248245D01*
X52390352Y-46248245D01*
X51554730Y-45375038D01*
X51554668Y-45374973D01*
X50332155Y-44097925D01*
X50332088Y-44097855D01*
X49176280Y-42890950D01*
X49176206Y-42890873D01*
X49176204Y-42890870D01*
X49176074Y-42890735D01*
X48340625Y-42018720D01*
X48308460Y-41956694D01*
X48314936Y-41887125D01*
X48357995Y-41832101D01*
X48423967Y-41809091D01*
X48491906Y-41825401D01*
X48518395Y-41845809D01*
X48565286Y-41893295D01*
X48565391Y-41893401D01*
X48565410Y-41893420D01*
X48567128Y-41895151D01*
X48567215Y-41895238D01*
X48567214Y-41895238D01*
X48690333Y-42018720D01*
X49072530Y-42402045D01*
X49075175Y-42404678D01*
X49075297Y-42404799D01*
X49099663Y-42428864D01*
X49481395Y-42805877D01*
X49485918Y-42810289D01*
X49620078Y-42939519D01*
X49804731Y-43117386D01*
X49812351Y-43124573D01*
X49812395Y-43124614D01*
X49812406Y-43124624D01*
X49847635Y-43157162D01*
X50055846Y-43349471D01*
X50069745Y-43361842D01*
X50249733Y-43516180D01*
X50249747Y-43516192D01*
X50277027Y-43537995D01*
X50405591Y-43633663D01*
X50405593Y-43633664D01*
X50405606Y-43633673D01*
X50464643Y-43671537D01*
X50464654Y-43671544D01*
X50509195Y-43695924D01*
X50553738Y-43720305D01*
X50687139Y-43770425D01*
X50687147Y-43770426D01*
X50687148Y-43770427D01*
X50748667Y-43784053D01*
X50748710Y-43784062D01*
X50758941Y-43786217D01*
X50902608Y-43794052D01*
X51042662Y-43761094D01*
X51197350Y-43700398D01*
X51285039Y-43655698D01*
X51586615Y-43462851D01*
X51607974Y-43448071D01*
X51616846Y-43441933D01*
X52009747Y-43148380D01*
X52009761Y-43148368D01*
X52009773Y-43148360D01*
X52029024Y-43133237D01*
X52461449Y-42776264D01*
X52463761Y-42774403D01*
X53303615Y-42115768D01*
X53314599Y-42108078D01*
X54318398Y-41483581D01*
X54332784Y-41475896D01*
X55309093Y-41034409D01*
X55327803Y-41027697D01*
X56256586Y-40776472D01*
X56271059Y-40773472D01*
X56533139Y-40735300D01*
X56546748Y-40734079D01*
X57755336Y-40692635D01*
X57776996Y-40693790D01*
X58928837Y-40857182D01*
X58949610Y-40861981D01*
X60046612Y-41217163D01*
X60065924Y-41225276D01*
X61087849Y-41760275D01*
X61105300Y-41771356D01*
X62031244Y-42474133D01*
X62046521Y-42487865D01*
X62350314Y-42810279D01*
X62855360Y-43346281D01*
X62868161Y-43362349D01*
X63141273Y-43770425D01*
X63484845Y-44283780D01*
X63538833Y-44364446D01*
X63548824Y-44382446D01*
X64062313Y-45521291D01*
X64068688Y-45538857D01*
X64214261Y-46059295D01*
X64217528Y-46074675D01*
X64348704Y-46967664D01*
X64349965Y-46981972D01*
X64378701Y-47940934D01*
X64378347Y-47954726D01*
X64302863Y-48880397D01*
X64300358Y-48897047D01*
X64120745Y-49710750D01*
X64117381Y-49722980D01*
X64074655Y-49852086D01*
X64070484Y-49862951D01*
X63620654Y-50888139D01*
X63611152Y-50905770D01*
X62988486Y-51866239D01*
X62977840Y-51880345D01*
X62125880Y-52856001D01*
X62121950Y-52860294D01*
X61900023Y-53091575D01*
X61885133Y-53107786D01*
X61512594Y-53531473D01*
X61484794Y-53566038D01*
X61242814Y-53895513D01*
X61185013Y-53997012D01*
X61185006Y-53997025D01*
X61098760Y-54199948D01*
X61098755Y-54199961D01*
X61075678Y-54266954D01*
X61075677Y-54266960D01*
X61058627Y-54409817D01*
X61058626Y-54409835D01*
X61058798Y-54416983D01*
X61073175Y-54525146D01*
X61077948Y-54544625D01*
X61085641Y-54576026D01*
X61091152Y-54598516D01*
X61137025Y-54717828D01*
X61137026Y-54717830D01*
X61192992Y-54821794D01*
X61193019Y-54821841D01*
X61227627Y-54877222D01*
X61227643Y-54877245D01*
X61227646Y-54877250D01*
X61238437Y-54892262D01*
X61333573Y-55024611D01*
X61354046Y-55051185D01*
X61465938Y-55186855D01*
X61521882Y-55254688D01*
X61533742Y-55268551D01*
X61564683Y-55303423D01*
X61775434Y-55540954D01*
X61782504Y-55548757D01*
X62109937Y-55902746D01*
X62114210Y-55907309D01*
X62304261Y-56107738D01*
X62539507Y-56355830D01*
X62542161Y-56358608D01*
X63077143Y-56914284D01*
X63078806Y-56916003D01*
X63735459Y-57591629D01*
X63736497Y-57592695D01*
X63736567Y-57592767D01*
X64526668Y-58400925D01*
X64527374Y-58401644D01*
X64527397Y-58401688D01*
X64527408Y-58401679D01*
X65463260Y-59355490D01*
X65463391Y-59355624D01*
X65463709Y-59355949D01*
X66443215Y-60352175D01*
X66557010Y-60467912D01*
X66557836Y-60468750D01*
X66808542Y-60722551D01*
X66812110Y-60726127D01*
X67424598Y-61333907D01*
X67433560Y-61342583D01*
X67433587Y-61342609D01*
X67907609Y-61790322D01*
X67925499Y-61806430D01*
X68021555Y-61888863D01*
X68277467Y-62108480D01*
X68318665Y-62140304D01*
X68564898Y-62311009D01*
X68689142Y-62373816D01*
X68846000Y-62427528D01*
X68976087Y-62453666D01*
X69119551Y-62442722D01*
X69211658Y-62422228D01*
X69217203Y-62420962D01*
X69351190Y-62368532D01*
X69632431Y-62209074D01*
X69692105Y-62169402D01*
X70055322Y-61888866D01*
X70083244Y-61865652D01*
X70482788Y-61508445D01*
X70502969Y-61489379D01*
X70893188Y-61099908D01*
X70913982Y-61077871D01*
X71249229Y-60700542D01*
X71279345Y-60663222D01*
X71513970Y-60342444D01*
X71574994Y-60232533D01*
X71663346Y-60012712D01*
X71687894Y-59933317D01*
X71698644Y-59789839D01*
X71697390Y-59771431D01*
X71684795Y-59688631D01*
X71630240Y-59459649D01*
X71621571Y-59427888D01*
X71495776Y-59019824D01*
X71491927Y-59007868D01*
X71307898Y-58459673D01*
X71305348Y-58452264D01*
X71182818Y-58105196D01*
X71130208Y-57956178D01*
X71126453Y-57886411D01*
X71161013Y-57825687D01*
X71222916Y-57793287D01*
X71285646Y-57797031D01*
X71383556Y-57829020D01*
X71383558Y-57829020D01*
X71383566Y-57829023D01*
X71664071Y-57878036D01*
X71687301Y-57881541D01*
X71831162Y-57879196D01*
X71968536Y-57836416D01*
X72219764Y-57716699D01*
X72295893Y-57671870D01*
X72399935Y-57572488D01*
X72639758Y-57266968D01*
X72697058Y-57175230D01*
X72943349Y-56666830D01*
X72962269Y-56622507D01*
X73232898Y-55894153D01*
X73237395Y-55881541D01*
X73245384Y-55858161D01*
X73247808Y-55850886D01*
X73438838Y-55262827D01*
X73447161Y-55234396D01*
X73553109Y-54828759D01*
X73566502Y-54756137D01*
X73587283Y-54566704D01*
X73595190Y-54494633D01*
X73595701Y-54487273D01*
X73597984Y-54454447D01*
X73581726Y-54311488D01*
X73540974Y-54155818D01*
X73523665Y-54102126D01*
X73508594Y-54075215D01*
X73464800Y-53997013D01*
X73453363Y-53976590D01*
X73313749Y-53794187D01*
X73282593Y-53757278D01*
X73204730Y-53694427D01*
X73164929Y-53637002D01*
X73162492Y-53567175D01*
X73198193Y-53507115D01*
X73253282Y-53477458D01*
X73769265Y-53351854D01*
X73775881Y-53350196D01*
X74412028Y-53186216D01*
X74420909Y-53183841D01*
X74929341Y-53042874D01*
X74945572Y-53038079D01*
X75290523Y-52929880D01*
X75346952Y-52908402D01*
X75492656Y-52842729D01*
X75536020Y-52819074D01*
X75604298Y-52804252D01*
X75669752Y-52828696D01*
X75711600Y-52884647D01*
X75716847Y-52952965D01*
X75614539Y-53449301D01*
X75613531Y-53453772D01*
X75356681Y-54502264D01*
X75355508Y-54506694D01*
X75060103Y-55544936D01*
X75058768Y-55549320D01*
X74725193Y-56575959D01*
X74723697Y-56580291D01*
X74352401Y-57593936D01*
X74350745Y-57598209D01*
X73942266Y-58597394D01*
X73940454Y-58601603D01*
X73495322Y-59585038D01*
X73493355Y-59589178D01*
X73012190Y-60555488D01*
X73010072Y-60559551D01*
X72493533Y-61507414D01*
X72491266Y-61511397D01*
X71940063Y-62439513D01*
X71937651Y-62443410D01*
X71352498Y-63350569D01*
X71349943Y-63354373D01*
X70731696Y-64239253D01*
X70729002Y-64242961D01*
X70078466Y-65104412D01*
X70075637Y-65108017D01*
X69393734Y-65944814D01*
X69390774Y-65948313D01*
X68678390Y-66759371D01*
X68675303Y-66762757D01*
X67933452Y-67546919D01*
X67930241Y-67550190D01*
X67159909Y-68306416D01*
X67156580Y-68309565D01*
X66358840Y-69036800D01*
X66355397Y-69039824D01*
X65531337Y-69737081D01*
X65527784Y-69739976D01*
X64678496Y-70406325D01*
X64674839Y-70409087D01*
X63801545Y-71043573D01*
X63797789Y-71046198D01*
X62901610Y-71648004D01*
X62897759Y-71650488D01*
X61979960Y-72218765D01*
X61976019Y-72221105D01*
X61037871Y-72755066D01*
X61033847Y-72757259D01*
X60076602Y-73256194D01*
X60072500Y-73258237D01*
X59097440Y-73721476D01*
X59093265Y-73723365D01*
X58101816Y-74150229D01*
X58097574Y-74151964D01*
X57090968Y-74541925D01*
X57086665Y-74543501D01*
X56066358Y-74895994D01*
X56061999Y-74897410D01*
X55029378Y-75211955D01*
X55024970Y-75213209D01*
X53981402Y-75489390D01*
X53976951Y-75490480D01*
X52923947Y-75727898D01*
X52919459Y-75728824D01*
X51858319Y-75927185D01*
X51853799Y-75927943D01*
X50786142Y-76086945D01*
X50781598Y-76087537D01*
X49708704Y-76206989D01*
X49704141Y-76207411D01*
X48627636Y-76287132D01*
X48623060Y-76287386D01*
X47544329Y-76327275D01*
X47539747Y-76327360D01*
X46460253Y-76327360D01*
X46455671Y-76327275D01*
X45376939Y-76287386D01*
X45372363Y-76287132D01*
X44295858Y-76207411D01*
X44291295Y-76206989D01*
X43218401Y-76087537D01*
X43213857Y-76086945D01*
X42146200Y-75927943D01*
X42141680Y-75927185D01*
X41080540Y-75728824D01*
X41076052Y-75727898D01*
X40023048Y-75490480D01*
X40018597Y-75489390D01*
X38975029Y-75213209D01*
X38970621Y-75211955D01*
X37938000Y-74897410D01*
X37933641Y-74895994D01*
X36913334Y-74543501D01*
X36909031Y-74541925D01*
X35902425Y-74151964D01*
X35898183Y-74150229D01*
X34906734Y-73723365D01*
X34902559Y-73721476D01*
X33927499Y-73258237D01*
X33923397Y-73256194D01*
X32966152Y-72757259D01*
X32962128Y-72755066D01*
X32023980Y-72221105D01*
X32020039Y-72218765D01*
X31102240Y-71650488D01*
X31098389Y-71648004D01*
X30202210Y-71046198D01*
X30198454Y-71043573D01*
X30157845Y-71014069D01*
X29325160Y-70409087D01*
X29321503Y-70406325D01*
X28472215Y-69739976D01*
X28468677Y-69737093D01*
X27932421Y-69283355D01*
X27644602Y-69039824D01*
X27641159Y-69036800D01*
X26843419Y-68309565D01*
X26840090Y-68306416D01*
X26784849Y-68252187D01*
X26130385Y-67609707D01*
X26069758Y-67550190D01*
X26066547Y-67546919D01*
X25324696Y-66762757D01*
X25321609Y-66759371D01*
X24984508Y-66375577D01*
X24609209Y-65948294D01*
X24606281Y-65944833D01*
X23924346Y-65107997D01*
X23921548Y-65104432D01*
X23425702Y-64447824D01*
X23270997Y-64242961D01*
X23268303Y-64239253D01*
X22650056Y-63354373D01*
X22647501Y-63350569D01*
X22598895Y-63275215D01*
X22062330Y-62443381D01*
X22059954Y-62439542D01*
X21508733Y-61511397D01*
X21506466Y-61507414D01*
X21046423Y-60663222D01*
X20989923Y-60559543D01*
X20987809Y-60555488D01*
X20944201Y-60467912D01*
X20717538Y-60012710D01*
X20506644Y-59589178D01*
X20504677Y-59585038D01*
X20059545Y-58601603D01*
X20057733Y-58597394D01*
X19864523Y-58124782D01*
X19649249Y-57598198D01*
X19647598Y-57593936D01*
X19647170Y-57592767D01*
X19276289Y-56580253D01*
X19274819Y-56575998D01*
X18941219Y-55549283D01*
X18939907Y-55544974D01*
X18644486Y-54506675D01*
X18643318Y-54502264D01*
X18641448Y-54494630D01*
X18386458Y-53453730D01*
X18385469Y-53449344D01*
X18167525Y-52392013D01*
X18166698Y-52387589D01*
X17987979Y-51322963D01*
X17987305Y-51318433D01*
X17984572Y-51297424D01*
X17848052Y-50247965D01*
X17847546Y-50243419D01*
X17747942Y-49168521D01*
X17747606Y-49163970D01*
X17746494Y-49143929D01*
X17687789Y-48086129D01*
X17687622Y-48081651D01*
X17667674Y-47002272D01*
X17667674Y-46997709D01*
X17668098Y-46974782D01*
X17687622Y-45918346D01*
X17687789Y-45913872D01*
X17747607Y-44836006D01*
X17747944Y-44831459D01*
X17749854Y-44810855D01*
X17847547Y-43756565D01*
X17848053Y-43752025D01*
X17852180Y-43720305D01*
X17987306Y-42681556D01*
X17987980Y-42677033D01*
X17995438Y-42632607D01*
X18166700Y-41612400D01*
X18167523Y-41607996D01*
X18385472Y-40550644D01*
X18386455Y-40546281D01*
X18643326Y-39497703D01*
X18644482Y-39493337D01*
X18939912Y-38455009D01*
X18941214Y-38450731D01*
X19274825Y-37423984D01*
X19276283Y-37419762D01*
X19647608Y-36406035D01*
X19649242Y-36401819D01*
X20057738Y-35402592D01*
X20059545Y-35398396D01*
X20199773Y-35088590D01*
X20504682Y-34414949D01*
X20506644Y-34410821D01*
X20535271Y-34353331D01*
X20987824Y-33444480D01*
X20989911Y-33440478D01*
X21506479Y-32492561D01*
X21508719Y-32488624D01*
X22059969Y-31560432D01*
X22062315Y-31556641D01*
X22647519Y-30649401D01*
X22650036Y-30645655D01*
X23268307Y-29760739D01*
X23270997Y-29757038D01*
X23921568Y-28895541D01*
X23924325Y-28892028D01*
X24606303Y-28055139D01*
X24609186Y-28051731D01*
X25321633Y-27240601D01*
X25324670Y-27237269D01*
X26066571Y-26453054D01*
X26069733Y-26449834D01*
X26840121Y-25693553D01*
X26843387Y-25690463D01*
X27641172Y-24963186D01*
X27644588Y-24960186D01*
X28468709Y-24262879D01*
X28472193Y-24260040D01*
X29321507Y-23593670D01*
X29325128Y-23590935D01*
X30198496Y-22956396D01*
X30202167Y-22953830D01*
X31098398Y-22351989D01*
X31102240Y-22349511D01*
X31369703Y-22183905D01*
X32020061Y-21781220D01*
X32023958Y-21778906D01*
X32962148Y-21244922D01*
X32966133Y-21242750D01*
X33923411Y-20743797D01*
X33927485Y-20741768D01*
X34902595Y-20278506D01*
X34906696Y-20276650D01*
X35898225Y-19849752D01*
X35902384Y-19848051D01*
X36909046Y-19458068D01*
X36913318Y-19456503D01*
X37933683Y-19103991D01*
X37937957Y-19102602D01*
X38970651Y-18788035D01*
X38975012Y-18786794D01*
X40018608Y-18510606D01*
X40023023Y-18509524D01*
X41076069Y-18272097D01*
X41080523Y-18271178D01*
X42141701Y-18072810D01*
X42146178Y-18072059D01*
X43213867Y-17913052D01*
X43218392Y-17912463D01*
X44291304Y-17793009D01*
X44295849Y-17792588D01*
X45372382Y-17712865D01*
X45376919Y-17712614D01*
X46455671Y-17672724D01*
X46460253Y-17672640D01*
X47539747Y-17672640D01*
X47544328Y-17672724D01*
G37*
%TD.AperFunction*%
M02*
